<svg width="601" height="601" viewBox="0 0 601 601" fill="none" xmlns="http://www.w3.org/2000/svg"><circle cx="301.36" cy="300.36" r="243.86" fill="transparent" stroke="#C3A173"/><ellipse cx="301" cy="300.5" rx="161" ry="160.5" fill="url(#a)"/><path d="M508.9 120.14a6.58 6.58 0 0 0-2.54 3.19 5 5 0 0 0-.07 3.44c.22.51.56.97 1.01 1.33.37.39.86.69 1.42.95 1.14.5 2.6.8 4.06.53a4.5 4.5 0 0 0 3.31-2.38c.34-.65.54-1.4.6-2.22 0-.77-.17-1.57-.5-2.36a5.17 5.17 0 0 0-3.26-3.08 4.72 4.72 0 0 0-4.04.6Zm-7.85-8.88c-1.33 1.57-1.27 3.77-.05 5.06a3.84 3.84 0 0 0 5.06 0 3.51 3.51 0 0 0 .25-5.25 3.53 3.53 0 0 0-5.26.2Zm-8.85-6.15c-.78 1.46-.41 3.3.88 4.07 1.3.73 3.03.38 4.01-1a2.88 2.88 0 0 0-.81-4.17 2.88 2.88 0 0 0-4.08 1.1Z" fill="#C3A173"/><path d="M484.35 99.52c-.32 1.01.15 2.09 1.07 2.39.9.36 1.96-.13 2.4-1.1a1.9 1.9 0 0 0-1.04-2.51 1.9 1.9 0 0 0-2.43 1.22Zm-6.21-3.65c-.09.75.39 1.46 1.1 1.56.68.11 1.37-.4 1.5-1.16a1.31 1.31 0 0 0-1.07-1.57c-.76-.1-1.44.41-1.53 1.17Zm-6.27-3.57c.06.75.68 1.35 1.4 1.33.7-.02 1.24-.67 1.24-1.42a1.35 1.35 0 0 0-1.4-1.33c-.75.02-1.3.64-1.25 1.42Z" fill="#BD8B5D"/><path d="M410.87 555.84a6.69 6.69 0 0 0-1.7-3.69 4.81 4.81 0 0 0-3.04-1.56 3.4 3.4 0 0 0-1.63.3c-.5.18-1 .46-1.5.86-.96.81-1.87 2-2.28 3.42a4.49 4.49 0 0 0 .65 4.03c.42.58 1 1.11 1.7 1.53a6.6 6.6 0 0 0 2.34.6 5.12 5.12 0 0 0 4.2-1.58c.97-.98 1.4-2.4 1.26-3.9Zm11.43-3.08c-.8-1.89-2.78-2.8-4.47-2.28a3.88 3.88 0 0 0-2.26 4.54 3.48 3.48 0 0 0 4.57 2.54 3.51 3.51 0 0 0 2.17-4.8Zm9.47-5.16c-.94-1.35-2.76-1.82-4.02-1.01a3.11 3.11 0 0 0-.92 4.05 2.85 2.85 0 0 0 4.08 1.12 2.91 2.91 0 0 0 .86-4.17Z" fill="#C3A173"/><path d="M440.25 543.04c-.75-.75-1.93-.78-2.62-.1-.74.65-.76 1.81-.08 2.63.7.8 1.91.9 2.71.2a1.9 1.9 0 0 0 0-2.73Zm6.04-3.94c-.63-.41-1.48-.3-1.9.27-.4.58-.22 1.42.37 1.88.6.46 1.45.34 1.88-.29a1.3 1.3 0 0 0-.35-1.87Zm6.01-4.03c-.72-.27-1.52.03-1.82.65-.29.64.01 1.42.72 1.75.68.32 1.5.04 1.82-.65a1.3 1.3 0 0 0-.73-1.75Z" fill="#BD8B5D"/><path d="M91.69 130.98a6.67 6.67 0 0 0 3.33 2.35c1.25.4 2.39.25 3.42-.16a3.4 3.4 0 0 0 1.27-1.07c.34-.39.64-.9.86-1.48.43-1.16.62-2.65.28-4.09a4.48 4.48 0 0 0-2.58-3.16 5.77 5.77 0 0 0-2.24-.47c-.77.04-1.57.25-2.34.62a5.19 5.19 0 0 0-2.88 3.46c-.32 1.33 0 2.8.88 4Zm-8.39 8.39c1.66 1.22 3.83 1.03 5.06-.26a3.85 3.85 0 0 0-.3-5.03 3.5 3.5 0 0 0-5.25.06 3.47 3.47 0 0 0 .5 5.23Zm-5.6 9.2c1.5.69 3.31.2 4-1.12a3.07 3.07 0 0 0-1.23-3.95c-1.42-.88-3.35-.48-4.1 1.05a2.85 2.85 0 0 0 1.33 4.02Z" fill="#C3A173"/><path d="M72.6 156.74c1.04.26 2.07-.28 2.33-1.22.32-.93-.24-1.96-1.25-2.3a1.92 1.92 0 0 0-2.45 1.18 1.9 1.9 0 0 0 1.38 2.34Zm-3.26 6.43c.75.05 1.44-.47 1.5-1.18.07-.7-.49-1.35-1.24-1.44a1.3 1.3 0 0 0-1.48 1.18c-.11.76.45 1.4 1.22 1.44Zm-3.2 6.48c.75-.11 1.31-.78 1.25-1.47-.07-.68-.74-1.22-1.49-1.16-.75.07-1.33.71-1.24 1.47.06.75.73 1.28 1.48 1.16Z" fill="#BD8B5D"/><circle cx="300.5" cy="300.5" r="300" stroke="#C3A173"/><path d="M47.9 448.93a8.29 8.29 0 1 1-16.59 0 8.29 8.29 0 1 1 16.6 0Zm12.37 25.27a5.32 5.32 0 1 1-10.64 0 5.32 5.32 0 0 1 10.64 0Zm508.9-25.1a7.54 7.54 0 1 1-15.1 0 7.54 7.54 0 1 1 15.1 0Zm-19.6 25.89a4.58 4.58 0 1 1-9.16 0 4.58 4.58 0 0 1 9.16 0Z" fill="#C3A173"/><defs><radialGradient id="a" cx="0" cy="0" r="1" gradientUnits="userSpaceOnUse" gradientTransform="matrix(0 147 -147.458 0 301 314)"><stop stop-color="#E3C399"/><stop offset="1" stop-color="#C3A173"/></radialGradient></defs></svg>