<svg width="96" height="26" viewBox="0 0 96 26" fill="none" xmlns="http://www.w3.org/2000/svg"><path d="M53.54 20.18a9.05 9.05 0 1 0-11.14-14.26 9.05 9.05 0 0 0 11.14 14.26Zm-29.01-16.18c-1.49 0-2.89.37-4.1 1a9.02 9.02 0 0 1 4.91 8.05 9.02 9.02 0 0 1-4.91 8.05 9.03 9.03 0 1 0 4.1-17.1Zm-13.11.84a7 7 0 0 0-2.61.47 8.2 8.2 0 0 1 5.37 7.77 8.2 8.2 0 0 1-5.37 7.77c.8.28 1.7.46 2.6.46a8.12 8.12 0 0 0 8.03-8.2c0-4.54-3.61-8.27-8.02-8.27Zm-10.45.71c-.34 0-.65.04-.96.07a7.45 7.45 0 0 1 0 14.8c.31.02.65.05.96.05a7.5 7.5 0 0 0 7.5-7.49 7.44 7.44 0 0 0-7.5-7.43Zm69.66 7.5a9.02 9.02 0 0 1 4.9-8.06 9.03 9.03 0 1 0 0 16.1 9.02 9.02 0 0 1-4.9-8.04Zm11.16 0a8.2 8.2 0 0 1 5.37-7.78 8.09 8.09 0 0 0-2.6-.46 8.12 8.12 0 0 0-8.03 8.2 8.1 8.1 0 0 0 8.02 8.21c.93 0 1.8-.16 2.61-.47a8.08 8.08 0 0 1-5.37-7.7Z" fill="#C3A173"/><path d="M89.43 13.04a7.46 7.46 0 0 1 6.5-7.4c-.31-.02-.66-.06-.97-.06a7.5 7.5 0 1 0 .97 14.93 7.56 7.56 0 0 1-6.5-7.47Z" fill="#C3A173"/></svg>