<svg width="87" height="90" viewBox="0 0 87 90" fill="none" xmlns="http://www.w3.org/2000/svg"><mask id="a" fill="#fff"><path d="M34.04 90a7.46 7.46 0 0 1-6.58-3.9l-26.55-48.8a7.48 7.48 0 0 1-.6-5.69 7.34 7.34 0 0 1 3.59-4.43l29.12-15.9c.53-.28 1.2-.1 1.48.44.28.53.1 1.2-.44 1.48l-29.12 15.92a5.2 5.2 0 0 0-2.55 3.13 5.17 5.17 0 0 0 .44 4.03l26.57 48.8a5.3 5.3 0 0 0 7.16 2.12l30.37-16.5a1.08 1.08 0 1 1 1.05 1.91l-30.37 16.5a7.58 7.58 0 0 1-3.57.89Z"/><path d="M36.9 67.81c-6.9 0-13.34-3.8-16.63-9.86a18.7 18.7 0 0 1-1.53-14.36 18.7 18.7 0 0 1 9.1-11.24 19 19 0 0 1 8.7-2.3l.02 2.2c-2.7.05-5.3.74-7.7 2.04a16.65 16.65 0 0 0-6.7 22.64 16.85 16.85 0 0 0 15.5 8.72l.1 2.19c-.28-.03-.56-.03-.87-.03Z"/><path d="m35.85 51.56-2.48-2.01-4.4-.61a1.7 1.7 0 0 1-1.3-2.4l1.9-4-.53-4.71c-.08-.69.25-1.33.87-1.66a1.66 1.66 0 0 1 1.86.18l3.67 3 1.22.19-.28 2.16-1.37-.18a2.02 2.02 0 0 1-.85-.35l-2.83-2.32.41 3.64c.03.3-.02.61-.15.9l-1.66 3.53 3.88.54c.3.05.58.15.84.35l2.57 2.12-1.37 1.63Zm-3.9 2.98 1.8.25c.16.03.26.18.18.34l-.76 1.65c-.03.05-.03.08-.03.13l.2 1.94c.03.2-.22.33-.37.2l-1.5-1.22a.2.2 0 0 0-.14-.05l-1.8-.26c-.16-.03-.26-.18-.19-.33l.77-1.66c.03-.05.03-.07.03-.12l-.2-1.94c-.03-.2.22-.33.37-.2l1.5 1.22a.2.2 0 0 0 .14.05Zm-23.95-17.88c-1 0-1.96-.54-2.47-1.45a2.8 2.8 0 0 1 4.92-2.68 2.8 2.8 0 0 1-2.45 4.13Zm0-3.42c-.1 0-.2.03-.3.08-.3.15-.41.54-.26.84.15.3.54.4.84.26.3-.16.41-.54.26-.85a.62.62 0 0 0-.54-.33Zm26.22 51.59a2.85 2.85 0 0 1-2.45-1.48 2.8 2.8 0 0 1 4.92-2.67 2.8 2.8 0 0 1-2.47 4.15Zm0-3.41c-.1 0-.2.02-.31.07-.3.15-.4.54-.26.84.08.16.2.26.36.3.15.06.33.03.46-.04.3-.16.4-.54.26-.84a.57.57 0 0 0-.51-.33Z"/><path d="M77.64 70.46h-33.45a8.71 8.71 0 0 1-8.73-8.71v-53.04c0-4.81 3.9-8.71 8.73-8.71h33.45c4.82 0 8.72 3.9 8.72 8.71v53.04c0 4.81-3.9 8.71-8.72 8.71Zm-33.45-68.27a6.54 6.54 0 0 0-6.53 6.52v53.04c0 3.6 2.93 6.52 6.53 6.52h33.45c3.6 0 6.53-2.93 6.53-6.52v-53.04a6.54 6.54 0 0 0-6.53-6.52h-33.45Z"/><path d="M61.5 53.7a18.91 18.91 0 0 1-18.9-18.88 18.91 18.91 0 0 1 37.79 0 18.91 18.91 0 0 1-18.9 18.88Zm0-35.59a16.73 16.73 0 0 0-16.73 16.71 16.73 16.73 0 0 0 33.46 0 16.76 16.76 0 0 0-16.73-16.7Z"/><path d="M61.5 39.15c-.69 0-1.3-.4-1.56-1.04l-1.78-4.4-3.62-2.63a1.65 1.65 0 0 1 0-2.7l3.6-2.65 1.78-4.4c.25-.64.86-1.05 1.55-1.05.7 0 1.3.4 1.56 1.04l1.78 4.4 3.6 2.66a1.65 1.65 0 0 1-.01 2.7l-3.59 2.65-1.78 4.4a1.62 1.62 0 0 1-1.53 1.02Zm-5.13-9.42 3.17 2.32c.25.17.43.43.56.71l1.37 3.39 1.38-3.39c.13-.28.3-.54.56-.71l3.16-2.32-3.16-2.32a1.71 1.71 0 0 1-.56-.71l-1.38-3.4-1.37 3.4c-.13.28-.31.53-.56.71l-3.17 2.32Zm8.34-4.08c.03 0 .03 0 0 0Zm2.76 22.78a1.4 1.4 0 0 1-1.33-.9l-1.02-2.5-2.04-1.47a1.44 1.44 0 0 1-.59-1.17c0-.46.23-.9.59-1.17l2.01-1.48 1.02-2.5c.23-.53.74-.89 1.33-.89.59 0 1.12.36 1.33.9l1.02 2.49 2.04 1.48c.35.28.58.71.58 1.14 0 .46-.23.9-.58 1.18l-2.04 1.47-1.02 2.5c-.2.56-.72.92-1.3.92Zm-2.27-6.04 1.37 1.02c.2.15.39.38.49.6l.4 1 .41-1c.1-.25.26-.45.49-.6l1.37-1.02-1.37-1.02c-.2-.15-.38-.36-.49-.61l-.4-1-.41 1c-.1.25-.28.46-.49.61l-1.37 1.02Zm5.35.58c0 .03 0 .03 0 0Zm-14.48-4.68 1.48 1.07c.12.1.12.28 0 .38l-1.48 1.07a.29.29 0 0 0-.08.1l-.74 1.78c-.08.2-.36.2-.43 0l-.74-1.78-.08-.1-1.48-1.07a.24.24 0 0 1 0-.38l1.48-1.07.08-.1.74-1.79c.07-.2.35-.2.43 0l.74 1.79.08.1Zm-12.75-27.67a2.8 2.8 0 1 1 0-5.6 2.8 2.8 0 1 1 0 5.6Zm0-3.41a.62.62 0 0 0-.61.61c0 .33.28.61.6.61.34 0 .62-.28.62-.6.03-.34-.25-.62-.61-.62Zm35.16 3.41a2.8 2.8 0 1 1 0-5.6 2.8 2.8 0 1 1 0 5.6Zm0-3.41a.62.62 0 0 0-.61.61c0 .33.28.61.61.61.33 0 .61-.28.61-.6a.6.6 0 0 0-.6-.62Zm-35.16 58.23a2.8 2.8 0 1 1 0-5.6 2.8 2.8 0 1 1 0 5.6Zm0-3.41a.62.62 0 0 0-.61.61c0 .33.28.61.6.61.34 0 .62-.28.62-.6.03-.34-.25-.62-.61-.62Zm35.16 3.41a2.8 2.8 0 1 1 0-5.6 2.8 2.8 0 1 1 0 5.6Zm0-3.41a.62.62 0 0 0-.61.61c0 .33.28.61.61.61.33 0 .61-.28.61-.6a.6.6 0 0 0-.6-.62Zm-8.24 19.64a1 1 0 0 1-.76-.33 1.1 1.1 0 0 1 0-1.56l1.35-1.35a1.1 1.1 0 0 1 1.56 0 1.1 1.1 0 0 1 0 1.56l-1.35 1.35c-.26.2-.54.33-.8.33Z"/><path d="M72.9 79a1 1 0 0 1-.77-.34 1.1 1.1 0 0 1 0-1.55l1.35-1.35a1.1 1.1 0 0 1 1.56 0 1.1 1.1 0 0 1 0 1.55l-1.35 1.35a1.1 1.1 0 0 1-.8.34Z"/><path d="M74.25 81.67a1 1 0 0 1-.77-.33l-1.35-1.35a1.1 1.1 0 0 1 0-1.56 1.1 1.1 0 0 1 1.56 0l1.35 1.35a1.1 1.1 0 0 1 0 1.56c-.23.2-.51.33-.8.33Z"/><path d="M71.57 79a1 1 0 0 1-.76-.34l-1.36-1.35a1.1 1.1 0 0 1 0-1.55 1.1 1.1 0 0 1 1.56 0l1.35 1.35a1.1 1.1 0 0 1 0 1.55 1.1 1.1 0 0 1-.79.34Zm-47.91-70a1 1 0 0 1-.77-.34 1.1 1.1 0 0 1 0-1.55l1.36-1.35a1.1 1.1 0 0 1 1.55 0 1.1 1.1 0 0 1 0 1.55l-1.35 1.35a1.1 1.1 0 0 1-.8.33Z"/><path d="M26.31 6.34a1 1 0 0 1-.76-.33 1.1 1.1 0 0 1 0-1.55l1.35-1.35a1.1 1.1 0 0 1 1.55 0 1.1 1.1 0 0 1 0 1.55l-1.35 1.35c-.23.2-.5.33-.79.33Z"/><path d="M27.66 9a1 1 0 0 1-.76-.34l-1.35-1.35a1.1 1.1 0 0 1 0-1.55 1.1 1.1 0 0 1 1.55 0l1.35 1.35a1.1 1.1 0 0 1 0 1.55 1.1 1.1 0 0 1-.79.33Z"/><path d="M25.01 6.34a1 1 0 0 1-.76-.33l-1.36-1.35a1.1 1.1 0 0 1 0-1.55 1.1 1.1 0 0 1 1.56 0l1.35 1.35a1.1 1.1 0 0 1 0 1.55c-.25.2-.5.33-.79.33Zm-9.97 8.28a1 1 0 0 1-.76-.33 1.1 1.1 0 0 1 0-1.55l1.35-1.35a1.1 1.1 0 0 1 1.55 0 1.1 1.1 0 0 1 0 1.55l-1.37 1.38c-.2.2-.49.3-.77.3Z"/><path d="M17.7 11.97a1 1 0 0 1-.77-.33 1.1 1.1 0 0 1 0-1.55l1.35-1.35a1.1 1.1 0 0 1 1.55 0 1.1 1.1 0 0 1 0 1.55l-1.35 1.35a1.1 1.1 0 0 1-.79.33Z"/><path d="M19.04 14.62a1 1 0 0 1-.76-.33l-1.35-1.35a1.1 1.1 0 0 1 0-1.55 1.1 1.1 0 0 1 1.55 0l1.35 1.35a1.1 1.1 0 0 1 0 1.55 1.1 1.1 0 0 1-.79.33Z"/><path d="M16.4 11.97a1 1 0 0 1-.77-.33l-1.35-1.35a1.1 1.1 0 0 1 0-1.55 1.1 1.1 0 0 1 1.55 0l1.35 1.35a1.1 1.1 0 0 1 0 1.55 1.1 1.1 0 0 1-.79.33Z"/></mask><path d="M34.04 90a7.46 7.46 0 0 1-6.58-3.9l-26.55-48.8a7.48 7.48 0 0 1-.6-5.69 7.34 7.34 0 0 1 3.59-4.43l29.12-15.9c.53-.28 1.2-.1 1.48.44.28.53.1 1.2-.44 1.48l-29.12 15.92a5.2 5.2 0 0 0-2.55 3.13 5.17 5.17 0 0 0 .44 4.03l26.57 48.8a5.3 5.3 0 0 0 7.16 2.12l30.37-16.5a1.08 1.08 0 1 1 1.05 1.91l-30.37 16.5a7.58 7.58 0 0 1-3.57.89Z" fill="#C3A173"/><path d="M36.9 67.81c-6.9 0-13.34-3.8-16.63-9.86a18.7 18.7 0 0 1-1.53-14.36 18.7 18.7 0 0 1 9.1-11.24 19 19 0 0 1 8.7-2.3l.02 2.2c-2.7.05-5.3.74-7.7 2.04a16.65 16.65 0 0 0-6.7 22.64 16.85 16.85 0 0 0 15.5 8.72l.1 2.19c-.28-.03-.56-.03-.87-.03Z" fill="#C3A173"/><path d="m35.85 51.56-2.48-2.01-4.4-.61a1.7 1.7 0 0 1-1.3-2.4l1.9-4-.53-4.71c-.08-.69.25-1.33.87-1.66a1.66 1.66 0 0 1 1.86.18l3.67 3 1.22.19-.28 2.16-1.37-.18a2.02 2.02 0 0 1-.85-.35l-2.83-2.32.41 3.64c.03.3-.02.61-.15.9l-1.66 3.53 3.88.54c.3.05.58.15.84.35l2.57 2.12-1.37 1.63Zm-3.9 2.98 1.8.25c.16.03.26.18.18.34l-.76 1.65c-.03.05-.03.08-.03.13l.2 1.94c.03.2-.22.33-.37.2l-1.5-1.22a.2.2 0 0 0-.14-.05l-1.8-.26c-.16-.03-.26-.18-.19-.33l.77-1.66c.03-.05.03-.07.03-.12l-.2-1.94c-.03-.2.22-.33.37-.2l1.5 1.22a.2.2 0 0 0 .14.05Zm-23.95-17.88c-1 0-1.96-.54-2.47-1.45a2.8 2.8 0 0 1 4.92-2.68 2.8 2.8 0 0 1-2.45 4.13Zm0-3.42c-.1 0-.2.03-.3.08-.3.15-.41.54-.26.84.15.3.54.4.84.26.3-.16.41-.54.26-.85a.62.62 0 0 0-.54-.33Zm26.22 51.59a2.85 2.85 0 0 1-2.45-1.48 2.8 2.8 0 0 1 4.92-2.67 2.8 2.8 0 0 1-2.47 4.15Zm0-3.41c-.1 0-.2.02-.31.07-.3.15-.4.54-.26.84.08.16.2.26.36.3.15.06.33.03.46-.04.3-.16.4-.54.26-.84a.57.57 0 0 0-.51-.33Z" fill="#C3A173"/><path d="M77.64 70.46h-33.45a8.71 8.71 0 0 1-8.73-8.71v-53.04c0-4.81 3.9-8.71 8.73-8.71h33.45c4.82 0 8.72 3.9 8.72 8.71v53.04c0 4.81-3.9 8.71-8.72 8.71Zm-33.45-68.27a6.54 6.54 0 0 0-6.53 6.52v53.04c0 3.6 2.93 6.52 6.53 6.52h33.45c3.6 0 6.53-2.93 6.53-6.52v-53.04a6.54 6.54 0 0 0-6.53-6.52h-33.45Z" fill="#C3A173"/><path d="M61.5 53.7a18.91 18.91 0 0 1-18.9-18.88 18.91 18.91 0 0 1 37.79 0 18.91 18.91 0 0 1-18.9 18.88Zm0-35.59a16.73 16.73 0 0 0-16.73 16.71 16.73 16.73 0 0 0 33.46 0 16.76 16.76 0 0 0-16.73-16.7Z" fill="#C3A173"/><path d="M61.5 39.15c-.69 0-1.3-.4-1.56-1.04l-1.78-4.4-3.62-2.63a1.65 1.65 0 0 1 0-2.7l3.6-2.65 1.78-4.4c.25-.64.86-1.05 1.55-1.05.7 0 1.3.4 1.56 1.04l1.78 4.4 3.6 2.66a1.65 1.65 0 0 1-.01 2.7l-3.59 2.65-1.78 4.4a1.62 1.62 0 0 1-1.53 1.02Zm-5.13-9.42 3.17 2.32c.25.17.43.43.56.71l1.37 3.39 1.38-3.39c.13-.28.3-.54.56-.71l3.16-2.32-3.16-2.32a1.71 1.71 0 0 1-.56-.71l-1.38-3.4-1.37 3.4c-.13.28-.31.53-.56.71l-3.17 2.32Zm8.34-4.08c.03 0 .03 0 0 0Zm2.76 22.78a1.4 1.4 0 0 1-1.33-.9l-1.02-2.5-2.04-1.47a1.44 1.44 0 0 1-.59-1.17c0-.46.23-.9.59-1.17l2.01-1.48 1.02-2.5c.23-.53.74-.89 1.33-.89.59 0 1.12.36 1.33.9l1.02 2.49 2.04 1.48c.35.28.58.71.58 1.14 0 .46-.23.9-.58 1.18l-2.04 1.47-1.02 2.5c-.2.56-.72.92-1.3.92Zm-2.27-6.04 1.37 1.02c.2.15.39.38.49.6l.4 1 .41-1c.1-.25.26-.45.49-.6l1.37-1.02-1.37-1.02c-.2-.15-.38-.36-.49-.61l-.4-1-.41 1c-.1.25-.28.46-.49.61l-1.37 1.02Zm5.35.58c0 .03 0 .03 0 0Zm-14.48-4.68 1.48 1.07c.12.1.12.28 0 .38l-1.48 1.07a.29.29 0 0 0-.08.1l-.74 1.78c-.08.2-.36.2-.43 0l-.74-1.78-.08-.1-1.48-1.07a.24.24 0 0 1 0-.38l1.48-1.07.08-.1.74-1.79c.07-.2.35-.2.43 0l.74 1.79.08.1Zm-12.75-27.67a2.8 2.8 0 1 1 0-5.6 2.8 2.8 0 1 1 0 5.6Zm0-3.41a.62.62 0 0 0-.61.61c0 .33.28.61.6.61.34 0 .62-.28.62-.6.03-.34-.25-.62-.61-.62Zm35.16 3.41a2.8 2.8 0 1 1 0-5.6 2.8 2.8 0 1 1 0 5.6Zm0-3.41a.62.62 0 0 0-.61.61c0 .33.28.61.61.61.33 0 .61-.28.61-.6a.6.6 0 0 0-.6-.62Zm-35.16 58.23a2.8 2.8 0 1 1 0-5.6 2.8 2.8 0 1 1 0 5.6Zm0-3.41a.62.62 0 0 0-.61.61c0 .33.28.61.6.61.34 0 .62-.28.62-.6.03-.34-.25-.62-.61-.62Zm35.16 3.41a2.8 2.8 0 1 1 0-5.6 2.8 2.8 0 1 1 0 5.6Zm0-3.41a.62.62 0 0 0-.61.61c0 .33.28.61.61.61.33 0 .61-.28.61-.6a.6.6 0 0 0-.6-.62Zm-8.24 19.64a1 1 0 0 1-.76-.33 1.1 1.1 0 0 1 0-1.56l1.35-1.35a1.1 1.1 0 0 1 1.56 0 1.1 1.1 0 0 1 0 1.56l-1.35 1.35c-.26.2-.54.33-.8.33Z" fill="#C3A173"/><path d="M72.9 79a1 1 0 0 1-.77-.34 1.1 1.1 0 0 1 0-1.55l1.35-1.35a1.1 1.1 0 0 1 1.56 0 1.1 1.1 0 0 1 0 1.55l-1.35 1.35a1.1 1.1 0 0 1-.8.34Z" fill="#C3A173"/><path d="M74.25 81.67a1 1 0 0 1-.77-.33l-1.35-1.35a1.1 1.1 0 0 1 0-1.56 1.1 1.1 0 0 1 1.56 0l1.35 1.35a1.1 1.1 0 0 1 0 1.56c-.23.2-.51.33-.8.33Z" fill="#C3A173"/><path d="M71.57 79a1 1 0 0 1-.76-.34l-1.36-1.35a1.1 1.1 0 0 1 0-1.55 1.1 1.1 0 0 1 1.56 0l1.35 1.35a1.1 1.1 0 0 1 0 1.55 1.1 1.1 0 0 1-.79.34Zm-47.91-70a1 1 0 0 1-.77-.34 1.1 1.1 0 0 1 0-1.55l1.36-1.35a1.1 1.1 0 0 1 1.55 0 1.1 1.1 0 0 1 0 1.55l-1.35 1.35a1.1 1.1 0 0 1-.8.33Z" fill="#C3A173"/><path d="M26.31 6.34a1 1 0 0 1-.76-.33 1.1 1.1 0 0 1 0-1.55l1.35-1.35a1.1 1.1 0 0 1 1.55 0 1.1 1.1 0 0 1 0 1.55l-1.35 1.35c-.23.2-.5.33-.79.33Z" fill="#C3A173"/><path d="M27.66 9a1 1 0 0 1-.76-.34l-1.35-1.35a1.1 1.1 0 0 1 0-1.55 1.1 1.1 0 0 1 1.55 0l1.35 1.35a1.1 1.1 0 0 1 0 1.55 1.1 1.1 0 0 1-.79.33Z" fill="#C3A173"/><path d="M25.01 6.34a1 1 0 0 1-.76-.33l-1.36-1.35a1.1 1.1 0 0 1 0-1.55 1.1 1.1 0 0 1 1.56 0l1.35 1.35a1.1 1.1 0 0 1 0 1.55c-.25.2-.5.33-.79.33Zm-9.97 8.28a1 1 0 0 1-.76-.33 1.1 1.1 0 0 1 0-1.55l1.35-1.35a1.1 1.1 0 0 1 1.55 0 1.1 1.1 0 0 1 0 1.55l-1.37 1.38c-.2.2-.49.3-.77.3Z" fill="#C3A173"/><path d="M17.7 11.97a1 1 0 0 1-.77-.33 1.1 1.1 0 0 1 0-1.55l1.35-1.35a1.1 1.1 0 0 1 1.55 0 1.1 1.1 0 0 1 0 1.55l-1.35 1.35a1.1 1.1 0 0 1-.79.33Z" fill="#C3A173"/><path d="M19.04 14.62a1 1 0 0 1-.76-.33l-1.35-1.35a1.1 1.1 0 0 1 0-1.55 1.1 1.1 0 0 1 1.55 0l1.35 1.35a1.1 1.1 0 0 1 0 1.55 1.1 1.1 0 0 1-.79.33Z" fill="#C3A173"/><path d="M16.4 11.97a1 1 0 0 1-.77-.33l-1.35-1.35a1.1 1.1 0 0 1 0-1.55 1.1 1.1 0 0 1 1.55 0l1.35 1.35a1.1 1.1 0 0 1 0 1.55 1.1 1.1 0 0 1-.79.33Z" fill="#C3A173"/><path d="M34.04 90a7.46 7.46 0 0 1-6.58-3.9l-26.55-48.8a7.48 7.48 0 0 1-.6-5.69 7.34 7.34 0 0 1 3.59-4.43l29.12-15.9c.53-.28 1.2-.1 1.48.44.28.53.1 1.2-.44 1.48l-29.12 15.92a5.2 5.2 0 0 0-2.55 3.13 5.17 5.17 0 0 0 .44 4.03l26.57 48.8a5.3 5.3 0 0 0 7.16 2.12l30.37-16.5a1.08 1.08 0 1 1 1.05 1.91l-30.37 16.5a7.58 7.58 0 0 1-3.57.89Z" stroke="#1A191E" stroke-width=".8" mask="url(#a)"/><path d="M36.9 67.81c-6.9 0-13.34-3.8-16.63-9.86a18.7 18.7 0 0 1-1.53-14.36 18.7 18.7 0 0 1 9.1-11.24 19 19 0 0 1 8.7-2.3l.02 2.2c-2.7.05-5.3.74-7.7 2.04a16.65 16.65 0 0 0-6.7 22.64 16.85 16.85 0 0 0 15.5 8.72l.1 2.19c-.28-.03-.56-.03-.87-.03Z" stroke="#1A191E" stroke-width=".8" mask="url(#a)"/><path d="m35.85 51.56-2.48-2.01-4.4-.61a1.7 1.7 0 0 1-1.3-2.4l1.9-4-.53-4.71c-.08-.69.25-1.33.87-1.66a1.66 1.66 0 0 1 1.86.18l3.67 3 1.22.19-.28 2.16-1.37-.18a2.02 2.02 0 0 1-.85-.35l-2.83-2.32.41 3.64c.03.3-.02.61-.15.9l-1.66 3.53 3.88.54c.3.05.58.15.84.35l2.57 2.12-1.37 1.63Zm-3.9 2.98 1.8.25c.16.03.26.18.18.34l-.76 1.65c-.03.05-.03.08-.03.13l.2 1.94c.03.2-.22.33-.37.2l-1.5-1.22a.2.2 0 0 0-.14-.05l-1.8-.26c-.16-.03-.26-.18-.19-.33l.77-1.66c.03-.05.03-.07.03-.12l-.2-1.94c-.03-.2.22-.33.37-.2l1.5 1.22a.2.2 0 0 0 .14.05Zm-23.95-17.88c-1 0-1.96-.54-2.47-1.45a2.8 2.8 0 0 1 4.92-2.68 2.8 2.8 0 0 1-2.45 4.13Zm0-3.42c-.1 0-.2.03-.3.08-.3.15-.41.54-.26.84.15.3.54.4.84.26.3-.16.41-.54.26-.85a.62.62 0 0 0-.54-.33Zm26.22 51.59a2.85 2.85 0 0 1-2.45-1.48 2.8 2.8 0 0 1 4.92-2.67 2.8 2.8 0 0 1-2.47 4.15Zm0-3.41c-.1 0-.2.02-.31.07-.3.15-.4.54-.26.84.08.16.2.26.36.3.15.06.33.03.46-.04.3-.16.4-.54.26-.84a.57.57 0 0 0-.51-.33Z" stroke="#1A191E" stroke-width=".8" mask="url(#a)"/><path d="M77.64 70.46h-33.45a8.71 8.71 0 0 1-8.73-8.71v-53.04c0-4.81 3.9-8.71 8.73-8.71h33.45c4.82 0 8.72 3.9 8.72 8.71v53.04c0 4.81-3.9 8.71-8.72 8.71Zm-33.45-68.27a6.54 6.54 0 0 0-6.53 6.52v53.04c0 3.6 2.93 6.52 6.53 6.52h33.45c3.6 0 6.53-2.93 6.53-6.52v-53.04a6.54 6.54 0 0 0-6.53-6.52h-33.45Z" stroke="#1A191E" stroke-width=".8" mask="url(#a)"/><path d="M61.5 53.7a18.91 18.91 0 0 1-18.9-18.88 18.91 18.91 0 0 1 37.79 0 18.91 18.91 0 0 1-18.9 18.88Zm0-35.59a16.73 16.73 0 0 0-16.73 16.71 16.73 16.73 0 0 0 33.46 0 16.76 16.76 0 0 0-16.73-16.7Z" stroke="#1A191E" stroke-width=".8" mask="url(#a)"/><path d="M61.5 39.15c-.69 0-1.3-.4-1.56-1.04l-1.78-4.4-3.62-2.63a1.65 1.65 0 0 1 0-2.7l3.6-2.65 1.78-4.4c.25-.64.86-1.05 1.55-1.05.7 0 1.3.4 1.56 1.04l1.78 4.4 3.6 2.66a1.65 1.65 0 0 1-.01 2.7l-3.59 2.65-1.78 4.4a1.62 1.62 0 0 1-1.53 1.02Zm-5.13-9.42 3.17 2.32c.25.17.43.43.56.71l1.37 3.39 1.38-3.39c.13-.28.3-.54.56-.71l3.16-2.32-3.16-2.32a1.71 1.71 0 0 1-.56-.71l-1.38-3.4-1.37 3.4c-.13.28-.31.53-.56.71l-3.17 2.32Zm8.34-4.08c.03 0 .03 0 0 0Zm2.76 22.78a1.4 1.4 0 0 1-1.33-.9l-1.02-2.5-2.04-1.47a1.44 1.44 0 0 1-.59-1.17c0-.46.23-.9.59-1.17l2.01-1.48 1.02-2.5c.23-.53.74-.89 1.33-.89.59 0 1.12.36 1.33.9l1.02 2.49 2.04 1.48c.35.28.58.71.58 1.14 0 .46-.23.9-.58 1.18l-2.04 1.47-1.02 2.5c-.2.56-.72.92-1.3.92Zm-2.27-6.04 1.37 1.02c.2.15.39.38.49.6l.4 1 .41-1c.1-.25.26-.45.49-.6l1.37-1.02-1.37-1.02c-.2-.15-.38-.36-.49-.61l-.4-1-.41 1c-.1.25-.28.46-.49.61l-1.37 1.02Zm5.35.58c0 .03 0 .03 0 0Zm-14.48-4.68 1.48 1.07c.12.1.12.28 0 .38l-1.48 1.07a.29.29 0 0 0-.08.1l-.74 1.78c-.08.2-.36.2-.43 0l-.74-1.78-.08-.1-1.48-1.07a.24.24 0 0 1 0-.38l1.48-1.07.08-.1.74-1.79c.07-.2.35-.2.43 0l.74 1.79.08.1Zm-12.75-27.67a2.8 2.8 0 1 1 0-5.6 2.8 2.8 0 1 1 0 5.6Zm0-3.41a.62.62 0 0 0-.61.61c0 .33.28.61.6.61.34 0 .62-.28.62-.6.03-.34-.25-.62-.61-.62Zm35.16 3.41a2.8 2.8 0 1 1 0-5.6 2.8 2.8 0 1 1 0 5.6Zm0-3.41a.62.62 0 0 0-.61.61c0 .33.28.61.61.61.33 0 .61-.28.61-.6a.6.6 0 0 0-.6-.62Zm-35.16 58.23a2.8 2.8 0 1 1 0-5.6 2.8 2.8 0 1 1 0 5.6Zm0-3.41a.62.62 0 0 0-.61.61c0 .33.28.61.6.61.34 0 .62-.28.62-.6.03-.34-.25-.62-.61-.62Zm35.16 3.41a2.8 2.8 0 1 1 0-5.6 2.8 2.8 0 1 1 0 5.6Zm0-3.41a.62.62 0 0 0-.61.61c0 .33.28.61.61.61.33 0 .61-.28.61-.6a.6.6 0 0 0-.6-.62Zm-8.24 19.64a1 1 0 0 1-.76-.33 1.1 1.1 0 0 1 0-1.56l1.35-1.35a1.1 1.1 0 0 1 1.56 0 1.1 1.1 0 0 1 0 1.56l-1.35 1.35c-.26.2-.54.33-.8.33Z" stroke="#1A191E" stroke-width=".8" mask="url(#a)"/><path d="M72.9 79a1 1 0 0 1-.77-.34 1.1 1.1 0 0 1 0-1.55l1.35-1.35a1.1 1.1 0 0 1 1.56 0 1.1 1.1 0 0 1 0 1.55l-1.35 1.35a1.1 1.1 0 0 1-.8.34Z" stroke="#1A191E" stroke-width=".8" mask="url(#a)"/><path d="M74.25 81.67a1 1 0 0 1-.77-.33l-1.35-1.35a1.1 1.1 0 0 1 0-1.56 1.1 1.1 0 0 1 1.56 0l1.35 1.35a1.1 1.1 0 0 1 0 1.56c-.23.2-.51.33-.8.33Z" stroke="#1A191E" stroke-width=".8" mask="url(#a)"/><path d="M71.57 79a1 1 0 0 1-.76-.34l-1.36-1.35a1.1 1.1 0 0 1 0-1.55 1.1 1.1 0 0 1 1.56 0l1.35 1.35a1.1 1.1 0 0 1 0 1.55 1.1 1.1 0 0 1-.79.34Zm-47.91-70a1 1 0 0 1-.77-.34 1.1 1.1 0 0 1 0-1.55l1.36-1.35a1.1 1.1 0 0 1 1.55 0 1.1 1.1 0 0 1 0 1.55l-1.35 1.35a1.1 1.1 0 0 1-.8.33Z" stroke="#1A191E" stroke-width=".8" mask="url(#a)"/><path d="M26.31 6.34a1 1 0 0 1-.76-.33 1.1 1.1 0 0 1 0-1.55l1.35-1.35a1.1 1.1 0 0 1 1.55 0 1.1 1.1 0 0 1 0 1.55l-1.35 1.35c-.23.2-.5.33-.79.33Z" stroke="#1A191E" stroke-width=".8" mask="url(#a)"/><path d="M27.66 9a1 1 0 0 1-.76-.34l-1.35-1.35a1.1 1.1 0 0 1 0-1.55 1.1 1.1 0 0 1 1.55 0l1.35 1.35a1.1 1.1 0 0 1 0 1.55 1.1 1.1 0 0 1-.79.33Z" stroke="#1A191E" stroke-width=".8" mask="url(#a)"/><path d="M25.01 6.34a1 1 0 0 1-.76-.33l-1.36-1.35a1.1 1.1 0 0 1 0-1.55 1.1 1.1 0 0 1 1.56 0l1.35 1.35a1.1 1.1 0 0 1 0 1.55c-.25.2-.5.33-.79.33Zm-9.97 8.28a1 1 0 0 1-.76-.33 1.1 1.1 0 0 1 0-1.55l1.35-1.35a1.1 1.1 0 0 1 1.55 0 1.1 1.1 0 0 1 0 1.55l-1.37 1.38c-.2.2-.49.3-.77.3Z" stroke="#1A191E" stroke-width=".8" mask="url(#a)"/><path d="M17.7 11.97a1 1 0 0 1-.77-.33 1.1 1.1 0 0 1 0-1.55l1.35-1.35a1.1 1.1 0 0 1 1.55 0 1.1 1.1 0 0 1 0 1.55l-1.35 1.35a1.1 1.1 0 0 1-.79.33Z" stroke="#1A191E" stroke-width=".8" mask="url(#a)"/><path d="M19.04 14.62a1 1 0 0 1-.76-.33l-1.35-1.35a1.1 1.1 0 0 1 0-1.55 1.1 1.1 0 0 1 1.55 0l1.35 1.35a1.1 1.1 0 0 1 0 1.55 1.1 1.1 0 0 1-.79.33Z" stroke="#1A191E" stroke-width=".8" mask="url(#a)"/><path d="M16.4 11.97a1 1 0 0 1-.77-.33l-1.35-1.35a1.1 1.1 0 0 1 0-1.55 1.1 1.1 0 0 1 1.55 0l1.35 1.35a1.1 1.1 0 0 1 0 1.55 1.1 1.1 0 0 1-.79.33Z" stroke="#1A191E" stroke-width=".8" mask="url(#a)"/></svg>