<svg width="105" height="85" viewBox="0 0 105 85" fill="none" xmlns="http://www.w3.org/2000/svg"><mask id="a" fill="#fff"><path d="M54 85a41.91 41.91 0 0 1-41.82-41.92c0-23.1 18.75-41.94 41.82-41.94a41.91 41.91 0 0 1 41.81 41.91c0 23.1-18.74 41.95-41.81 41.95Zm0-81.44a39.5 39.5 0 0 0-39.4 39.5 39.47 39.47 0 0 0 39.4 39.48 39.49 39.49 0 0 0 0-78.98Z"/><path fill-rule="evenodd" clip-rule="evenodd" d="m72.26 22.78-3.02 6.45a47.9 47.9 0 0 1 5.07 2.93l3.7-5.35a1.25 1.25 0 0 1 1.7-.32c.55.4.7 1.14.32 1.72l-3.7 5.36c1.33.96 2.67 2.02 4 3.16l4.37-4.44a1.22 1.22 0 0 1 1.74 0c.48.48.48 1.25 0 1.74l-4.27 4.33a83.43 83.43 0 0 1 3.73 3.64 1.2 1.2 0 0 1 0 1.68 83.36 83.36 0 0 1-3.87 3.78l4.35 4.33c.49.49.49 1.26 0 1.74-.25.23-.57.35-.88.35a1.2 1.2 0 0 1-.85-.35l-4.46-4.44a63.74 63.74 0 0 1-3.98 3.14l3.82 5.41c.4.55.26 1.32-.28 1.72a1.2 1.2 0 0 1-.72.23 1.2 1.2 0 0 1-1-.52l-3.84-5.45a47.61 47.61 0 0 1-5.07 2.93l3.16 6.63c.29.6.03 1.35-.57 1.63a1.5 1.5 0 0 1-.5.12c-.46 0-.9-.26-1.12-.69l-3.18-6.68a36.83 36.83 0 0 1-3.96 1.43l1.7 7.28c.14.66-.26 1.31-.91 1.45l-.13.02a.78.78 0 0 1-.13.01c-.54 0-1.05-.37-1.2-.94l-1.68-7.22c-1.7.36-3.38.59-5.06.67l.08 7.7c.03.65-.51 1.2-1.2 1.22-.65 0-1.22-.54-1.22-1.2l-.08-7.7a30.25 30.25 0 0 1-4.24-.42l-1.55 7.24c-.11.57-.62.97-1.2.97-.08 0-.16 0-.25-.03a1.23 1.23 0 0 1-.94-1.46l1.55-7.23c-1.4-.35-2.8-.8-4.2-1.36l-3.1 6.76a1.2 1.2 0 0 1-1.63.6c-.62-.28-.88-1-.6-1.62l3.07-6.72a43.46 43.46 0 0 1-4.52-2.48l-4.36 6.43c-.25.31-.62.51-1.02.51a1.2 1.2 0 0 1-1-1.91l4.33-6.38a59.03 59.03 0 0 1-5.17-4.07l-4.97 5.14a1.23 1.23 0 0 1-1.77-1.72l4.92-5.07a79.85 79.85 0 0 1-3.75-3.78 1.23 1.23 0 0 1 0-1.65 79.58 79.58 0 0 1 3.47-3.53l-4.58-4.64a1.25 1.25 0 0 1 0-1.74 1.24 1.24 0 0 1 1.74 0l4.66 4.71a59.4 59.4 0 0 1 5.2-4.13l-4.08-5.9a1.24 1.24 0 0 1 .31-1.7 1.23 1.23 0 0 1 1.71.3l4.1 5.93a43.83 43.83 0 0 1 4.58-2.55l-2.92-6.26a1.22 1.22 0 1 1 2.22-1.03l2.94 6.31a34.65 34.65 0 0 1 4.3-1.41l-1.52-6.78a1.21 1.21 0 1 1 2.37-.54l1.51 6.8c1.46-.25 2.92-.4 4.38-.45v-7.27c0-.68.55-1.22 1.23-1.22.68 0 1.22.54 1.22 1.22v7.3c1.7.08 3.42.32 5.13.7l1.54-6.91a1.2 1.2 0 0 1 1.45-.91c.66.14 1.08.8.91 1.45l-1.55 6.98c1.33.4 2.65.87 3.98 1.44l3.01-6.45c.29-.6 1-.88 1.63-.6.6.29.88 1.03.6 1.63Zm-36.63 11.25-.15.08a62.5 62.5 0 0 0-10.17 8.74 60 60 0 0 0 11.49 9.6 19.9 19.9 0 0 1-2.48-9.65c0-3.36.82-6.6 2.37-9.48a46.21 46.21 0 0 0-1.06.71Zm6.2 21.12a29.77 29.77 0 0 0 11.97 2.72h.25a31 31 0 0 0 13.12-3.08 17.66 17.66 0 0 0 .3-23.74c-4.51-2.14-9-3.22-13.42-3.22h-.25a30 30 0 0 0-12.13 2.8 17.54 17.54 0 0 0-4.88 12.2c0 4.65 1.8 9 5.03 12.32Zm32.56-12.38a20 20 0 0 0-2.16-9.07c3.7 2.35 7.4 5.4 11.1 9.15a64.45 64.45 0 0 1-11.24 9.24c1.5-2.84 2.3-6.03 2.3-9.32Z"/><path d="M54 54.33c-.8 0-1.48-.48-1.8-1.2l-2.16-5.3-4.33-3.2a1.95 1.95 0 0 1 0-3.14l4.33-3.2 2.16-5.32c.29-.74 1-1.2 1.8-1.2s1.48.49 1.8 1.2l2.16 5.31 4.33 3.2a1.94 1.94 0 0 1 0 3.14l-4.33 3.2-2.17 5.31c-.31.72-1 1.2-1.8 1.2Zm-6.3-11.28 3.9 2.86c.29.2.52.48.66.83l1.74 4.28 1.73-4.28c.15-.32.35-.6.63-.83l3.9-2.86-3.9-2.85a1.9 1.9 0 0 1-.65-.83l-1.74-4.28-1.74 4.28a1.9 1.9 0 0 1-.65.83l-3.88 2.85Zm-38.17-31.61c-.3 0-.62-.11-.85-.37a1.23 1.23 0 0 1 0-1.74l3.02-3.03a1.22 1.22 0 0 1 1.74 0c.48.49.48 1.26 0 1.75l-3.05 3.05a1.2 1.2 0 0 1-.86.34Zm5.96-5.96c-.32 0-.63-.12-.86-.38a1.23 1.23 0 0 1 0-1.74l3.02-2.97a1.22 1.22 0 0 1 1.74 0c.48.49.48 1.26 0 1.74l-3.05 3a1.2 1.2 0 0 1-.85.35Zm3.01 5.96c-.3 0-.62-.11-.85-.37l-3.02-3a1.23 1.23 0 0 1 0-1.74 1.22 1.22 0 0 1 1.74 0l3 3.03c.48.48.48 1.26 0 1.74a1.2 1.2 0 0 1-.86.34Zm-5.95-5.96c-.3 0-.62-.12-.85-.38l-3.02-3a1.23 1.23 0 0 1 0-1.74 1.22 1.22 0 0 1 1.74 0l3.02 3.03c.48.49.48 1.26 0 1.74-.26.23-.57.35-.89.35Zm-11.33 24.24c-.32 0-.63-.12-.86-.37a1.23 1.23 0 0 1 0-1.74l3.02-3.03a1.22 1.22 0 0 1 1.74 0c.48.48.48 1.25 0 1.74l-3.05 3.03c-.23.25-.54.37-.85.37Zm5.95-5.97a1.1 1.1 0 0 1-.85-.37 1.23 1.23 0 0 1 0-1.74l3.02-3.03a1.22 1.22 0 0 1 1.73 0c.49.49.49 1.26 0 1.74l-3.04 3.03c-.23.26-.55.37-.86.37Zm3.02 5.97c-.31 0-.63-.12-.85-.37l-3.02-3a1.23 1.23 0 0 1 0-1.74 1.22 1.22 0 0 1 1.73 0l3.02 3.02c.49.49.49 1.26 0 1.75-.28.22-.57.34-.88.34Zm-5.95-5.97c-.32 0-.63-.11-.86-.37l-3.02-3a1.23 1.23 0 0 1 0-1.74 1.22 1.22 0 0 1 1.74 0l3.02 3.03c.48.48.48 1.25 0 1.74-.28.23-.6.34-.88.34Zm90.37 53.57c-.3 0-.62-.12-.85-.37a1.23 1.23 0 0 1 0-1.74l3.02-3.03a1.22 1.22 0 0 1 1.74 0c.48.48.48 1.26 0 1.74l-3.02 3.03c-.26.25-.57.37-.89.37Zm5.96-5.97c-.31 0-.63-.11-.86-.37a1.23 1.23 0 0 1 0-1.74l3.02-3.03a1.22 1.22 0 0 1 1.74 0c.48.49.48 1.26 0 1.74l-3.02 3.03c-.26.26-.57.37-.88.37Zm2.99 5.97c-.31 0-.63-.12-.86-.37l-3.02-3a1.23 1.23 0 0 1 0-1.74 1.22 1.22 0 0 1 1.74 0l3.02 3.02c.49.49.49 1.26 0 1.75-.25.22-.57.34-.88.34Zm-5.96-5.97c-.3 0-.62-.11-.85-.37l-3.02-3a1.23 1.23 0 0 1 0-1.74 1.22 1.22 0 0 1 1.74 0l3.02 3.03c.48.48.48 1.25 0 1.74-.26.23-.57.34-.88.34Zm-43.6 8.85a36.95 36.95 0 0 1-30.7-16.36 1.2 1.2 0 0 1 .33-1.68 1.2 1.2 0 0 1 1.68.34 34.61 34.61 0 0 0 28.69 15.3 34.35 34.35 0 0 0 27.34-13.42 1.22 1.22 0 0 1 1.71-.22c.54.42.63 1.17.23 1.7a36.94 36.94 0 0 1-29.28 14.34Zm-26.92-59.62a1.22 1.22 0 0 1-.91-2.03 37.01 37.01 0 0 1 53.32-2.42c.48.45.51 1.22.06 1.74-.46.48-1.23.51-1.74.06a34.58 34.58 0 0 0-49.82 2.28 1.3 1.3 0 0 1-.9.37Z"/></mask><path d="M54 85a41.91 41.91 0 0 1-41.82-41.92c0-23.1 18.75-41.94 41.82-41.94a41.91 41.91 0 0 1 41.81 41.91c0 23.1-18.74 41.95-41.81 41.95Zm0-81.44a39.5 39.5 0 0 0-39.4 39.5 39.47 39.47 0 0 0 39.4 39.48 39.49 39.49 0 0 0 0-78.98Z" fill="#C3A173"/><path fill-rule="evenodd" clip-rule="evenodd" d="m72.26 22.78-3.02 6.45a47.9 47.9 0 0 1 5.07 2.93l3.7-5.35a1.25 1.25 0 0 1 1.7-.32c.55.4.7 1.14.32 1.72l-3.7 5.36c1.33.96 2.67 2.02 4 3.16l4.37-4.44a1.22 1.22 0 0 1 1.74 0c.48.48.48 1.25 0 1.74l-4.27 4.33a83.43 83.43 0 0 1 3.73 3.64 1.2 1.2 0 0 1 0 1.68 83.36 83.36 0 0 1-3.87 3.78l4.35 4.33c.49.49.49 1.26 0 1.74-.25.23-.57.35-.88.35a1.2 1.2 0 0 1-.85-.35l-4.46-4.44a63.74 63.74 0 0 1-3.98 3.14l3.82 5.41c.4.55.26 1.32-.28 1.72a1.2 1.2 0 0 1-.72.23 1.2 1.2 0 0 1-1-.52l-3.84-5.45a47.61 47.61 0 0 1-5.07 2.93l3.16 6.63c.29.6.03 1.35-.57 1.63a1.5 1.5 0 0 1-.5.12c-.46 0-.9-.26-1.12-.69l-3.18-6.68a36.83 36.83 0 0 1-3.96 1.43l1.7 7.28c.14.66-.26 1.31-.91 1.45l-.13.02a.78.78 0 0 1-.13.01c-.54 0-1.05-.37-1.2-.94l-1.68-7.22c-1.7.36-3.38.59-5.06.67l.08 7.7c.03.65-.51 1.2-1.2 1.22-.65 0-1.22-.54-1.22-1.2l-.08-7.7a30.25 30.25 0 0 1-4.24-.42l-1.55 7.24c-.11.57-.62.97-1.2.97-.08 0-.16 0-.25-.03a1.23 1.23 0 0 1-.94-1.46l1.55-7.23c-1.4-.35-2.8-.8-4.2-1.36l-3.1 6.76a1.2 1.2 0 0 1-1.63.6c-.62-.28-.88-1-.6-1.62l3.07-6.72a43.46 43.46 0 0 1-4.52-2.48l-4.36 6.43c-.25.31-.62.51-1.02.51a1.2 1.2 0 0 1-1-1.91l4.33-6.38a59.03 59.03 0 0 1-5.17-4.07l-4.97 5.14a1.23 1.23 0 0 1-1.77-1.72l4.92-5.07a79.85 79.85 0 0 1-3.75-3.78 1.23 1.23 0 0 1 0-1.65 79.58 79.58 0 0 1 3.47-3.53l-4.58-4.64a1.25 1.25 0 0 1 0-1.74 1.24 1.24 0 0 1 1.74 0l4.66 4.71a59.4 59.4 0 0 1 5.2-4.13l-4.08-5.9a1.24 1.24 0 0 1 .31-1.7 1.23 1.23 0 0 1 1.71.3l4.1 5.93a43.83 43.83 0 0 1 4.58-2.55l-2.92-6.26a1.22 1.22 0 1 1 2.22-1.03l2.94 6.31a34.65 34.65 0 0 1 4.3-1.41l-1.52-6.78a1.21 1.21 0 1 1 2.37-.54l1.51 6.8c1.46-.25 2.92-.4 4.38-.45v-7.27c0-.68.55-1.22 1.23-1.22.68 0 1.22.54 1.22 1.22v7.3c1.7.08 3.42.32 5.13.7l1.54-6.91a1.2 1.2 0 0 1 1.45-.91c.66.14 1.08.8.91 1.45l-1.55 6.98c1.33.4 2.65.87 3.98 1.44l3.01-6.45c.29-.6 1-.88 1.63-.6.6.29.88 1.03.6 1.63Zm-36.63 11.25-.15.08a62.5 62.5 0 0 0-10.17 8.74 60 60 0 0 0 11.49 9.6 19.9 19.9 0 0 1-2.48-9.65c0-3.36.82-6.6 2.37-9.48a46.21 46.21 0 0 0-1.06.71Zm6.2 21.12a29.77 29.77 0 0 0 11.97 2.72h.25a31 31 0 0 0 13.12-3.08 17.66 17.66 0 0 0 .3-23.74c-4.51-2.14-9-3.22-13.42-3.22h-.25a30 30 0 0 0-12.13 2.8 17.54 17.54 0 0 0-4.88 12.2c0 4.65 1.8 9 5.03 12.32Zm32.56-12.38a20 20 0 0 0-2.16-9.07c3.7 2.35 7.4 5.4 11.1 9.15a64.45 64.45 0 0 1-11.24 9.24c1.5-2.84 2.3-6.03 2.3-9.32Z" fill="#C3A173"/><path d="M54 54.33c-.8 0-1.48-.48-1.8-1.2l-2.16-5.3-4.33-3.2a1.95 1.95 0 0 1 0-3.14l4.33-3.2 2.16-5.32c.29-.74 1-1.2 1.8-1.2s1.48.49 1.8 1.2l2.16 5.31 4.33 3.2a1.94 1.94 0 0 1 0 3.14l-4.33 3.2-2.17 5.31c-.31.72-1 1.2-1.8 1.2Zm-6.3-11.28 3.9 2.86c.29.2.52.48.66.83l1.74 4.28 1.73-4.28c.15-.32.35-.6.63-.83l3.9-2.86-3.9-2.85a1.9 1.9 0 0 1-.65-.83l-1.74-4.28-1.74 4.28a1.9 1.9 0 0 1-.65.83l-3.88 2.85Zm-38.17-31.61c-.3 0-.62-.11-.85-.37a1.23 1.23 0 0 1 0-1.74l3.02-3.03a1.22 1.22 0 0 1 1.74 0c.48.49.48 1.26 0 1.75l-3.05 3.05a1.2 1.2 0 0 1-.86.34Zm5.96-5.96c-.32 0-.63-.12-.86-.38a1.23 1.23 0 0 1 0-1.74l3.02-2.97a1.22 1.22 0 0 1 1.74 0c.48.49.48 1.26 0 1.74l-3.05 3a1.2 1.2 0 0 1-.85.35Zm3.01 5.96c-.3 0-.62-.11-.85-.37l-3.02-3a1.23 1.23 0 0 1 0-1.74 1.22 1.22 0 0 1 1.74 0l3 3.03c.48.48.48 1.26 0 1.74a1.2 1.2 0 0 1-.86.34Zm-5.95-5.96c-.3 0-.62-.12-.85-.38l-3.02-3a1.23 1.23 0 0 1 0-1.74 1.22 1.22 0 0 1 1.74 0l3.02 3.03c.48.49.48 1.26 0 1.74-.26.23-.57.35-.89.35Zm-11.33 24.24c-.32 0-.63-.12-.86-.37a1.23 1.23 0 0 1 0-1.74l3.02-3.03a1.22 1.22 0 0 1 1.74 0c.48.48.48 1.25 0 1.74l-3.05 3.03c-.23.25-.54.37-.85.37Zm5.95-5.97a1.1 1.1 0 0 1-.85-.37 1.23 1.23 0 0 1 0-1.74l3.02-3.03a1.22 1.22 0 0 1 1.73 0c.49.49.49 1.26 0 1.74l-3.04 3.03c-.23.26-.55.37-.86.37Zm3.02 5.97c-.31 0-.63-.12-.85-.37l-3.02-3a1.23 1.23 0 0 1 0-1.74 1.22 1.22 0 0 1 1.73 0l3.02 3.02c.49.49.49 1.26 0 1.75-.28.22-.57.34-.88.34Zm-5.95-5.97c-.32 0-.63-.11-.86-.37l-3.02-3a1.23 1.23 0 0 1 0-1.74 1.22 1.22 0 0 1 1.74 0l3.02 3.03c.48.48.48 1.25 0 1.74-.28.23-.6.34-.88.34Zm90.37 53.57c-.3 0-.62-.12-.85-.37a1.23 1.23 0 0 1 0-1.74l3.02-3.03a1.22 1.22 0 0 1 1.74 0c.48.48.48 1.26 0 1.74l-3.02 3.03c-.26.25-.57.37-.89.37Zm5.96-5.97c-.31 0-.63-.11-.86-.37a1.23 1.23 0 0 1 0-1.74l3.02-3.03a1.22 1.22 0 0 1 1.74 0c.48.49.48 1.26 0 1.74l-3.02 3.03c-.26.26-.57.37-.88.37Zm2.99 5.97c-.31 0-.63-.12-.86-.37l-3.02-3a1.23 1.23 0 0 1 0-1.74 1.22 1.22 0 0 1 1.74 0l3.02 3.02c.49.49.49 1.26 0 1.75-.25.22-.57.34-.88.34Zm-5.96-5.97c-.3 0-.62-.11-.85-.37l-3.02-3a1.23 1.23 0 0 1 0-1.74 1.22 1.22 0 0 1 1.74 0l3.02 3.03c.48.48.48 1.25 0 1.74-.26.23-.57.34-.88.34Zm-43.6 8.85a36.95 36.95 0 0 1-30.7-16.36 1.2 1.2 0 0 1 .33-1.68 1.2 1.2 0 0 1 1.68.34 34.61 34.61 0 0 0 28.69 15.3 34.35 34.35 0 0 0 27.34-13.42 1.22 1.22 0 0 1 1.71-.22c.54.42.63 1.17.23 1.7a36.94 36.94 0 0 1-29.28 14.34Zm-26.92-59.62a1.22 1.22 0 0 1-.91-2.03 37.01 37.01 0 0 1 53.32-2.42c.48.45.51 1.22.06 1.74-.46.48-1.23.51-1.74.06a34.58 34.58 0 0 0-49.82 2.28 1.3 1.3 0 0 1-.9.37Z" fill="#C3A173"/><path d="M54 85a41.91 41.91 0 0 1-41.82-41.92c0-23.1 18.75-41.94 41.82-41.94a41.91 41.91 0 0 1 41.81 41.91c0 23.1-18.74 41.95-41.81 41.95Zm0-81.44a39.5 39.5 0 0 0-39.4 39.5 39.47 39.47 0 0 0 39.4 39.48 39.49 39.49 0 0 0 0-78.98Z" stroke="#1A191E" stroke-width=".8" mask="url(#a)"/><path clip-rule="evenodd" d="m72.26 22.78-3.02 6.45a47.9 47.9 0 0 1 5.07 2.93l3.7-5.35a1.25 1.25 0 0 1 1.7-.32c.55.4.7 1.14.32 1.72l-3.7 5.36c1.33.96 2.67 2.02 4 3.16l4.37-4.44a1.22 1.22 0 0 1 1.74 0c.48.48.48 1.25 0 1.74l-4.27 4.33a83.43 83.43 0 0 1 3.73 3.64 1.2 1.2 0 0 1 0 1.68 83.36 83.36 0 0 1-3.87 3.78l4.35 4.33c.49.49.49 1.26 0 1.74-.25.23-.57.35-.88.35a1.2 1.2 0 0 1-.85-.35l-4.46-4.44a63.74 63.74 0 0 1-3.98 3.14l3.82 5.41c.4.55.26 1.32-.28 1.72a1.2 1.2 0 0 1-.72.23 1.2 1.2 0 0 1-1-.52l-3.84-5.45a47.61 47.61 0 0 1-5.07 2.93l3.16 6.63c.29.6.03 1.35-.57 1.63a1.5 1.5 0 0 1-.5.12c-.46 0-.9-.26-1.12-.69l-3.18-6.68a36.83 36.83 0 0 1-3.96 1.43l1.7 7.28c.14.66-.26 1.31-.91 1.45l-.13.02a.78.78 0 0 1-.13.01c-.54 0-1.05-.37-1.2-.94l-1.68-7.22c-1.7.36-3.38.59-5.06.67l.08 7.7c.03.65-.51 1.2-1.2 1.22-.65 0-1.22-.54-1.22-1.2l-.08-7.7a30.25 30.25 0 0 1-4.24-.42l-1.55 7.24c-.11.57-.62.97-1.2.97-.08 0-.16 0-.25-.03a1.23 1.23 0 0 1-.94-1.46l1.55-7.23c-1.4-.35-2.8-.8-4.2-1.36l-3.1 6.76a1.2 1.2 0 0 1-1.63.6c-.62-.28-.88-1-.6-1.62l3.07-6.72a43.46 43.46 0 0 1-4.52-2.48l-4.36 6.43c-.25.31-.62.51-1.02.51a1.2 1.2 0 0 1-1-1.91l4.33-6.38a59.03 59.03 0 0 1-5.17-4.07l-4.97 5.14a1.23 1.23 0 0 1-1.77-1.72l4.92-5.07a79.85 79.85 0 0 1-3.75-3.78 1.23 1.23 0 0 1 0-1.65 79.58 79.58 0 0 1 3.47-3.53l-4.58-4.64a1.25 1.25 0 0 1 0-1.74 1.24 1.24 0 0 1 1.74 0l4.66 4.71a59.4 59.4 0 0 1 5.2-4.13l-4.08-5.9a1.24 1.24 0 0 1 .31-1.7 1.23 1.23 0 0 1 1.71.3l4.1 5.93a43.83 43.83 0 0 1 4.58-2.55l-2.92-6.26a1.22 1.22 0 1 1 2.22-1.03l2.94 6.31a34.65 34.65 0 0 1 4.3-1.41l-1.52-6.78a1.21 1.21 0 1 1 2.37-.54l1.51 6.8c1.46-.25 2.92-.4 4.38-.45v-7.27c0-.68.55-1.22 1.23-1.22.68 0 1.22.54 1.22 1.22v7.3c1.7.08 3.42.32 5.13.7l1.54-6.91a1.2 1.2 0 0 1 1.45-.91c.66.14 1.08.8.91 1.45l-1.55 6.98c1.33.4 2.65.87 3.98 1.44l3.01-6.45c.29-.6 1-.88 1.63-.6.6.29.88 1.03.6 1.63Zm-36.63 11.25-.15.08a62.5 62.5 0 0 0-10.17 8.74 60 60 0 0 0 11.49 9.6 19.9 19.9 0 0 1-2.48-9.65c0-3.36.82-6.6 2.37-9.48a46.21 46.21 0 0 0-1.06.71Zm6.2 21.12a29.77 29.77 0 0 0 11.97 2.72h.25a31 31 0 0 0 13.12-3.08 17.66 17.66 0 0 0 .3-23.74c-4.51-2.14-9-3.22-13.42-3.22h-.25a30 30 0 0 0-12.13 2.8 17.54 17.54 0 0 0-4.88 12.2c0 4.65 1.8 9 5.03 12.32Zm32.56-12.38a20 20 0 0 0-2.16-9.07c3.7 2.35 7.4 5.4 11.1 9.15a64.45 64.45 0 0 1-11.24 9.24c1.5-2.84 2.3-6.03 2.3-9.32Z" stroke="#1A191E" stroke-width=".8" mask="url(#a)"/><path d="M54 54.33c-.8 0-1.48-.48-1.8-1.2l-2.16-5.3-4.33-3.2a1.95 1.95 0 0 1 0-3.14l4.33-3.2 2.16-5.32c.29-.74 1-1.2 1.8-1.2s1.48.49 1.8 1.2l2.16 5.31 4.33 3.2a1.94 1.94 0 0 1 0 3.14l-4.33 3.2-2.17 5.31c-.31.72-1 1.2-1.8 1.2Zm-6.3-11.28 3.9 2.86c.29.2.52.48.66.83l1.74 4.28 1.73-4.28c.15-.32.35-.6.63-.83l3.9-2.86-3.9-2.85a1.9 1.9 0 0 1-.65-.83l-1.74-4.28-1.74 4.28a1.9 1.9 0 0 1-.65.83l-3.88 2.85Zm-38.17-31.61c-.3 0-.62-.11-.85-.37a1.23 1.23 0 0 1 0-1.74l3.02-3.03a1.22 1.22 0 0 1 1.74 0c.48.49.48 1.26 0 1.75l-3.05 3.05a1.2 1.2 0 0 1-.86.34Zm5.96-5.96c-.32 0-.63-.12-.86-.38a1.23 1.23 0 0 1 0-1.74l3.02-2.97a1.22 1.22 0 0 1 1.74 0c.48.49.48 1.26 0 1.74l-3.05 3a1.2 1.2 0 0 1-.85.35Zm3.01 5.96c-.3 0-.62-.11-.85-.37l-3.02-3a1.23 1.23 0 0 1 0-1.74 1.22 1.22 0 0 1 1.74 0l3 3.03c.48.48.48 1.26 0 1.74a1.2 1.2 0 0 1-.86.34Zm-5.95-5.96c-.3 0-.62-.12-.85-.38l-3.02-3a1.23 1.23 0 0 1 0-1.74 1.22 1.22 0 0 1 1.74 0l3.02 3.03c.48.49.48 1.26 0 1.74-.26.23-.57.35-.89.35Zm-11.33 24.24c-.32 0-.63-.12-.86-.37a1.23 1.23 0 0 1 0-1.74l3.02-3.03a1.22 1.22 0 0 1 1.74 0c.48.48.48 1.25 0 1.74l-3.05 3.03c-.23.25-.54.37-.85.37Zm5.95-5.97a1.1 1.1 0 0 1-.85-.37 1.23 1.23 0 0 1 0-1.74l3.02-3.03a1.22 1.22 0 0 1 1.73 0c.49.49.49 1.26 0 1.74l-3.04 3.03c-.23.26-.55.37-.86.37Zm3.02 5.97c-.31 0-.63-.12-.85-.37l-3.02-3a1.23 1.23 0 0 1 0-1.74 1.22 1.22 0 0 1 1.73 0l3.02 3.02c.49.49.49 1.26 0 1.75-.28.22-.57.34-.88.34Zm-5.95-5.97c-.32 0-.63-.11-.86-.37l-3.02-3a1.23 1.23 0 0 1 0-1.74 1.22 1.22 0 0 1 1.74 0l3.02 3.03c.48.48.48 1.25 0 1.74-.28.23-.6.34-.88.34Zm90.37 53.57c-.3 0-.62-.12-.85-.37a1.23 1.23 0 0 1 0-1.74l3.02-3.03a1.22 1.22 0 0 1 1.74 0c.48.48.48 1.26 0 1.74l-3.02 3.03c-.26.25-.57.37-.89.37Zm5.96-5.97c-.31 0-.63-.11-.86-.37a1.23 1.23 0 0 1 0-1.74l3.02-3.03a1.22 1.22 0 0 1 1.74 0c.48.49.48 1.26 0 1.74l-3.02 3.03c-.26.26-.57.37-.88.37Zm2.99 5.97c-.31 0-.63-.12-.86-.37l-3.02-3a1.23 1.23 0 0 1 0-1.74 1.22 1.22 0 0 1 1.74 0l3.02 3.02c.49.49.49 1.26 0 1.75-.25.22-.57.34-.88.34Zm-5.96-5.97c-.3 0-.62-.11-.85-.37l-3.02-3a1.23 1.23 0 0 1 0-1.74 1.22 1.22 0 0 1 1.74 0l3.02 3.03c.48.48.48 1.25 0 1.74-.26.23-.57.34-.88.34Zm-43.6 8.85a36.95 36.95 0 0 1-30.7-16.36 1.2 1.2 0 0 1 .33-1.68 1.2 1.2 0 0 1 1.68.34 34.61 34.61 0 0 0 28.69 15.3 34.35 34.35 0 0 0 27.34-13.42 1.22 1.22 0 0 1 1.71-.22c.54.42.63 1.17.23 1.7a36.94 36.94 0 0 1-29.28 14.34Zm-26.92-59.62a1.22 1.22 0 0 1-.91-2.03 37.01 37.01 0 0 1 53.32-2.42c.48.45.51 1.22.06 1.74-.46.48-1.23.51-1.74.06a34.58 34.58 0 0 0-49.82 2.28 1.3 1.3 0 0 1-.9.37Z" stroke="#1A191E" stroke-width=".8" mask="url(#a)"/></svg>