<svg width="81" height="90" viewBox="0 0 81 90" fill="none" xmlns="http://www.w3.org/2000/svg"><mask id="a" fill="#fff"><path d="M39.13 46.97c-.9 0-1.71-.54-2.06-1.38l-3.31-8.07-6.59-4.8a2.2 2.2 0 0 1-.89-1.79c0-.7.35-1.35.9-1.78l6.6-4.85 3.26-8.05a2.21 2.21 0 0 1 4.1 0l3.3 8.05 6.58 4.82a2.23 2.23 0 0 1 0 3.58l-6.6 4.85-3.26 8.04a2.2 2.2 0 0 1-2.03 1.38Zm-10.44-16.06 6.5 4.77c.33.24.6.57.74.94l3.2 7.84 3.2-7.84c.16-.37.4-.7.73-.94l6.5-4.77-6.5-4.77a2.3 2.3 0 0 1-.74-.95l-3.2-7.83-3.2 7.86c-.15.38-.4.7-.72.95l-6.5 4.74Zm21.06 32.57c-.73 0-1.38-.44-1.65-1.12l-1.9-4.63-3.8-2.79a1.76 1.76 0 0 1-.73-1.44c0-.56.27-1.1.74-1.43l3.79-2.8 1.9-4.63c.27-.67.92-1.1 1.65-1.1.73 0 1.38.43 1.65 1.1l1.9 4.64 3.8 2.79a1.77 1.77 0 0 1-.01 2.87l-3.8 2.8-1.89 4.62a1.8 1.8 0 0 1-1.65 1.12Zm-5.37-9.98 3.34 2.44c.27.2.46.46.6.76l1.46 3.58 1.46-3.55c.14-.3.32-.57.6-.76l3.33-2.44-3.33-2.44a1.82 1.82 0 0 1-.6-.76l-1.46-3.54-1.47 3.54c-.13.3-.32.57-.6.76l-3.33 2.41Zm-16.74 1.98c-.65 0-1.22-.38-1.47-.97l-1.22-3.01-2.44-1.79a1.57 1.57 0 0 1 0-2.55l2.44-1.78 1.22-3.01c.25-.6.82-.98 1.47-.98s1.21.38 1.46.98l1.22 3 2.44 1.8a1.57 1.57 0 0 1 0 2.54l-2.44 1.79-1.22 3c-.25.6-.81.98-1.46.98Zm-2.96-7.04 1.79 1.33c.24.16.4.4.52.67l.62 1.52.62-1.49c.11-.27.3-.51.54-.68l1.8-1.33-1.8-1.32a1.5 1.5 0 0 1-.54-.68l-.6-1.49-.62 1.52c-.1.27-.3.51-.54.67l-1.79 1.28Zm-15.31-40.34c-.3 0-.6-.11-.81-.36a1.16 1.16 0 0 1 0-1.65l1.92-1.92c.46-.46 1.2-.46 1.65 0 .46.46.46 1.19 0 1.65l-1.92 1.92c-.24.25-.54.35-.84.35Zm3.83-3.83c-.3 0-.6-.1-.82-.35a1.16 1.16 0 0 1 0-1.65l1.92-1.92a1.17 1.17 0 0 1 1.66 1.65l-1.93 1.92c-.24.25-.54.35-.84.35Z"/><path d="M15.14 8.1c-.3 0-.6-.11-.81-.36l-1.92-1.92a1.16 1.16 0 0 1 0-1.65 1.16 1.16 0 0 1 1.65 0l1.92 1.92c.46.46.46 1.2 0 1.65-.24.25-.54.35-.84.35Zm-3.82-3.83c-.3 0-.6-.1-.81-.35l-1.93-1.92a1.16 1.16 0 0 1 0-1.65c.46-.46 1.2-.46 1.66 0l1.92 1.92c.46.46.46 1.2 0 1.65-.27.25-.54.35-.84.35Zm-10.16 15.26c-.3 0-.6-.11-.81-.35a1.16 1.16 0 0 1 0-1.66l1.92-1.92c.46-.46 1.2-.46 1.65 0 .46.46.46 1.2 0 1.65l-1.92 1.93c-.25.24-.54.35-.84.35Zm3.82-3.83c-.3 0-.6-.1-.81-.34a1.16 1.16 0 0 1 0-1.66l1.92-1.92c.46-.46 1.2-.46 1.65 0 .46.46.46 1.2 0 1.65l-1.92 1.93a1.3 1.3 0 0 1-.84.35Z"/><path d="M6.9 19.53c-.3 0-.6-.11-.8-.35l-1.93-1.93a1.16 1.16 0 0 1 0-1.65 1.16 1.16 0 0 1 1.65 0l1.92 1.92c.46.46.46 1.2 0 1.66-.24.24-.54.35-.84.35Zm-3.82-3.83c-.3 0-.6-.1-.81-.34l-1.92-1.93a1.16 1.16 0 0 1 0-1.65 1.16 1.16 0 0 1 1.65 0l1.92 1.92c.46.46.46 1.2 0 1.66a1.3 1.3 0 0 1-.84.35Zm70.62 44.85a1 1 0 0 1-.8-.35 1.16 1.16 0 0 1 0-1.66l1.92-1.92a1.16 1.16 0 0 1 1.65 0c.46.46.46 1.2 0 1.65l-1.92 1.93a1.2 1.2 0 0 1-.84.35Zm3.83-3.82c-.3 0-.6-.11-.82-.35a1.16 1.16 0 0 1 0-1.66l1.93-1.92c.46-.46 1.2-.46 1.65 0 .46.46.46 1.2 0 1.65l-1.92 1.93c-.25.24-.54.35-.84.35Z"/><path d="M79.45 60.55c-.3 0-.6-.1-.81-.35l-1.95-1.93a1.16 1.16 0 0 1 0-1.65 1.16 1.16 0 0 1 1.65 0l1.92 1.92c.46.46.46 1.2 0 1.66-.21.24-.51.35-.8.35Zm-3.82-3.82c-.3 0-.6-.11-.81-.35l-1.93-1.93a1.16 1.16 0 0 1 0-1.65c.46-.46 1.2-.46 1.66 0l1.92 1.92c.46.46.46 1.2 0 1.66-.24.24-.54.35-.84.35Z"/><path d="M39.83 74.2a35.05 35.05 0 0 1-35.01-35c0-19.32 15.72-35 35.01-35a35.05 35.05 0 0 1 35.01 35c0 19.29-15.69 35-35 35Zm0-67.73a32.76 32.76 0 0 0-32.7 32.7 32.76 32.76 0 0 0 32.7 32.7 32.76 32.76 0 0 0 32.71-32.7 32.76 32.76 0 0 0-32.7-32.7Z"/><path d="M39.83 80.11c-6.37 0-13.03-.49-18.73-4.12-1.13-.7-2-1.68-2.52-2.82a5.34 5.34 0 0 1-.4-3.52c.13-.62.76-1.03 1.38-.9.62.14 1.03.77.9 1.39-.14.65-.06 1.35.26 2.06.33.7.9 1.33 1.66 1.81 5.2 3.31 11.49 3.74 17.48 3.74.65 0 1.16.52 1.16 1.17a1.2 1.2 0 0 1-1.19 1.2Z"/><path d="M39.83 80.11c-.65 0-1.16-.51-1.16-1.16 0-.65.51-1.17 1.16-1.17 6.02 0 12.28-.46 17.48-3.74a4.23 4.23 0 0 0 1.65-1.81c.36-.79.44-1.58.2-2.33-.2-.63.13-1.28.75-1.47.6-.19 1.28.14 1.47.76.4 1.3.3 2.68-.3 3.98a6.77 6.77 0 0 1-2.52 2.82c-5.7 3.63-12.36 4.12-18.73 4.12Zm0 9.89c-8.13 0-16.04-.87-22.22-2.47a2.96 2.96 0 0 1-1.54-4.71 30.18 30.18 0 0 0 3.6-5.26c.3-.56.97-.8 1.57-.51.57.3.81.97.51 1.57a34.04 34.04 0 0 1-3.87 5.69.66.66 0 0 0-.1.6c.02.1.13.32.42.4 6.02 1.55 13.72 2.39 21.66 2.39.65 0 1.16.51 1.16 1.16a1.2 1.2 0 0 1-1.19 1.14Z"/><path d="M39.83 90c-.65 0-1.16-.51-1.16-1.16 0-.66.51-1.17 1.16-1.17 7.94 0 15.64-.84 21.65-2.38.27-.09.38-.3.44-.41a.66.66 0 0 0-.11-.6 33.54 33.54 0 0 1-3.88-5.69 1.17 1.17 0 0 1 2.09-1.06c.98 1.93 2.5 3.94 3.6 5.26.66.79.84 1.85.52 2.8a2.89 2.89 0 0 1-2.06 1.92c-6.2 1.6-14.12 2.49-22.25 2.49Z"/></mask><path d="M39.13 46.97c-.9 0-1.71-.54-2.06-1.38l-3.31-8.07-6.59-4.8a2.2 2.2 0 0 1-.89-1.79c0-.7.35-1.35.9-1.78l6.6-4.85 3.26-8.05a2.21 2.21 0 0 1 4.1 0l3.3 8.05 6.58 4.82a2.23 2.23 0 0 1 0 3.58l-6.6 4.85-3.26 8.04a2.2 2.2 0 0 1-2.03 1.38Zm-10.44-16.06 6.5 4.77c.33.24.6.57.74.94l3.2 7.84 3.2-7.84c.16-.37.4-.7.73-.94l6.5-4.77-6.5-4.77a2.3 2.3 0 0 1-.74-.95l-3.2-7.83-3.2 7.86c-.15.38-.4.7-.72.95l-6.5 4.74Zm21.06 32.57c-.73 0-1.38-.44-1.65-1.12l-1.9-4.63-3.8-2.79a1.76 1.76 0 0 1-.73-1.44c0-.56.27-1.1.74-1.43l3.79-2.8 1.9-4.63c.27-.67.92-1.1 1.65-1.1.73 0 1.38.43 1.65 1.1l1.9 4.64 3.8 2.79a1.77 1.77 0 0 1-.01 2.87l-3.8 2.8-1.89 4.62a1.8 1.8 0 0 1-1.65 1.12Zm-5.37-9.98 3.34 2.44c.27.2.46.46.6.76l1.46 3.58 1.46-3.55c.14-.3.32-.57.6-.76l3.33-2.44-3.33-2.44a1.82 1.82 0 0 1-.6-.76l-1.46-3.54-1.47 3.54c-.13.3-.32.57-.6.76l-3.33 2.41Zm-16.74 1.98c-.65 0-1.22-.38-1.47-.97l-1.22-3.01-2.44-1.79a1.57 1.57 0 0 1 0-2.55l2.44-1.78 1.22-3.01c.25-.6.82-.98 1.47-.98s1.21.38 1.46.98l1.22 3 2.44 1.8a1.57 1.57 0 0 1 0 2.54l-2.44 1.79-1.22 3c-.25.6-.81.98-1.46.98Zm-2.96-7.04 1.79 1.33c.24.16.4.4.52.67l.62 1.52.62-1.49c.11-.27.3-.51.54-.68l1.8-1.33-1.8-1.32a1.5 1.5 0 0 1-.54-.68l-.6-1.49-.62 1.52c-.1.27-.3.51-.54.67l-1.79 1.28Zm-15.31-40.34c-.3 0-.6-.11-.81-.36a1.16 1.16 0 0 1 0-1.65l1.92-1.92c.46-.46 1.2-.46 1.65 0 .46.46.46 1.19 0 1.65l-1.92 1.92c-.24.25-.54.35-.84.35Zm3.83-3.83c-.3 0-.6-.1-.82-.35a1.16 1.16 0 0 1 0-1.65l1.92-1.92a1.17 1.17 0 0 1 1.66 1.65l-1.93 1.92c-.24.25-.54.35-.84.35Z" fill="#C3A173"/><path d="M15.14 8.1c-.3 0-.6-.11-.81-.36l-1.92-1.92a1.16 1.16 0 0 1 0-1.65 1.16 1.16 0 0 1 1.65 0l1.92 1.92c.46.46.46 1.2 0 1.65-.24.25-.54.35-.84.35Zm-3.82-3.83c-.3 0-.6-.1-.81-.35l-1.93-1.92a1.16 1.16 0 0 1 0-1.65c.46-.46 1.2-.46 1.66 0l1.92 1.92c.46.46.46 1.2 0 1.65-.27.25-.54.35-.84.35Zm-10.16 15.26c-.3 0-.6-.11-.81-.35a1.16 1.16 0 0 1 0-1.66l1.92-1.92c.46-.46 1.2-.46 1.65 0 .46.46.46 1.2 0 1.65l-1.92 1.93c-.25.24-.54.35-.84.35Zm3.82-3.83c-.3 0-.6-.1-.81-.34a1.16 1.16 0 0 1 0-1.66l1.92-1.92c.46-.46 1.2-.46 1.65 0 .46.46.46 1.2 0 1.65l-1.92 1.93a1.3 1.3 0 0 1-.84.35Z" fill="#C3A173"/><path d="M6.9 19.53c-.3 0-.6-.11-.8-.35l-1.93-1.93a1.16 1.16 0 0 1 0-1.65 1.16 1.16 0 0 1 1.65 0l1.92 1.92c.46.46.46 1.2 0 1.66-.24.24-.54.35-.84.35Zm-3.82-3.83c-.3 0-.6-.1-.81-.34l-1.92-1.93a1.16 1.16 0 0 1 0-1.65 1.16 1.16 0 0 1 1.65 0l1.92 1.92c.46.46.46 1.2 0 1.66a1.3 1.3 0 0 1-.84.35Zm70.62 44.85a1 1 0 0 1-.8-.35 1.16 1.16 0 0 1 0-1.66l1.92-1.92a1.16 1.16 0 0 1 1.65 0c.46.46.46 1.2 0 1.65l-1.92 1.93a1.2 1.2 0 0 1-.84.35Zm3.83-3.82c-.3 0-.6-.11-.82-.35a1.16 1.16 0 0 1 0-1.66l1.93-1.92c.46-.46 1.2-.46 1.65 0 .46.46.46 1.2 0 1.65l-1.92 1.93c-.25.24-.54.35-.84.35Z" fill="#C3A173"/><path d="M79.45 60.55c-.3 0-.6-.1-.81-.35l-1.95-1.93a1.16 1.16 0 0 1 0-1.65 1.16 1.16 0 0 1 1.65 0l1.92 1.92c.46.46.46 1.2 0 1.66-.21.24-.51.35-.8.35Zm-3.82-3.82c-.3 0-.6-.11-.81-.35l-1.93-1.93a1.16 1.16 0 0 1 0-1.65c.46-.46 1.2-.46 1.66 0l1.92 1.92c.46.46.46 1.2 0 1.66-.24.24-.54.35-.84.35Z" fill="#C3A173"/><path d="M39.83 74.2a35.05 35.05 0 0 1-35.01-35c0-19.32 15.72-35 35.01-35a35.05 35.05 0 0 1 35.01 35c0 19.29-15.69 35-35 35Zm0-67.73a32.76 32.76 0 0 0-32.7 32.7 32.76 32.76 0 0 0 32.7 32.7 32.76 32.76 0 0 0 32.71-32.7 32.76 32.76 0 0 0-32.7-32.7Z" fill="#C3A173"/><path d="M39.83 80.11c-6.37 0-13.03-.49-18.73-4.12-1.13-.7-2-1.68-2.52-2.82a5.34 5.34 0 0 1-.4-3.52c.13-.62.76-1.03 1.38-.9.62.14 1.03.77.9 1.39-.14.65-.06 1.35.26 2.06.33.7.9 1.33 1.66 1.81 5.2 3.31 11.49 3.74 17.48 3.74.65 0 1.16.52 1.16 1.17a1.2 1.2 0 0 1-1.19 1.2Z" fill="#C3A173"/><path d="M39.83 80.11c-.65 0-1.16-.51-1.16-1.16 0-.65.51-1.17 1.16-1.17 6.02 0 12.28-.46 17.48-3.74a4.23 4.23 0 0 0 1.65-1.81c.36-.79.44-1.58.2-2.33-.2-.63.13-1.28.75-1.47.6-.19 1.28.14 1.47.76.4 1.3.3 2.68-.3 3.98a6.77 6.77 0 0 1-2.52 2.82c-5.7 3.63-12.36 4.12-18.73 4.12Zm0 9.89c-8.13 0-16.04-.87-22.22-2.47a2.96 2.96 0 0 1-1.54-4.71 30.18 30.18 0 0 0 3.6-5.26c.3-.56.97-.8 1.57-.51.57.3.81.97.51 1.57a34.04 34.04 0 0 1-3.87 5.69.66.66 0 0 0-.1.6c.02.1.13.32.42.4 6.02 1.55 13.72 2.39 21.66 2.39.65 0 1.16.51 1.16 1.16a1.2 1.2 0 0 1-1.19 1.14Z" fill="#C3A173"/><path d="M39.83 90c-.65 0-1.16-.51-1.16-1.16 0-.66.51-1.17 1.16-1.17 7.94 0 15.64-.84 21.65-2.38.27-.09.38-.3.44-.41a.66.66 0 0 0-.11-.6 33.54 33.54 0 0 1-3.88-5.69 1.17 1.17 0 0 1 2.09-1.06c.98 1.93 2.5 3.94 3.6 5.26.66.79.84 1.85.52 2.8a2.89 2.89 0 0 1-2.06 1.92c-6.2 1.6-14.12 2.49-22.25 2.49Z" fill="#C3A173"/><path d="m37.07 45.6-.37.14.37-.15Zm-3.31-8.08.37-.15-.04-.1-.1-.07-.23.32Zm-6.59-4.8.24-.32-.24.32Zm0-3.57-.23-.33-.02.01.25.32Zm6.62-4.85.23.32.1-.07.04-.1-.37-.15Zm3.25-8.05-.37-.15.37.15Zm4.1 0-.38.14v.01l.37-.15Zm3.3 8.05-.37.15.04.1.1.07.23-.32Zm6.58 4.82-.23.32.23-.32Zm0 3.58.24.32-.24-.32Zm-6.6 4.85-.25-.33-.09.07-.04.1.37.16Zm-3.26 8.04.37.16-.37-.16Zm-12.47-14.68-.23-.33-.45.33.45.32.23-.32Zm6.5 4.77.25-.32-.24.32Zm.74.94-.38.14v.02l.38-.16Zm3.2 7.84-.37.15.37.9.37-.9-.37-.16Zm3.2-7.84-.37-.15.36.15Zm.73-.94-.24-.33.24.33Zm6.5-4.77.24.32.44-.32-.44-.32-.24.32Zm-6.5-4.77-.24.32.24-.32Zm-.74-.95-.37.15.37-.15Zm-3.2-7.83.38-.15-.37-.9-.37.9.37.15Zm-3.2 7.86.38.16v-.01l-.37-.15Zm-.72.95.23.32-.23-.32Zm12.9 36.2.37-.15-.37.14Zm-1.9-4.64.37-.15-.04-.1-.1-.07-.23.32Zm-3.8-2.79.24-.32-.23.32Zm0-2.87.24.33-.23-.33Zm3.8-2.8.24.33.09-.07.04-.1-.37-.15Zm1.9-4.63.37.16-.37-.16Zm3.3 0-.37.15.37-.15Zm1.9 4.64-.37.15.04.1.1.07.23-.32Zm3.8 2.79-.24.32.23-.32Zm0 2.87-.24-.33.23.33Zm-3.8 2.8-.24-.33-.09.07-.04.1.37.15Zm-1.9 4.62.37.17v-.01l-.37-.16Zm-7.02-8.86-.23-.32-.45.32.45.33.23-.33Zm3.34 2.44-.24.33.24-.33Zm.6.76.36-.15v-.01l-.37.16Zm1.46 3.58-.37.15.37.9.37-.9-.37-.15Zm1.46-3.55-.36-.17v.01h-.01l.37.16Zm.6-.76.23.33-.23-.33Zm3.33-2.44.24.32.44-.32-.44-.32-.24.32Zm-3.33-2.44.23-.32-.23.32Zm-.6-.76-.37.16v.01l.37-.17Zm-1.46-3.54.37-.16-.37-.9-.37.9.37.16Zm-1.47 3.54.37.17v-.01l-.37-.16Zm-.6.76-.22-.32.23.32Zm-21.54 3.42-.37.15.37-.15Zm-1.22-3.01.37-.15-.04-.1-.1-.07-.23.32Zm-2.44-1.79-.23.32.23-.32Zm0-2.55.24.33-.24-.33Zm2.44-1.78.24.32.1-.07.03-.1-.37-.15Zm1.22-3.01-.37-.15.37.15Zm2.93 0 .37-.15-.37.15Zm1.22 3-.37.16.04.1.1.07.23-.32Zm2.44 1.8-.24.32.24-.33Zm0 2.54-.24-.32.24.32Zm-2.44 1.79-.24-.32-.09.06-.04.1.37.16Zm-1.22 3 .37.16-.37-.15Zm-4.42-6.06-.23-.33-.45.32.44.33.24-.32Zm1.79 1.33-.24.32h.01l.23-.32Zm.52.67-.38.15.38-.15Zm.62 1.52-.37.15.37.9.37-.9-.37-.15Zm.62-1.49.37.15-.37-.15Zm.54-.68.23.34v-.01h.01l-.24-.33Zm1.8-1.33.23.33.43-.33-.43-.32-.24.32Zm-1.8-1.32.24-.32v-.01h-.01l-.23.33Zm-.54-.68-.37.15.37-.15Zm-.6-1.49.38-.15-.37-.91-.37.9.37.16Zm-.62 1.52-.37-.16.37.16Zm-.54.67-.22-.33h-.01l.23.33Zm-17.91-39.42.3-.26-.01-.01-.01-.01-.28.28Zm0-1.65.28.28-.28-.28Zm1.92-1.92-.28-.29.28.29Zm1.65 1.65-.28-.28.28.28Zm-1.92 1.92.28.29-.28-.29Zm2.17-3.82.3-.26-.01-.01v-.01l-.3.28Zm0-1.65.28.28-.28-.28Zm1.92-1.92-.28-.29.28.29Zm1.66 1.65.28.28-.28-.28Zm-1.93 1.92-.28-.28.28.28Zm.3 3.82.3-.26-.01-.01v-.01l-.3.28Zm-1.92-1.92-.29.28.29-.28Zm1.65-1.65-.28.28.28-.28Zm1.92 1.92.29-.28-.29.28Zm0 1.65.29.29-.29-.29Zm-5.47-3.82.3-.26-.01-.01v-.01l-.3.28Zm-1.93-1.92.29-.28-.29.28Zm1.66-1.65-.29.28.29-.28Zm1.92 1.92.28-.28-.28.28Zm0 1.65.27.3.01-.01-.28-.29Zm-11.81 15.26.3-.27h-.01l-.01-.02-.28.29Zm0-1.66.28.29-.28-.29Zm1.92-1.92-.28-.28.28.28Zm1.65 1.65.29.29-.29-.29Zm-1.92 1.93-.28-.29.28.29Zm2.17-3.82.3-.27h-.01l-.01-.02-.28.29Zm0-1.66-.29-.28.29.28Zm1.92-1.92.28.28-.28-.28Zm1.65 1.65.29.29-.29-.29Zm-1.92 1.93.27.3v-.01l.01-.01-.28-.28Zm.27 3.82.3-.27-.02-.02-.28.29Zm-1.92-1.93-.29.29.29-.29Zm1.65-1.65-.28.28.28-.28Zm1.92 3.58.29.28-.29-.28Zm-5.47-3.82.3-.27-.02-.02-.28.29Zm-1.92-1.93-.29.29.29-.29Zm1.65-1.65-.28.28.28-.28Zm1.92 1.92.29-.28-.29.28Zm0 1.66.27.3v-.01l.02-.01-.29-.28Zm68.97 44.84.3-.27-.01-.02-.29.29Zm0-1.66-.28-.28.28.28Zm1.93-1.92.28.28-.28-.28Zm1.65 1.65.28.29-.28-.29Zm-1.92 1.93-.29-.29.29.29Zm2.16-3.82.3-.27-.01-.02-.29.29Zm0-1.66-.28-.28.28.28Zm1.93-1.92.28.28-.28-.28Zm1.65 1.65-.28-.28.28.28Zm-1.92 1.93.28.28-.28-.28Zm.27 3.82.3-.27h-.01l-.01-.02-.28.29Zm-1.95-1.93-.29.29.29-.29Zm1.65-1.65-.28.28.28-.28Zm1.92 1.92.29-.28-.29.28Zm0 1.66-.28-.29v.01l-.01.01.3.27Zm-5.44-3.82.3-.27h-.01l-.01-.02-.28.29Zm-1.93-1.93.29-.28-.29.28Zm1.66-1.65-.29.28.29-.28Zm1.92 1.92.28-.28-.28.28Zm0 1.66.28.28-.28-.28Zm-55.37 19.61.22-.33-.22.33Zm-2.52-2.82.37-.16-.37.16Zm-.4-3.52.39.1v-.01l-.4-.09Zm2.27.49-.39-.08.4.08Zm1.93 3.87-.22.34.22-.34Zm18.64 4.9.4.02v-.01h-.4Zm16.29-4.87-.2-.34h-.01l.21.34Zm1.65-1.81.37.16-.37-.16Zm.2-2.33-.39.11.38-.11Zm.75-1.47.12.39-.12-.39Zm1.47.76-.39.12.39-.12Zm-.3 3.98.36.17-.36-.17Zm-2.52 2.82.21.34-.21-.34Zm-40.95 11.54.1-.38-.1.38Zm-2.06-1.92.38-.12-.38.12Zm.51-2.79-.3-.26-.01.01.31.25Zm3.6-5.26-.35-.18.36.18Zm1.58-.51.19-.36h-.01l-.18.36Zm.51 1.57.36.18-.36-.18Zm-3.87 5.69-.3-.25h-.02l.32.25Zm-.1.6.38-.1v-.03l-.39.13Zm.42.4-.1.39.1-.39Zm22.82 3.55.4.02v-.02h-.4Zm20.46-3.57.1.38h.01l-.1-.38Zm.44-.41.36.18.01-.04.02-.04-.4-.1Zm-.11-.6.31-.24-.31.24Zm-3.88-5.69.36-.18-.36.18Zm2.09-1.05.36-.18-.36.18Zm3.6 5.25.31-.25-.3.25Zm.52 2.8-.38-.14.38.13Zm-2.06 1.92-.1-.4v.01l.1.39Zm-22.95-40.94c-.74 0-1.4-.44-1.7-1.13l-.73.3a2.64 2.64 0 0 0 2.43 1.63v-.8Zm-1.7-1.13-3.3-8.07-.74.3 3.3 8.07.75-.3Zm-3.43-8.24-6.59-4.8-.47.65 6.58 4.8.48-.65Zm-6.6-4.8a1.8 1.8 0 0 1-.72-1.46h-.8c0 .82.38 1.62 1.06 2.1l.47-.64Zm-.72-1.46c0-.57.29-1.11.74-1.48l-.5-.63a2.71 2.71 0 0 0-1.04 2.1h.8Zm.73-1.47 6.61-4.85-.47-.65-6.61 4.85.47.65Zm6.75-5.02 3.25-8.05-.74-.3-3.25 8.05.74.3Zm3.25-8.05a1.8 1.8 0 0 1 1.69-1.13v-.8a2.6 2.6 0 0 0-2.43 1.63l.74.3Zm1.69-1.13c.73 0 1.4.44 1.66 1.12l.74-.28a2.57 2.57 0 0 0-2.4-1.64v.8Zm1.66 1.13 3.3 8.05.75-.3-3.3-8.05-.75.3Zm3.44 8.22 6.59 4.82.47-.64-6.59-4.83-.47.65Zm6.6 4.83c.45.32.72.87.72 1.46h.8a2.6 2.6 0 0 0-1.06-2.12l-.47.66Zm.72 1.46c0 .58-.27 1.1-.74 1.47l.49.63a2.63 2.63 0 0 0 1.05-2.1h-.8Zm-.73 1.46-6.62 4.85.48.65 6.61-4.85-.47-.65Zm-6.75 5.03-3.25 8.04.74.3 3.25-8.04-.74-.3Zm-3.25 8.04a1.8 1.8 0 0 1-1.66 1.13v.8a2.6 2.6 0 0 0 2.4-1.62l-.74-.31Zm-12.33-14.2 6.5 4.76.47-.65-6.5-4.76-.47.64Zm6.5 4.76c.27.2.49.47.6.76l.74-.27a2.5 2.5 0 0 0-.86-1.13l-.48.64Zm.6.78 3.2 7.83.74-.3-3.2-7.84-.74.3Zm3.94 7.83 3.2-7.83-.75-.3-3.2 7.82.75.3Zm3.2-7.83c.13-.32.33-.59.6-.78l-.48-.64a2.7 2.7 0 0 0-.86 1.1l.73.32Zm.6-.78 6.5-4.77-.48-.64-6.5 4.76.47.65Zm6.5-5.41-6.5-4.77-.48.64 6.5 4.77.48-.64Zm-6.5-4.77a1.9 1.9 0 0 1-.6-.79l-.74.32c.18.44.47.82.86 1.1l.48-.63Zm-.6-.78-3.2-7.83-.74.3 3.2 7.83.73-.3Zm-3.94-7.83-3.2 7.86.74.3 3.2-7.86-.74-.3Zm-3.2 7.85a1.9 1.9 0 0 1-.6.79l.48.64c.38-.3.67-.68.86-1.11l-.74-.32Zm-.6.78-6.5 4.74.47.65 6.5-4.74-.47-.65Zm14.79 37.24c-.57 0-1.07-.34-1.28-.86l-.75.3a2.17 2.17 0 0 0 2.03 1.36v-.8Zm-1.28-.87-1.9-4.63-.74.3 1.9 4.64.74-.3Zm-2.03-4.8-3.8-2.8-.47.65 3.8 2.8.47-.65Zm-3.8-2.8a1.36 1.36 0 0 1-.57-1.1h-.8c0 .69.33 1.35.9 1.76l.47-.66Zm-.57-1.1c0-.45.22-.87.57-1.11l-.47-.66c-.57.4-.9 1.07-.9 1.76h.8Zm.57-1.12 3.8-2.79-.48-.64-3.8 2.79.48.64Zm3.93-2.96 1.9-4.63-.74-.3-1.9 4.63.74.3Zm1.9-4.64c.2-.52.7-.86 1.28-.86v-.8c-.9 0-1.7.53-2.03 1.37l.75.3Zm1.28-.86c.57 0 1.07.34 1.28.86l.74-.3a2.17 2.17 0 0 0-2.02-1.36v.8Zm1.28.87 1.9 4.63.74-.3-1.9-4.64-.74.3Zm2.03 4.8 3.8 2.8.47-.65-3.8-2.8-.47.65Zm3.8 2.8c.35.24.57.66.57 1.1h.8c0-.69-.33-1.36-.9-1.76l-.47.66Zm.57 1.1c0 .45-.22.87-.57 1.11l.46.66c.58-.4.9-1.07.9-1.77h-.8Zm-.57 1.12-3.8 2.79.48.64 3.8-2.79-.48-.64Zm-3.93 2.96-1.9 4.63.74.3 1.9-4.63-.74-.3Zm-1.9 4.62a1.4 1.4 0 0 1-1.28.88v.8c.9 0 1.66-.54 2.02-1.35l-.73-.33Zm-6.88-8.37 3.33 2.44.47-.65-3.33-2.44-.47.65Zm3.34 2.44c.2.14.34.34.46.6l.73-.33a2.22 2.22 0 0 0-.73-.92l-.46.65Zm.45.58 1.47 3.58.74-.3-1.47-3.58-.74.3Zm2.2 3.58 1.47-3.55-.74-.3-1.46 3.55.74.3Zm1.46-3.54c.12-.25.27-.46.47-.6l-.46-.65a2.2 2.2 0 0 0-.73.92l.72.33Zm.47-.6 3.34-2.44-.48-.64-3.33 2.44.47.64Zm3.34-3.08-3.34-2.44-.47.65 3.33 2.43.48-.64Zm-3.34-2.44a1.5 1.5 0 0 1-.47-.6l-.72.33c.15.34.38.68.73.92l.46-.65Zm-.46-.59-1.46-3.55-.74.3 1.46 3.56.74-.3Zm-2.2-3.55-1.47 3.55.74.3 1.47-3.54-.74-.3Zm-1.46 3.54c-.12.25-.27.46-.46.6l.46.65c.34-.24.57-.58.73-.92l-.73-.33Zm-.47.6-3.33 2.41.47.65 3.33-2.41-.47-.65Zm-19.84 4.31c-.5 0-.92-.28-1.1-.72l-.74.3c.3.75 1.02 1.22 1.84 1.22v-.8Zm-1.1-.72-1.22-3.01-.74.3 1.22 3 .74-.3Zm-1.35-3.18-2.44-1.8-.47.65 2.44 1.8.47-.65Zm-2.44-1.8c-.3-.22-.49-.56-.49-.94h-.8c0 .64.31 1.22.82 1.6l.47-.65Zm-.49-.94c0-.39.18-.73.49-.95l-.47-.65c-.5.37-.82.95-.82 1.6h.8Zm.49-.95 2.44-1.8-.47-.64-2.44 1.8.47.64Zm2.57-1.96 1.22-3.01-.74-.3-1.22 3 .74.3Zm1.22-3.01c.18-.44.6-.73 1.1-.73v-.8c-.82 0-1.53.48-1.84 1.23l.74.3Zm1.1-.73c.49 0 .9.29 1.09.73l.74-.3a1.96 1.96 0 0 0-1.83-1.23v.8Zm1.09.73 1.22 3 .74-.3-1.22-3-.74.3Zm1.35 3.18 2.44 1.79.47-.65-2.44-1.79-.47.65Zm2.44 1.79c.3.22.49.56.49.95h.8c0-.65-.31-1.23-.82-1.6l-.47.65Zm.49.95c0 .38-.18.72-.49.95l.47.64c.51-.37.82-.95.82-1.6h-.8Zm-.49.95-2.44 1.79.47.64 2.44-1.79-.47-.64Zm-2.57 1.96-1.22 3 .74.3 1.22-3-.74-.3Zm-1.22 3c-.18.45-.6.73-1.1.73v.8c.82 0 1.53-.47 1.84-1.22l-.74-.3Zm-4.29-5.6 1.8 1.34.47-.65-1.79-1.32-.48.64Zm1.8 1.35c.16.1.28.27.37.5l.75-.3a1.82 1.82 0 0 0-.67-.87l-.44.67Zm.38.5.62 1.51.74-.3-.62-1.52-.74.3Zm1.36 1.51.62-1.49-.74-.3-.62 1.49.74.3Zm.62-1.5a1 1 0 0 1 .4-.48l-.45-.67c-.31.21-.55.52-.69.86l.74.3Zm.41-.5 1.8-1.32-.49-.65-1.78 1.33.47.64Zm1.8-1.97-1.8-1.32-.47.64 1.78 1.33.48-.65Zm-1.81-1.34a1.02 1.02 0 0 1-.4-.49l-.74.3c.14.34.38.65.7.86l.44-.67Zm-.4-.49-.6-1.49-.74.3.6 1.49.74-.3Zm-1.33-1.5-.63 1.52.74.3.63-1.5-.74-.31Zm-.63 1.53c-.08.2-.22.38-.4.5l.45.66c.32-.21.56-.52.7-.86l-.75-.3Zm-.4.5-1.79 1.27.46.65 1.8-1.27-.47-.65Zm-16.87-39.15a.67.67 0 0 1-.51-.21l-.6.53c.3.34.72.48 1.11.48v-.8Zm-.53-.23a.76.76 0 0 1 0-1.09l-.57-.56c-.61.61-.61 1.6 0 2.22l.57-.57Zm0-1.09 1.92-1.92-.56-.57-1.93 1.93.57.56Zm1.92-1.92c.3-.3.79-.3 1.1 0l.56-.57a1.56 1.56 0 0 0-2.22 0l.56.57Zm1.1 0c.3.3.3.78 0 1.09l.56.56c.61-.62.61-1.6 0-2.22l-.57.57Zm0 1.09-1.93 1.92.56.57 1.93-1.93-.57-.56Zm-1.93 1.92a.77.77 0 0 1-.56.23v.8c.4 0 .8-.14 1.12-.46l-.56-.57Zm3.26-3.59a.67.67 0 0 1-.51-.21l-.6.53c.3.34.72.48 1.11.48v-.8Zm-.53-.23a.76.76 0 0 1 0-1.09l-.56-.56c-.62.61-.62 1.6 0 2.21l.56-.56Zm0-1.09 1.93-1.92-.57-.57-1.92 1.93.56.56Zm1.93-1.92c.3-.3.78-.3 1.08 0l.57-.57a1.56 1.56 0 0 0-2.22 0l.57.57Zm1.08 0c.3.3.3.78 0 1.09l.57.56c.62-.62.62-1.6 0-2.22l-.57.57Zm0 1.09-1.92 1.92.56.56 1.93-1.92-.57-.56Zm-1.92 1.92a.77.77 0 0 1-.56.23v.8c.4 0 .8-.14 1.12-.46l-.56-.57Zm1.4 4.05a.67.67 0 0 1-.52-.21l-.6.53c.3.34.72.48 1.11.48v-.8Zm-.54-.23-1.92-1.92-.57.56 1.93 1.93.56-.57Zm-1.92-1.92a.76.76 0 0 1 0-1.1l-.57-.56c-.61.62-.61 1.6 0 2.22l.57-.56Zm0-1.1c.3-.3.78-.3 1.09 0l.56-.56a1.56 1.56 0 0 0-2.22 0l.57.57Zm1.09 0 1.92 1.93.57-.56-1.93-1.93-.56.57Zm1.92 1.93c.3.3.3.79 0 1.09l.57.57c.61-.62.61-1.6 0-2.22l-.57.56Zm0 1.09a.77.77 0 0 1-.56.23v.8c.4 0 .8-.14 1.13-.46l-.57-.57Zm-4.38-3.59a.67.67 0 0 1-.51-.21l-.6.53c.3.34.72.48 1.11.48v-.8Zm-.53-.23-1.92-1.92-.57.56 1.93 1.93.56-.57Zm-1.92-1.92a.76.76 0 0 1 0-1.1l-.57-.56c-.62.62-.62 1.6 0 2.22l.57-.56Zm0-1.1c.3-.3.78-.3 1.08 0l.57-.56a1.56 1.56 0 0 0-2.22 0l.57.57Zm1.08 0 1.93 1.93.56-.56-1.92-1.93-.57.57Zm1.93 1.93c.3.3.3.78 0 1.09l.56.56c.62-.61.62-1.6 0-2.21l-.56.56Zm.01 1.07c-.2.2-.38.25-.57.25v.8c.41 0 .78-.15 1.1-.45l-.53-.6Zm-10.73 15.5a.67.67 0 0 1-.52-.21l-.6.53c.31.34.72.49 1.12.49v-.8Zm-.53-.23a.76.76 0 0 1 0-1.08l-.57-.57c-.61.62-.61 1.6 0 2.22l.57-.57Zm0-1.08 1.92-1.93-.56-.56-1.93 1.92.57.57Zm1.92-1.93c.3-.3.79-.3 1.09 0l.57-.56a1.56 1.56 0 0 0-2.22 0l.56.56Zm1.09 0c.3.3.3.79 0 1.09l.57.57c.61-.62.61-1.6 0-2.22l-.57.56Zm0 1.09-1.92 1.92.56.57 1.93-1.92-.57-.57Zm-1.92 1.92a.77.77 0 0 1-.56.24v.8c.4 0 .8-.15 1.12-.47l-.56-.57Zm3.26-3.58a.67.67 0 0 1-.51-.22l-.6.53c.3.34.71.49 1.11.49v-.8Zm-.53-.24a.76.76 0 0 1 0-1.08l-.57-.57c-.61.62-.61 1.6 0 2.22l.57-.57Zm0-1.08 1.92-1.93-.56-.56-1.93 1.92.57.57Zm1.92-1.93c.3-.3.79-.3 1.1 0l.56-.56a1.56 1.56 0 0 0-2.22 0l.56.56Zm1.1 0c.3.3.3.78 0 1.09l.56.56c.61-.61.61-1.6 0-2.21l-.57.56Zm0 1.09-1.93 1.92.56.57 1.93-1.93-.57-.56Zm-1.92 1.9a.9.9 0 0 1-.57.26v.8c.42 0 .8-.19 1.1-.46l-.53-.6Zm1.35 4.08a.67.67 0 0 1-.51-.22l-.6.53c.3.34.72.49 1.11.49v-.8Zm-.53-.24-1.92-1.92-.57.57 1.93 1.92.56-.57Zm-1.92-1.92a.76.76 0 0 1 0-1.09l-.57-.56c-.61.61-.61 1.6 0 2.22l.57-.57Zm0-1.09c.3-.3.78-.3 1.09 0l.56-.56a1.56 1.56 0 0 0-2.22 0l.57.56Zm1.09 0 1.92 1.93.57-.57-1.93-1.92-.56.56Zm1.92 1.93c.3.3.3.78 0 1.08l.57.57c.61-.62.61-1.6 0-2.22l-.57.57Zm0 1.08a.77.77 0 0 1-.56.24v.8c.4 0 .8-.15 1.13-.47l-.57-.57Zm-4.38-3.58a.67.67 0 0 1-.51-.22l-.6.53c.3.34.72.49 1.11.49v-.8Zm-.53-.24-1.92-1.92-.57.56 1.93 1.93.56-.57Zm-1.92-1.92a.76.76 0 0 1 0-1.09l-.57-.56c-.61.61-.61 1.6 0 2.21l.57-.56Zm0-1.09c.3-.3.78-.3 1.09 0l.56-.56a1.56 1.56 0 0 0-2.22 0l.57.56Zm1.09 0 1.92 1.93.57-.57-1.93-1.92-.56.56Zm1.92 1.93c.3.3.3.78 0 1.08l.57.57c.61-.62.61-1.6 0-2.22l-.57.57Zm.02 1.07a.9.9 0 0 1-.58.25v.8c.42 0 .81-.19 1.1-.46l-.52-.6Zm70.05 45.09a.67.67 0 0 1-.52-.22l-.6.53c.3.34.72.49 1.12.49v-.8Zm-.53-.24a.76.76 0 0 1 0-1.08l-.57-.57c-.62.62-.62 1.6 0 2.22l.57-.57Zm0-1.08 1.92-1.93-.57-.56-1.92 1.92.57.57Zm1.92-1.93c.3-.3.78-.3 1.09 0l.56-.56a1.56 1.56 0 0 0-2.22 0l.57.56Zm1.09 0c.3.3.3.79 0 1.09l.56.57c.62-.62.62-1.6 0-2.22l-.56.56Zm0 1.09-1.93 1.92.57.57 1.92-1.92-.56-.57Zm-1.93 1.92a.77.77 0 0 1-.55.24v.8c.4 0 .8-.15 1.12-.47l-.57-.57Zm3.27-3.58a.67.67 0 0 1-.52-.22l-.6.53c.3.34.72.49 1.12.49v-.8Zm-.53-.24a.76.76 0 0 1 0-1.08l-.57-.57c-.62.62-.62 1.6 0 2.22l.57-.57Zm0-1.08 1.92-1.93-.56-.56-1.93 1.92.57.57Zm1.92-1.93c.3-.3.78-.3 1.09 0l.56-.56a1.56 1.56 0 0 0-2.21 0l.56.56Zm1.09 0c.3.3.3.79 0 1.09l.56.57c.62-.62.62-1.6 0-2.22l-.56.56Zm0 1.09-1.93 1.92.57.57 1.92-1.92-.56-.57Zm-1.93 1.92a.77.77 0 0 1-.55.24v.8c.4 0 .8-.15 1.12-.47l-.57-.57Zm1.37 4.06a.67.67 0 0 1-.51-.22l-.6.53c.3.34.72.49 1.11.49v-.8Zm-.53-.24-1.95-1.92-.56.57 1.95 1.92.56-.57Zm-1.95-1.92a.76.76 0 0 1 0-1.09l-.57-.56c-.61.61-.61 1.6 0 2.22l.57-.57Zm0-1.09c.3-.3.78-.3 1.09 0l.56-.56a1.56 1.56 0 0 0-2.22 0l.57.56Zm1.09 0 1.92 1.93.57-.57-1.93-1.92-.56.56Zm1.92 1.93c.3.3.3.78 0 1.08l.57.57c.61-.62.61-1.6 0-2.22l-.57.57Zm-.01 1.1a.67.67 0 0 1-.52.22v.8c.4 0 .8-.15 1.11-.49l-.6-.53Zm-4.34-3.6a.67.67 0 0 1-.51-.22l-.6.53c.3.34.72.49 1.11.49v-.8Zm-.53-.24-1.92-1.92-.57.57 1.92 1.92.57-.57Zm-1.92-1.92a.76.76 0 0 1 0-1.09l-.57-.56c-.62.61-.62 1.6 0 2.22l.57-.57Zm0-1.09c.3-.3.78-.3 1.08 0l.57-.56a1.56 1.56 0 0 0-2.22 0l.57.56Zm1.08 0 1.93 1.93.56-.57-1.92-1.92-.57.56Zm1.93 1.93c.3.3.3.78 0 1.08l.56.57c.62-.62.62-1.6 0-2.22l-.56.57Zm0 1.08a.77.77 0 0 1-.56.24v.8c.4 0 .8-.15 1.12-.47l-.56-.57Zm-36.36 17.71a34.65 34.65 0 0 1-34.61-34.6h-.8a35.45 35.45 0 0 0 35.41 35.4v-.8Zm-34.61-34.6c0-19.1 15.54-34.6 34.61-34.6v-.8a35.45 35.45 0 0 0-35.41 35.4h.8Zm34.61-34.6a34.65 34.65 0 0 1 34.61 34.6h.8a35.45 35.45 0 0 0-35.4-35.4v.8Zm34.61 34.6a34.65 34.65 0 0 1-34.6 34.6v.8a35.45 35.45 0 0 0 35.4-35.4h-.8Zm-34.6-33.13a33.16 33.16 0 0 0-33.12 33.1h.8c0-17.8 14.51-32.3 32.31-32.3v-.8Zm-33.12 33.1a33.16 33.16 0 0 0 33.11 33.1v-.8a32.36 32.36 0 0 1-32.3-32.3h-.8Zm33.11 33.1a33.16 33.16 0 0 0 33.11-33.1h-.8c0 17.8-14.5 32.3-32.3 32.3v.8Zm33.11-33.1a33.16 33.16 0 0 0-33.1-33.1v.8c17.8 0 32.3 14.5 32.3 32.3h.8Zm-33.1 40.54c-6.37 0-12.93-.5-18.52-4.05l-.43.67c5.8 3.7 12.56 4.18 18.94 4.18v-.8Zm-18.53-4.06a6.06 6.06 0 0 1-2.36-2.64l-.73.33a6.86 6.86 0 0 0 2.67 3l.42-.69Zm-2.36-2.64a4.94 4.94 0 0 1-.38-3.27l-.78-.18a5.74 5.74 0 0 0 .43 3.78l.73-.33Zm-.38-3.27c.09-.41.5-.68.9-.6l.17-.77a1.57 1.57 0 0 0-1.85 1.2l.78.17Zm.9-.6c.42.1.68.51.6.92l.77.17a1.57 1.57 0 0 0-1.2-1.86l-.17.78Zm.6.92c-.16.74-.07 1.53.3 2.3l.72-.33a2.88 2.88 0 0 1-.24-1.8l-.79-.17Zm.3 2.3c.35.8.98 1.47 1.8 2l.42-.68a3.99 3.99 0 0 1-1.5-1.65l-.73.34Zm1.8 2c5.3 3.36 11.7 3.8 17.69 3.8v-.8c-5.99 0-12.17-.44-17.27-3.68l-.43.67Zm17.69 3.8c.43 0 .76.33.76.76h.8c0-.87-.7-1.57-1.56-1.57v.8Zm.76.74c-.02.48-.37.81-.79.81v.8c.88 0 1.56-.7 1.6-1.58l-.8-.03Zm-.79.81a.76.76 0 0 1-.76-.76h-.8c0 .87.69 1.56 1.56 1.56v-.8Zm-.76-.76c0-.43.33-.77.76-.77v-.8c-.87 0-1.56.7-1.56 1.57h.8Zm.76-.77c6.02 0 12.39-.46 17.7-3.8l-.43-.68c-5.1 3.22-11.26 3.68-17.27 3.68v.8Zm17.69-3.8a4.63 4.63 0 0 0 1.8-1.99l-.72-.33c-.3.63-.8 1.22-1.5 1.64l.42.68Zm1.8-1.99c.4-.86.5-1.75.21-2.62l-.76.25c.21.65.15 1.33-.17 2.04l.73.33Zm.22-2.61a.76.76 0 0 1 .49-.96l-.23-.77a1.56 1.56 0 0 0-1.03 1.96l.77-.23Zm.5-.97c.39-.12.83.1.95.5l.77-.23a1.57 1.57 0 0 0-1.97-1.03l.24.76Zm.95.5a5.1 5.1 0 0 1-.28 3.7l.73.33a5.9 5.9 0 0 0 .32-4.27l-.77.24Zm-.28 3.7a6.37 6.37 0 0 1-2.37 2.65l.43.67a7.17 7.17 0 0 0 2.67-2.99l-.73-.33Zm-2.37 2.65c-5.58 3.56-12.15 4.05-18.5 4.05v.8c6.37 0 13.14-.48 18.93-4.18l-.43-.67Zm-18.5 13.94c-8.12 0-16-.86-22.13-2.45l-.2.77c6.22 1.61 14.17 2.48 22.32 2.48v-.8Zm-22.13-2.45a2.5 2.5 0 0 1-1.78-1.66l-.76.24a3.3 3.3 0 0 0 2.34 2.2l.2-.78Zm-1.78-1.67c-.28-.83-.1-1.72.45-2.41l-.63-.5c-.7.89-.95 2.06-.58 3.17l.76-.26Zm.44-2.4a30.57 30.57 0 0 0 3.65-5.33l-.7-.37a29.8 29.8 0 0 1-3.56 5.18l.61.52Zm3.65-5.33a.77.77 0 0 1 1.04-.34l.36-.72c-.8-.4-1.71-.06-2.1.69l.7.37Zm1.03-.35c.39.2.54.65.35 1.04l.71.36c.4-.8.07-1.71-.68-2.1l-.38.7Zm.35 1.04a33.64 33.64 0 0 1-3.83 5.62l.62.5a34.43 34.43 0 0 0 3.92-5.76l-.71-.36Zm-3.84 5.62c-.3.4-.22.83-.17.97l.76-.25v-.09c0-.04 0-.09.05-.13l-.64-.5Zm-.18.94a1 1 0 0 0 .72.7l.21-.77a.24.24 0 0 1-.12-.07l-.03-.05-.78.2Zm.73.7c6.05 1.56 13.78 2.4 21.75 2.4v-.8c-7.92 0-15.58-.84-21.56-2.37l-.2.77Zm21.75 2.4c.43 0 .76.33.76.76h.8c0-.87-.7-1.56-1.56-1.56v.8Zm.76.74a.8.8 0 0 1-.79.76v.8a1.6 1.6 0 0 0 1.6-1.52l-.8-.04Zm-.79.76a.76.76 0 0 1-.76-.76h-.8c0 .87.69 1.56 1.56 1.56v-.8Zm-.76-.76c0-.43.33-.77.76-.77v-.8c-.87 0-1.56.7-1.56 1.57h.8Zm.76-.77c7.97 0 15.7-.84 21.75-2.4l-.2-.77c-5.97 1.53-13.63 2.37-21.55 2.37v.8Zm21.77-2.4c.45-.14.62-.5.68-.61l-.72-.36c-.05.1-.1.17-.2.2l.24.77Zm.7-.7c.04-.13.13-.53-.18-.93l-.63.49c.04.05.05.1.06.13a.4.4 0 0 1-.02.12l.78.2Zm-.18-.94a33.15 33.15 0 0 1-3.83-5.62l-.71.36a33.92 33.92 0 0 0 3.92 5.77l.62-.5Zm-3.83-5.62a.77.77 0 0 1 .34-1.03l-.37-.71a1.56 1.56 0 0 0-.68 2.1l.7-.36Zm.34-1.03a.77.77 0 0 1 1.04.34l.7-.37a1.57 1.57 0 0 0-2.1-.68l.36.7Zm1.03.34c1 1.96 2.54 4 3.66 5.33l.61-.51a29.8 29.8 0 0 1-3.55-5.18l-.72.36Zm3.66 5.33c.56.68.72 1.59.44 2.4l.76.26a3.3 3.3 0 0 0-.59-3.17l-.61.5Zm.44 2.4a2.49 2.49 0 0 1-1.78 1.67l.2.78a3.29 3.29 0 0 0 2.34-2.19l-.76-.25Zm-1.78 1.67c-6.17 1.59-14.04 2.48-22.15 2.48v.8c8.16 0 16.1-.9 22.35-2.5l-.2-.78Z" fill="#1A191E" mask="url(#a)"/></svg>