<svg width="86" height="85" viewBox="0 0 86 85" fill="none" xmlns="http://www.w3.org/2000/svg"><mask id="a" fill="#fff"><path d="M62.2 85a7.94 7.94 0 0 1-3.49-.81 11.36 11.36 0 0 1-5.79-7.04c-1.63-5.57 1.53-13.94 5.43-17.77h-40.33c-.58 0-1.03-.46-1.03-1.03 0-.57.45-1.03 1.03-1.03h40.95c.7 0 1.34.46 1.6 1.15.3.74.1 1.58-.47 2.08-3.54 3.18-6.65 11.05-5.22 16.03a9.12 9.12 0 0 0 4.7 5.74c1.1.53 2.81.98 4.66.22 3.73-1.58 5.62-6.51 6.43-9.29 1.92-6.62 2.37-14.57 1.39-23.54-1.72-15.76-.05-37.17 6.3-47.63h-51.37c-.31 0-.62.12-.84.34-3.5 3.37-5.5 9.42-5.53 16.55-.02 4.07.53 8.18 1.08 12.18.34 2.56.7 5.19.91 7.82.48 6.05-.02 11.22-1.48 15.4a1.03 1.03 0 0 1-1.94-.69c1.36-3.9 1.84-8.8 1.39-14.56-.2-2.56-.55-5.2-.89-7.7-.55-4.05-1.1-8.26-1.08-12.45.03-7.68 2.28-14.26 6.15-18.06.6-.6 1.41-.91 2.28-.91h53.27a1 1 0 0 1 .91.57 1 1 0 0 1-.1 1.08c-6.93 9.3-8.77 31.58-6.98 47.82 1.03 9.4.55 17.35-1.46 24.33-1.1 3.83-3.32 8.8-7.6 10.63a7.5 7.5 0 0 1-2.88.57Z"/><path d="M62.23 85h-54.79c-1.12 0-2.2-.53-2.94-1.46-8.45-10.43-2.92-20.57-.17-24.45a4.08 4.08 0 0 1 3.33-1.77h17a1.03 1.03 0 1 1 .01 2.06h-17.04c-.62 0-1.24.33-1.65.9-2.48 3.5-7.46 12.64.1 21.97.36.43.86.7 1.36.7h54.81c.58 0 1.03.45 1.03 1.02a1.06 1.06 0 0 1-1.05 1.03Zm-31.94-66.58a1.4 1.4 0 0 1-1.32-.88l-1.14-2.85-2.33-1.7a1.43 1.43 0 0 1 0-2.3l2.33-1.7 1.14-2.84a1.42 1.42 0 0 1 2.64 0l1.14 2.85 2.32 1.7a1.43 1.43 0 0 1 0 2.3l-2.32 1.69-1.14 2.85c-.22.52-.75.88-1.32.88Zm-2.9-6.58 1.77 1.3c.22.14.39.35.48.6l.65 1.57.65-1.58c.1-.24.26-.45.47-.62l1.77-1.3-1.77-1.28a1.3 1.3 0 0 1-.47-.6l-.65-1.58-.65 1.58c-.1.24-.26.45-.48.62l-1.77 1.3Zm10.58 4 1.24.9c.1.08.1.25 0 .32l-1.24.9c-.03.03-.05.05-.07.1l-.63 1.51a.2.2 0 0 1-.35 0l-.63-1.5c-.02-.03-.04-.08-.07-.1l-1.24-.91c-.1-.07-.1-.24 0-.31l1.24-.91c.03-.03.05-.05.07-.1l.63-1.5a.2.2 0 0 1 .35 0l.63 1.5c.02.05.04.07.07.1Zm28.75 15.33h-40.28c-.58 0-1.03-.45-1.03-1.03 0-.57.45-1.02 1.03-1.02h40.28c.58 0 1.03.45 1.03 1.02 0 .58-.45 1.03-1.03 1.03Zm0 6.75h-40.28c-.58 0-1.03-.46-1.03-1.03 0-.57.45-1.03 1.03-1.03h40.28c.58 0 1.03.46 1.03 1.03 0 .55-.45 1.03-1.03 1.03Zm0 6.72h-40.28c-.58 0-1.03-.45-1.03-1.03 0-.57.45-1.03 1.03-1.03h40.28c.58 0 1.03.46 1.03 1.03 0 .58-.45 1.03-1.03 1.03Zm0 6.72h-40.28c-.58 0-1.03-.45-1.03-1.02 0-.58.45-1.03 1.03-1.03h40.28c.58 0 1.03.45 1.03 1.03 0 .57-.45 1.02-1.03 1.02Zm-58.22 2.47a.94.94 0 0 1-.72-.31c-.4-.41-.4-1.06 0-1.46l1.29-1.3c.4-.4 1.05-.4 1.46 0 .4.41.4 1.06 0 1.47l-1.3 1.29a1 1 0 0 1-.73.3Z"/><path d="M11.03 51.3a.94.94 0 0 1-.72-.32c-.4-.4-.4-1.05 0-1.46l1.3-1.29c.4-.4 1.05-.4 1.45 0 .41.4.41 1.05 0 1.46l-1.29 1.3c-.21.2-.48.3-.74.3Z"/><path d="M12.32 53.83a.94.94 0 0 1-.71-.31l-1.3-1.3c-.4-.4-.4-1.05 0-1.45a1.02 1.02 0 0 1 1.46 0l1.3 1.29c.4.4.4 1.05 0 1.46-.22.21-.48.3-.75.3Z"/><path d="M9.79 51.3a.94.94 0 0 1-.72-.32l-1.3-1.3c-.4-.4-.4-1.04 0-1.45.41-.4 1.06-.4 1.47 0l1.29 1.3c.4.4.4 1.04 0 1.45-.22.22-.48.31-.74.31Zm71.31-26.75a.94.94 0 0 1-.71-.32 1 1 0 0 1 0-1.45l1.29-1.3c.4-.4 1.05-.4 1.46 0 .4.41.4 1.06 0 1.46l-1.3 1.3c-.21.21-.47.3-.74.3Z"/><path d="M83.64 22.01a.94.94 0 0 1-.72-.31c-.4-.4-.4-1.05 0-1.46l1.3-1.3c.4-.4 1.05-.4 1.45 0 .4.41.4 1.06 0 1.47l-1.29 1.29c-.22.21-.48.31-.74.31Z"/><path d="M84.93 24.55a.94.94 0 0 1-.72-.32l-1.29-1.29c-.4-.4-.4-1.05 0-1.46.4-.4 1.05-.4 1.46 0l1.3 1.3c.4.4.4 1.05 0 1.45-.22.22-.49.32-.75.32Z"/><path d="M82.4 22.01a.94.94 0 0 1-.72-.31l-1.3-1.3c-.4-.4-.4-1.05 0-1.45.41-.4 1.06-.4 1.46 0l1.3 1.29a1.04 1.04 0 0 1-.75 1.77Zm-79.2 24.38a.94.94 0 0 1-.71-.31c-.4-.41-.4-1.06 0-1.46l1.3-1.3c.4-.4 1.04-.4 1.45 0 .4.41.4 1.06 0 1.46l-1.29 1.3c-.22.21-.48.3-.74.3Z"/><path d="M5.74 43.85a.94.94 0 0 1-.71-.3 1.03 1.03 0 0 1 0-1.47l1.29-1.29c.4-.4 1.05-.4 1.46 0 .4.4.4 1.05 0 1.46l-1.3 1.3c-.21.2-.47.3-.74.3Z"/><path d="M7.04 46.39a.94.94 0 0 1-.72-.31l-1.3-1.3a1.03 1.03 0 1 1 1.47-1.45l1.29 1.29c.4.4.4 1.05 0 1.46-.22.21-.48.3-.74.3Z"/><path d="M4.5 43.85a.94.94 0 0 1-.72-.3l-1.29-1.3c-.4-.4-.4-1.05 0-1.46.4-.4 1.05-.4 1.46 0l1.3 1.3c.4.4.4 1.04 0 1.45-.22.22-.49.31-.75.31Z"/></mask><path d="M62.2 85a7.94 7.94 0 0 1-3.49-.81 11.36 11.36 0 0 1-5.79-7.04c-1.63-5.57 1.53-13.94 5.43-17.77h-40.33c-.58 0-1.03-.46-1.03-1.03 0-.57.45-1.03 1.03-1.03h40.95c.7 0 1.34.46 1.6 1.15.3.74.1 1.58-.47 2.08-3.54 3.18-6.65 11.05-5.22 16.03a9.12 9.12 0 0 0 4.7 5.74c1.1.53 2.81.98 4.66.22 3.73-1.58 5.62-6.51 6.43-9.29 1.92-6.62 2.37-14.57 1.39-23.54-1.72-15.76-.05-37.17 6.3-47.63h-51.37c-.31 0-.62.12-.84.34-3.5 3.37-5.5 9.42-5.53 16.55-.02 4.07.53 8.18 1.08 12.18.34 2.56.7 5.19.91 7.82.48 6.05-.02 11.22-1.48 15.4a1.03 1.03 0 0 1-1.94-.69c1.36-3.9 1.84-8.8 1.39-14.56-.2-2.56-.55-5.2-.89-7.7-.55-4.05-1.1-8.26-1.08-12.45.03-7.68 2.28-14.26 6.15-18.06.6-.6 1.41-.91 2.28-.91h53.27a1 1 0 0 1 .91.57 1 1 0 0 1-.1 1.08c-6.93 9.3-8.77 31.58-6.98 47.82 1.03 9.4.55 17.35-1.46 24.33-1.1 3.83-3.32 8.8-7.6 10.63a7.5 7.5 0 0 1-2.88.57Z" fill="#C3A173"/><path d="M62.23 85h-54.79c-1.12 0-2.2-.53-2.94-1.46-8.45-10.43-2.92-20.57-.17-24.45a4.08 4.08 0 0 1 3.33-1.77h17a1.03 1.03 0 1 1 .01 2.06h-17.04c-.62 0-1.24.33-1.65.9-2.48 3.5-7.46 12.64.1 21.97.36.43.86.7 1.36.7h54.81c.58 0 1.03.45 1.03 1.02a1.06 1.06 0 0 1-1.05 1.03Zm-31.94-66.58a1.4 1.4 0 0 1-1.32-.88l-1.14-2.85-2.33-1.7a1.43 1.43 0 0 1 0-2.3l2.33-1.7 1.14-2.84a1.42 1.42 0 0 1 2.64 0l1.14 2.85 2.32 1.7a1.43 1.43 0 0 1 0 2.3l-2.32 1.69-1.14 2.85c-.22.52-.75.88-1.32.88Zm-2.9-6.58 1.77 1.3c.22.14.39.35.48.6l.65 1.57.65-1.58c.1-.24.26-.45.47-.62l1.77-1.3-1.77-1.28a1.3 1.3 0 0 1-.47-.6l-.65-1.58-.65 1.58c-.1.24-.26.45-.48.62l-1.77 1.3Zm10.58 4 1.24.9c.1.08.1.25 0 .32l-1.24.9c-.03.03-.05.05-.07.1l-.63 1.51a.2.2 0 0 1-.35 0l-.63-1.5c-.02-.03-.04-.08-.07-.1l-1.24-.91c-.1-.07-.1-.24 0-.31l1.24-.91c.03-.03.05-.05.07-.1l.63-1.5a.2.2 0 0 1 .35 0l.63 1.5c.02.05.04.07.07.1Zm28.75 15.33h-40.28c-.58 0-1.03-.45-1.03-1.03 0-.57.45-1.02 1.03-1.02h40.28c.58 0 1.03.45 1.03 1.02 0 .58-.45 1.03-1.03 1.03Zm0 6.75h-40.28c-.58 0-1.03-.46-1.03-1.03 0-.57.45-1.03 1.03-1.03h40.28c.58 0 1.03.46 1.03 1.03 0 .55-.45 1.03-1.03 1.03Zm0 6.72h-40.28c-.58 0-1.03-.45-1.03-1.03 0-.57.45-1.03 1.03-1.03h40.28c.58 0 1.03.46 1.03 1.03 0 .58-.45 1.03-1.03 1.03Zm0 6.72h-40.28c-.58 0-1.03-.45-1.03-1.02 0-.58.45-1.03 1.03-1.03h40.28c.58 0 1.03.45 1.03 1.03 0 .57-.45 1.02-1.03 1.02Zm-58.22 2.47a.94.94 0 0 1-.72-.31c-.4-.41-.4-1.06 0-1.46l1.29-1.3c.4-.4 1.05-.4 1.46 0 .4.41.4 1.06 0 1.47l-1.3 1.29a1 1 0 0 1-.73.3Z" fill="#C3A173"/><path d="M11.03 51.3a.94.94 0 0 1-.72-.32c-.4-.4-.4-1.05 0-1.46l1.3-1.29c.4-.4 1.05-.4 1.45 0 .41.4.41 1.05 0 1.46l-1.29 1.3c-.21.2-.48.3-.74.3Z" fill="#C3A173"/><path d="M12.32 53.83a.94.94 0 0 1-.71-.31l-1.3-1.3c-.4-.4-.4-1.05 0-1.45a1.02 1.02 0 0 1 1.46 0l1.3 1.29c.4.4.4 1.05 0 1.46-.22.21-.48.3-.75.3Z" fill="#C3A173"/><path d="M9.79 51.3a.94.94 0 0 1-.72-.32l-1.3-1.3c-.4-.4-.4-1.04 0-1.45.41-.4 1.06-.4 1.47 0l1.29 1.3c.4.4.4 1.04 0 1.45-.22.22-.48.31-.74.31Zm71.31-26.75a.94.94 0 0 1-.71-.32 1 1 0 0 1 0-1.45l1.29-1.3c.4-.4 1.05-.4 1.46 0 .4.41.4 1.06 0 1.46l-1.3 1.3c-.21.21-.47.3-.74.3Z" fill="#C3A173"/><path d="M83.64 22.01a.94.94 0 0 1-.72-.31c-.4-.4-.4-1.05 0-1.46l1.3-1.3c.4-.4 1.05-.4 1.45 0 .4.41.4 1.06 0 1.47l-1.29 1.29c-.22.21-.48.31-.74.31Z" fill="#C3A173"/><path d="M84.93 24.55a.94.94 0 0 1-.72-.32l-1.29-1.29c-.4-.4-.4-1.05 0-1.46.4-.4 1.05-.4 1.46 0l1.3 1.3c.4.4.4 1.05 0 1.45-.22.22-.49.32-.75.32Z" fill="#C3A173"/><path d="M82.4 22.01a.94.94 0 0 1-.72-.31l-1.3-1.3c-.4-.4-.4-1.05 0-1.45.41-.4 1.06-.4 1.46 0l1.3 1.29a1.04 1.04 0 0 1-.75 1.77Zm-79.2 24.38a.94.94 0 0 1-.71-.31c-.4-.41-.4-1.06 0-1.46l1.3-1.3c.4-.4 1.04-.4 1.45 0 .4.41.4 1.06 0 1.46l-1.29 1.3c-.22.21-.48.3-.74.3Z" fill="#C3A173"/><path d="M5.74 43.85a.94.94 0 0 1-.71-.3 1.03 1.03 0 0 1 0-1.47l1.29-1.29c.4-.4 1.05-.4 1.46 0 .4.4.4 1.05 0 1.46l-1.3 1.3c-.21.2-.47.3-.74.3Z" fill="#C3A173"/><path d="M7.04 46.39a.94.94 0 0 1-.72-.31l-1.3-1.3a1.03 1.03 0 1 1 1.47-1.45l1.29 1.29c.4.4.4 1.05 0 1.46-.22.21-.48.3-.74.3Z" fill="#C3A173"/><path d="M4.5 43.85a.94.94 0 0 1-.72-.3l-1.29-1.3c-.4-.4-.4-1.05 0-1.46.4-.4 1.05-.4 1.46 0l1.3 1.3c.4.4.4 1.04 0 1.45-.22.22-.49.31-.75.31Z" fill="#C3A173"/><path d="M62.2 85a7.94 7.94 0 0 1-3.49-.81 11.36 11.36 0 0 1-5.79-7.04c-1.63-5.57 1.53-13.94 5.43-17.77h-40.33c-.58 0-1.03-.46-1.03-1.03 0-.57.45-1.03 1.03-1.03h40.95c.7 0 1.34.46 1.6 1.15.3.74.1 1.58-.47 2.08-3.54 3.18-6.65 11.05-5.22 16.03a9.12 9.12 0 0 0 4.7 5.74c1.1.53 2.81.98 4.66.22 3.73-1.58 5.62-6.51 6.43-9.29 1.92-6.62 2.37-14.57 1.39-23.54-1.72-15.76-.05-37.17 6.3-47.63h-51.37c-.31 0-.62.12-.84.34-3.5 3.37-5.5 9.42-5.53 16.55-.02 4.07.53 8.18 1.08 12.18.34 2.56.7 5.19.91 7.82.48 6.05-.02 11.22-1.48 15.4a1.03 1.03 0 0 1-1.94-.69c1.36-3.9 1.84-8.8 1.39-14.56-.2-2.56-.55-5.2-.89-7.7-.55-4.05-1.1-8.26-1.08-12.45.03-7.68 2.28-14.26 6.15-18.06.6-.6 1.41-.91 2.28-.91h53.27a1 1 0 0 1 .91.57 1 1 0 0 1-.1 1.08c-6.93 9.3-8.77 31.58-6.98 47.82 1.03 9.4.55 17.35-1.46 24.33-1.1 3.83-3.32 8.8-7.6 10.63a7.5 7.5 0 0 1-2.88.57Z" stroke="#1A191E" stroke-width=".8" mask="url(#a)"/><path d="M62.23 85h-54.79c-1.12 0-2.2-.53-2.94-1.46-8.45-10.43-2.92-20.57-.17-24.45a4.08 4.08 0 0 1 3.33-1.77h17a1.03 1.03 0 1 1 .01 2.06h-17.04c-.62 0-1.24.33-1.65.9-2.48 3.5-7.46 12.64.1 21.97.36.43.86.7 1.36.7h54.81c.58 0 1.03.45 1.03 1.02a1.06 1.06 0 0 1-1.05 1.03Zm-31.94-66.58a1.4 1.4 0 0 1-1.32-.88l-1.14-2.85-2.33-1.7a1.43 1.43 0 0 1 0-2.3l2.33-1.7 1.14-2.84a1.42 1.42 0 0 1 2.64 0l1.14 2.85 2.32 1.7a1.43 1.43 0 0 1 0 2.3l-2.32 1.69-1.14 2.85c-.22.52-.75.88-1.32.88Zm-2.9-6.58 1.77 1.3c.22.14.39.35.48.6l.65 1.57.65-1.58c.1-.24.26-.45.47-.62l1.77-1.3-1.77-1.28a1.3 1.3 0 0 1-.47-.6l-.65-1.58-.65 1.58c-.1.24-.26.45-.48.62l-1.77 1.3Zm10.58 4 1.24.9c.1.08.1.25 0 .32l-1.24.9c-.03.03-.05.05-.07.1l-.63 1.51a.2.2 0 0 1-.35 0l-.63-1.5c-.02-.03-.04-.08-.07-.1l-1.24-.91c-.1-.07-.1-.24 0-.31l1.24-.91c.03-.03.05-.05.07-.1l.63-1.5a.2.2 0 0 1 .35 0l.63 1.5c.02.05.04.07.07.1Zm28.75 15.33h-40.28c-.58 0-1.03-.45-1.03-1.03 0-.57.45-1.02 1.03-1.02h40.28c.58 0 1.03.45 1.03 1.02 0 .58-.45 1.03-1.03 1.03Zm0 6.75h-40.28c-.58 0-1.03-.46-1.03-1.03 0-.57.45-1.03 1.03-1.03h40.28c.58 0 1.03.46 1.03 1.03 0 .55-.45 1.03-1.03 1.03Zm0 6.72h-40.28c-.58 0-1.03-.45-1.03-1.03 0-.57.45-1.03 1.03-1.03h40.28c.58 0 1.03.46 1.03 1.03 0 .58-.45 1.03-1.03 1.03Zm0 6.72h-40.28c-.58 0-1.03-.45-1.03-1.02 0-.58.45-1.03 1.03-1.03h40.28c.58 0 1.03.45 1.03 1.03 0 .57-.45 1.02-1.03 1.02Zm-58.22 2.47a.94.94 0 0 1-.72-.31c-.4-.41-.4-1.06 0-1.46l1.29-1.3c.4-.4 1.05-.4 1.46 0 .4.41.4 1.06 0 1.47l-1.3 1.29a1 1 0 0 1-.73.3Z" stroke="#1A191E" stroke-width=".8" mask="url(#a)"/><path d="M11.03 51.3a.94.94 0 0 1-.72-.32c-.4-.4-.4-1.05 0-1.46l1.3-1.29c.4-.4 1.05-.4 1.45 0 .41.4.41 1.05 0 1.46l-1.29 1.3c-.21.2-.48.3-.74.3Z" stroke="#1A191E" stroke-width=".8" mask="url(#a)"/><path d="M12.32 53.83a.94.94 0 0 1-.71-.31l-1.3-1.3c-.4-.4-.4-1.05 0-1.45a1.02 1.02 0 0 1 1.46 0l1.3 1.29c.4.4.4 1.05 0 1.46-.22.21-.48.3-.75.3Z" stroke="#1A191E" stroke-width=".8" mask="url(#a)"/><path d="M9.79 51.3a.94.94 0 0 1-.72-.32l-1.3-1.3c-.4-.4-.4-1.04 0-1.45.41-.4 1.06-.4 1.47 0l1.29 1.3c.4.4.4 1.04 0 1.45-.22.22-.48.31-.74.31Zm71.31-26.75a.94.94 0 0 1-.71-.32 1 1 0 0 1 0-1.45l1.29-1.3c.4-.4 1.05-.4 1.46 0 .4.41.4 1.06 0 1.46l-1.3 1.3c-.21.21-.47.3-.74.3Z" stroke="#1A191E" stroke-width=".8" mask="url(#a)"/><path d="M83.64 22.01a.94.94 0 0 1-.72-.31c-.4-.4-.4-1.05 0-1.46l1.3-1.3c.4-.4 1.05-.4 1.45 0 .4.41.4 1.06 0 1.47l-1.29 1.29c-.22.21-.48.31-.74.31Z" stroke="#1A191E" stroke-width=".8" mask="url(#a)"/><path d="M84.93 24.55a.94.94 0 0 1-.72-.32l-1.29-1.29c-.4-.4-.4-1.05 0-1.46.4-.4 1.05-.4 1.46 0l1.3 1.3c.4.4.4 1.05 0 1.45-.22.22-.49.32-.75.32Z" stroke="#1A191E" stroke-width=".8" mask="url(#a)"/><path d="M82.4 22.01a.94.94 0 0 1-.72-.31l-1.3-1.3c-.4-.4-.4-1.05 0-1.45.41-.4 1.06-.4 1.46 0l1.3 1.29a1.04 1.04 0 0 1-.75 1.77Zm-79.2 24.38a.94.94 0 0 1-.71-.31c-.4-.41-.4-1.06 0-1.46l1.3-1.3c.4-.4 1.04-.4 1.45 0 .4.41.4 1.06 0 1.46l-1.29 1.3c-.22.21-.48.3-.74.3Z" stroke="#1A191E" stroke-width=".8" mask="url(#a)"/><path d="M5.74 43.85a.94.94 0 0 1-.71-.3 1.03 1.03 0 0 1 0-1.47l1.29-1.29c.4-.4 1.05-.4 1.46 0 .4.4.4 1.05 0 1.46l-1.3 1.3c-.21.2-.47.3-.74.3Z" stroke="#1A191E" stroke-width=".8" mask="url(#a)"/><path d="M7.04 46.39a.94.94 0 0 1-.72-.31l-1.3-1.3a1.03 1.03 0 1 1 1.47-1.45l1.29 1.29c.4.4.4 1.05 0 1.46-.22.21-.48.3-.74.3Z" stroke="#1A191E" stroke-width=".8" mask="url(#a)"/><path d="M4.5 43.85a.94.94 0 0 1-.72-.3l-1.29-1.3c-.4-.4-.4-1.05 0-1.46.4-.4 1.05-.4 1.46 0l1.3 1.3c.4.4.4 1.04 0 1.45-.22.22-.49.31-.75.31Z" stroke="#1A191E" stroke-width=".8" mask="url(#a)"/></svg>