<svg width="551" height="448" viewBox="0 0 551 448" fill="none" xmlns="http://www.w3.org/2000/svg"><path d="m356.87 193.51-6.46-2.76-.12-6.47-1.9 6.23-3.6.36.72 2.28 2.27 1.08-.11 5.4.47 1.55 1.68-6.71 7.05-.96Zm-76.72-67.75-1.43 4.56-5.02.72 4.66 2.03-.24 6.84 1.8-6.6 5.01-.72-4.66-2.03-.12-4.8Zm16.61-31.9a67.94 67.94 0 0 1 35.25-1.43l.36-1.08a68.23 68.23 0 0 0-35.97 1.44 69.34 69.34 0 0 0-34.88 24.82l1.07.36a69.4 69.4 0 0 1 34.17-24.1Zm79.58 102.53-1.07-.36a68.05 68.05 0 0 1-23.3 23.38l.23 1.08a70.47 70.47 0 0 0 24.14-24.1Zm-22.46 32.49a83.21 83.21 0 0 0 6.93-4.31l-.72-.84a58 58 0 0 1-6.45 3.95l.24 1.2Zm-47.92 7.8a75.5 75.5 0 0 1-29.99-11.15l-.83.72a76.18 76.18 0 0 0 30.59 11.5c1.19.13 2.5.37 3.7.49l-.24-1.08c-.96-.12-2.03-.24-3.23-.48Z" fill="#C3A173"/><path d="M327.83 83.43a74.5 74.5 0 0 1 37.04 16.31l.84-.72a77 77 0 0 0-37.64-16.67 76.49 76.49 0 0 0-48.87 9.36l.72.84a76.02 76.02 0 0 1 47.91-9.12Z" fill="#C3A173"/><path d="M312.9 85.71a72.18 72.18 0 0 1 37.75 8.15l.6-.83a73 73 0 0 0-38.36-8.28 73.24 73.24 0 0 0-43.85 17.75l.96.6a71.93 71.93 0 0 1 42.9-17.39Zm57.23 127.1-.84-.6a75.03 75.03 0 0 1-16.13 12.6l.24 1.08a73.35 73.35 0 0 0 16.73-13.07Zm-78.98 17.15-.6.96a73.38 73.38 0 0 0 18.52 4.44l-.24-1.08a86.65 86.65 0 0 1-17.68-4.32Z" fill="#C3A173"/><path d="M406.57 146.87a6.53 6.53 0 0 0-5.61-7.2 6.53 6.53 0 0 0-7.3 5.04c-.23 0-.47-.12-.71-.12a77.9 77.9 0 0 0-9.08-24.23l-.84.72a80.11 80.11 0 0 1 8.85 23.39c-.6-.12-1.32-.12-1.92-.24a75.58 75.58 0 0 0-16.72-33.94l-.6.96a74.42 74.42 0 0 1 16.25 32.98l-4.19-.36a70.08 70.08 0 0 0-26.76-40.77l-.36 1.08a69.04 69.04 0 0 1 24.98 35.49c.35 1.32.71 2.76 1.07 4.08a38.5 38.5 0 0 0-3.58-.24l-.12 1.2 4.06.36a71.15 71.15 0 0 1 1.43 20.02l1.08.36c.48-6.71.12-13.55-1.32-20.38l4.19.36a59.85 59.85 0 0 1 1.31 10.43c.12 3 .12 6-.12 8.87-3.58.72-7.53 1.32-11.7 2.04 4.65-33.94-18.89-65.35-52.58-70.15-33.82-4.91-65.36 18.83-70.14 52.76a59.96 59.96 0 0 0 1.07 23.15c-2.5-.12-5.01-.24-7.4-.48a66.93 66.93 0 0 1-.24-21.83c1.31-.24 2.75-.48 4.18-.6l-.24-1.2c-1.2.12-2.5.36-3.82.6.12-.36.12-.72.12-1.08l-1.08-.36c-.12.6-.12 1.08-.24 1.68l-4.18.72a74.23 74.23 0 0 1 6.21-21.1l-.83-.6a76.23 76.23 0 0 0-6.46 21.94l-1.79.36c0-.36.12-.84.12-1.2a79.57 79.57 0 0 1 14.34-35.25l-.72-.84a79.09 79.09 0 0 0-14.7 35.85c-.11.48-.11 1.08-.23 1.56-14.46 2.76-29.88 6.96-29.64 12.35.12 3.12 5.62 5.4 13.03 7.08a4.2 4.2 0 0 0 3.58 4.43 4.12 4.12 0 0 0 4.66-3c.24 0 .48.13.84.13 2.63.36 5.38.72 7.88.96a79.75 79.75 0 0 0 14.46 34.65l.84-.72a77.47 77.47 0 0 1-14.1-33.7h.36c.48 0 1.07.13 1.55.13a75.44 75.44 0 0 0 23.42 43.28l.6-.84a74.34 74.34 0 0 1-22.94-42.32l4.18.36a60.08 60.08 0 0 0 1.91 7.67 69.93 69.93 0 0 0 32.98 40.89l.36-1.08a69.21 69.21 0 0 1-34.18-47.48c2.4.11 4.9.35 7.41.47a62.11 62.11 0 0 0 49.23 45.57l-.24-1.32c-23.66-4.31-41.82-22.06-47.8-44.25 12.8.6 27.25.84 42.43.48l.12-1.2c-15.3.36-29.88.25-42.78-.48a62.24 62.24 0 0 1-1.2-23.14c4.78-33.33 35.61-56.47 68.7-51.68 33.1 4.8 56.29 35.74 51.5 68.95v.12a585.4 585.4 0 0 1-38.95 4.32l.36 1.2a607.88 607.88 0 0 0 38.36-4.2c-2.87 17.5-13.15 32.01-27 41.13l.23 1.32a62.36 62.36 0 0 0 28.08-42.7c4.18-.6 8.13-1.31 11.83-2.03a68.66 68.66 0 0 1-3.94 18.59l.95.6a75.95 75.95 0 0 0 4.07-19.43l1.79-.36c-.12 1.8-.24 3.72-.6 5.52a77.2 77.2 0 0 1-10.4 29.13l.72.84a78.9 78.9 0 0 0 10.64-29.85c.24-2.04.47-3.96.6-5.88 15.4-3.24 25.2-7.2 25.09-11.39-.12-3-5.5-5.28-12.67-6.95Zm-174.69 23.38a4.35 4.35 0 0 0-3.58-4.2 4.25 4.25 0 0 0-4.54 2.64c-10.76-2.4-11.95-4.92-12.07-5.88-.12-2.88 7.53-6.95 28.2-10.9-.72 6.59-.6 13.06.36 19.3-3.11-.24-5.98-.6-8.37-.96Zm10.04 1.2c-.24 0-.36 0-.6-.12a77.09 77.09 0 0 1-.36-19.67l1.8-.36c-.48 4.32-.72 8.63-.48 13.07.12 2.4.36 4.8.72 7.2-.24 0-.6-.12-1.08-.12Zm2.27.24a72 72 0 0 1-.72-7.32 69.3 69.3 0 0 1 .48-13.19c1.31-.24 2.75-.48 4.18-.72a72.7 72.7 0 0 0 .24 21.59l-4.18-.36Zm149-7.56-1.8.36c.13-2.88.25-5.75 0-8.75a94.85 94.85 0 0 0-1.3-10.2c.59.13 1.3.13 1.9.25a78.2 78.2 0 0 1 1.2 18.34Zm1.07-.24a74.67 74.67 0 0 0-1.2-17.98h.37a6.63 6.63 0 0 0 5.61 6.83 6.67 6.67 0 0 0 7.3-4.68c8.12 1.92 11.58 3.96 11.7 5.76.12 3.24-8.48 6.83-23.78 10.07Z" fill="#C3A173"/><path d="M386.38 321.7c-2.4-16.07-13.14-44.61-22.7-69.8-7.17-18.82-13.27-35.13-13.5-40.16-.36-7.68-3.83-17.63-6.7-25.55-1.67-4.55-3.1-8.63-3.58-11.27-.12-.84-.36-1.91-.6-3.23-1.07-6.6-2.99-18.23-7.29-26.5-1.67-7.8-4.06-15.23-5.97-15.83-3.94-1.32-12.3-1.2-15.3 5.4 0 0-.24 1.67-.47 4.31-14.46 11.15-10.16 44-8.73 55.28.12.96.24 1.68.24 2.28.48 4.43 1.2 8.75 1.8 12.95.6 4.2 1.3 8.51 1.79 12.83.48 4.44 2.27 13.19 4.06 21.7.72 3.36 1.43 6.72 1.91 9.6-2.39.95-10.15 3.6-14.94 2.27-3.34-.96-10.63-6.47-17.68-11.75-5.38-4.07-10.87-8.27-15.3-10.91a797.4 797.4 0 0 0-18.4-10.91c-.6-.72-3.82-4.44-8.12-9.23 1.8-2.88 9.2-14.75 10.75-17.51l-1.07-2.52-.6 1.32c-.95 1.92-8.24 13.43-10.51 17.15a2592.84 2592.84 0 0 0-17.2-19.79c2.62-2.88 12.66-13.67 15.64-15.7a91.2 91.2 0 0 1 6.81-3.37l-.6-2.03c-3.94 1.8-6.8 3.24-7.4 3.71-3.23 2.16-13.03 12.72-15.9 15.83-3.1-3.6-5.6-6.6-7.04-8.4 2.03-3.95 12.78-25.65 14.46-31.17l2.27-7.2c2.27-1.8 18.75-14.98 21.98-20.5 3.1-5.4 2.63-19.3-1.2-23.98.25-1.44-.11-3.12-2.26-3.12-3 0-11.95 4.56-15.9 8.04-2.98 2.64-6.45 6.47-8 9.11-2.27 1.92-4.54 3.84-7.29 6.24a20.9 20.9 0 0 1 1.8-4.2c4.3-6.24 12.78-21.1 13.26-32.86.35-7.07-1.8-13.19-5.62-16.18-.6-.48-1.2-.84-1.91-1.2.36-2.64-.48-5.16-4.42-4.2-5.38 1.2-16.73 17.15-19.84 22.54a408.34 408.34 0 0 0-15.65 23.87c-1.8 3.11-4.9 13.66-6.21 18.46a741.76 741.76 0 0 0-6.7-11.4c-6.69-11.62-28.43-36.2-40.14-30.69-.72.36-1.32.96-1.8 1.56-1.79-1.8-3.7-2.76-4.65-2.76-1.32.12-1.8 1.44 0 8.76 1.43 5.63 5.25 14.98 7.64 18.94a469.68 469.68 0 0 0 9.44 23.75c2.99 6.95 5.5 12.94 6.22 15.94 2.74 11.27 17.2 51.2 19 55.04.47 1.2 3.1 4.44 7.16 9.12l-.24.12c.12.11 6.81 11.39 11.24 22.9.6 1.56 1.2 3.23 1.9 5.03 4.55 11.51 11.36 29.02 13.15 43.3 1.2 9.94 24.02 40.04 44.1 66.78 12.42 16.43 25.2 33.34 25.2 35.85 0 6.6-3.82 14.27-7.88 22.3l-.24.49c-4.18 8.15-10.76 35.25-11.11 36.45l2.03.48c.12-.24 6.93-28.06 10.87-35.97l.24-.48c4.18-8.28 8.12-16.07 8.12-23.27 0-3.11-9.2-15.46-25.57-37.17-19-25.06-42.53-56.36-43.73-65.7-1.79-14.52-8.72-32.14-13.26-43.78-.72-1.8-1.31-3.47-1.91-5.03a148.3 148.3 0 0 0-7.17-15.59c2.39 2.76 5.02 5.88 7.88 9.11 7.05 8.16 13.87 15.83 15.18 17.99 3.22 4.8 12.19 26.26 12.54 28.06h2.04c0-1.92-9.8-24.7-12.9-29.26-1.44-2.16-7.9-9.6-15.42-18.1-8.72-10.08-19.6-22.55-20.55-24.59-1.8-3.71-16.01-43.4-18.76-54.68-.84-3.11-3.23-8.87-6.33-16.19a384.85 384.85 0 0 1-8.49-21.1 3.9 3.9 0 0 0 2.75-2.52c.6-1.8-6.1-22.06-6.1-22.06a4.3 4.3 0 0 0-.83-1.2c.36-.48.72-.96 1.31-1.2 9.92-4.68 30.95 18.47 37.4 29.86 5.86 10.31 35.37 60.55 40.99 67.63 5.5 6.83 35.36 41 35.72 41.37l.24.24s8.25 4.8 18.52 11.03c4.3 2.64 9.8 6.71 15.18 10.8 7.52 5.63 14.7 11.02 18.4 12.1 4.66 1.32 11.47-.6 14.93-1.8l-2.5 13.31 2.02.36 2.04-10.9c.12 1.07.23 1.79.23 2.27 0 3.72 8.85 25.42 9.8 27.82l1.92-.84c-3.95-9.47-9.68-24.58-9.68-27.1 0-1.92-1.44-9.11-3.23-17.39-1.67-8.03-3.46-17.14-4.06-21.46-.48-4.44-1.2-8.76-1.8-12.95-.6-4.2-1.3-8.51-1.79-12.83-.12-.6-.12-1.44-.24-2.28-1.43-10.55-5.25-40.53 6.46-52.04-.6 8.63-.48 22.42 6.1 24.82 9.79 3.6 16 .24 17.67-3.84.48-1.08.36-3.95 0-7.67a119.93 119.93 0 0 1 3.59 16.79c.24 1.44.36 2.51.6 3.35.6 2.88 2.03 6.96 3.7 11.63 2.75 7.8 6.21 17.51 6.57 24.95.24 5.4 6.22 20.98 13.62 40.89 9.08 23.86 20.2 53.48 22.59 69.3 2.86 19.43-2.87 31.06-8.25 42.21-2.39 4.92-4.66 9.48-6.1 14.63-4.77 16.55-9.55 60.92-9.67 61.4l2.03.23c0-.47 4.9-44.6 9.56-61.03 1.43-4.92 3.58-9.47 5.97-14.27 5.26-11.15 11.36-23.5 8.37-43.65Zm-209.58-194.14c.72-2.52 4.42-16.43 6.45-19.9a422.58 422.58 0 0 1 13.86-21.35c.72.24 1.91.24 3.95-.48 5.61-2.04 17.32-14.03 18.87-17.03.36-.6.6-1.32.96-2.16.36.24.72.36 1.08.72 3.22 2.64 5.13 8.16 4.78 14.51-.48 10.44-8.01 24.7-12.9 31.78-4.31 6.23-10.88 44.37-12.67 55.04a6529.54 6529.54 0 0 1-24.38-41.13Zm26.17 43.77c2.15-13.31 6.21-36.22 9.68-48.57 2.86-2.64 5.85-5.15 8.6-7.43.96.24 2.63.36 5.85-1.08 5.14-2.16 16.73-11.03 19.12-13.55 2.63 4.44 3.1 16.3.48 20.98-3.1 5.4-21.5 19.9-21.63 20.15l-.24.24-.12.24-2.27 7.55c-1.55 4.92-11.1 24.34-13.86 29.98a213.32 213.32 0 0 1-5.61-8.51Z" fill="#C3A173"/><path d="M187.8 195.19a56.47 56.47 0 0 1-8.61 6.23c-1.55.96-3.1 1.8-4.78 2.4l-2.5.96a17 17 0 0 1-2.64.84l.48-.72c0 .36.24.84.48 1.08.24.24.72.36 1.2.36.95 0 2.02-.48 3.1-.84l6.57-2.52c1.2-.36 2.15-.84 3.47-1.08h.59c-.23-.12.24.24.24.12 0 0 .12.12.12.36 0 .12 0 .24-.12.24-.12.24-.24.24-.36.36l-.71.6-1.44 1.08-2.86 2.04-1.44 1.08c-.48.36-.95.72-1.2 1.32.25-.6.6-.96 1.08-1.44.36-.48.84-.84 1.32-1.2.83-.84 1.79-1.56 2.75-2.28l1.43-1.08.6-.6.24-.24s-.12.12 0 .24c0 .24.12.24.12.24s.47.36.23.12h-.12c-1.07.24-2.15.72-3.22 1.2l-6.57 2.64c-1.08.48-2.27 1.08-3.59 1.08-.72 0-1.55-.12-2.15-.72a3 3 0 0 1-.95-2.16v-.48l.6-.12c.71-.24 1.67-.48 2.38-.84l2.4-.96c1.66-.72 3.22-1.32 4.77-2.16 3.1-1.31 6.1-3.23 9.08-5.15Z" fill="#C3A173"/><path fill-rule="evenodd" clip-rule="evenodd" d="M396.18 261.74c0-.12.12-.24.12-.36 0 .12 0 .24-.12.36Zm.83-2.16c.12-.12.12-.36.24-.48-.12.24-.24.36-.24.48Zm14.1-3.48.12.12s0-.12-.12-.12Zm-14.21 11.87s0-.12-.13-.12c.12 0 .12 0 .12.12Zm-.13-.47s0-.13-.12-.13l.12.12Zm-.59-2.16v-.36c-.12.12-.12.24 0 .36Zm.24 1.2c0-.13-.12-.36-.12-.48 0 .12 0 .36.12.48Zm17.44-7.2s0 .12.12.12c0-.12 0-.12-.12-.12Zm-.48-.96.12.12c-.12 0-.12 0-.12-.12Zm.96 1.8s0 .12.12.12l-.12-.12Zm-1.55-2.52.11.12-.11-.12Zm-.96-.96.12.12c0-.12-.12-.12-.12-.12Zm.36.24.24.24c-.12-.12-.24-.12-.24-.24Zm-.72-.6.12.12-.12-.12Zm1.67 1.68.12.12c-.12 0-.12 0-.12-.12Zm-.59-.6.12.12c0-.12-.12-.12-.12-.12Zm-4.31 3.96c-.12-.12-.47-.12-.83 0s.12.72.12.72 1.07-.12 1.31-.24c.12-.24-.48-.36-.6-.48Z" fill="#C3A173"/><path fill-rule="evenodd" clip-rule="evenodd" d="M414.82 264.38c-.12-.12 0-.6-.24-.72a3.3 3.3 0 0 1-.6-.48l-.6.24-.48.84s.12.6.12.72c-.12.12-.6-.36-.71-.6l-.24-.48h-.36c-.12 0-.12-.36-.12-.36s.24-.24-.24-.12c-.6 0-.72.24-.84.12-.24-.12-.71-.48-.83-.36s.6.6.6.6.12-.24.35 0c.24.24.48.36.24.72s-.95.96-.95.96c-.12 0-.24-.36-.6-.48a.93.93 0 0 1-.48-.48c-.12-.36-.36-.72-.36-.72s-.12-.84-.24-.84-.71.12-.83.12 0-.24-.12-.36-.24-.12-.24 0 .12.48.12.48-.12.24-.36 0-.6-.72-.84-.84c-.12 0-.36 0-.36.12 0 0 .24.24.36.24.12.12.48.36.48.36v.24c-.12 0-.12-.24-.24-.24-.12-.12-.47-.36-.6-.48-.11-.12-.23-.12-.23-.12-.12 0-.24.12-.24.36 0 .12.36.24-.24.6s-.6.36-.6.24c-.12-.12-.24-.72-.12-.72 0 0 .6 0 .6-.24s-.24-.48-.24-.48c0-.12.48-.48.48-.72s.24-.36.36-.48 1.07-.36 1.07-.36-.12-.36.12-.6c.12-.24.48-.48.36-.48-.12-.12-.6.24-.6 0-.12-.24.36-.48.12-.96l-.24.24c-.12.12-.24.48-.24.72s.24.36 0 .6c-.12.12-.12.6-.24.6s-.35-.36-.35-.36-.12.48-.36.24c-.12-.12-.36-.36-.36-.6 0-.12.48-.6.48-.84s.12-.12.36-.6c.12-.48.24-.6.35-.6.12 0 .24-.36.48-.36.36 0 1.32.36 1.32.36s-.24.24-.48.24 0 .48.36.36.48-.24.48-.48-.12-.48.12-.48c.23 0 .11.24.35.24s-.24-.12.48-.24c.6 0 .36-.48.72-.6.24-.12.71 0 .71 0s-.23-.6-.23-.84c.11-.24.23-.24.35-.24.12 0 .48.24.24.6-.12.24-.12.36.12.6.24.12.6 0 .6 0s0-.24-.12-.36-.48-.12-.48-.12c0-.12.12-.12.24-.24s.24 0 .48.12a9.52 9.52 0 0 0-8.24-1.44 9.32 9.32 0 0 0-5.62 4.56.9.9 0 0 1 .48-.24c.24 0 .48-.36.6-.36.11 0 .35.36.35.24.12-.12.12-.36.48-.48s.6-.24 1.08-.36c.47-.12.71.24.71.24s.84-.36.84-.24-.36.72-.36.72v.24c0 .12.36.48.36.48l-.36.36c-.12.12.36.48.36.48s-.12.36-.24.48-.72.12-.72.12-.35.6-.47.6-.36 1.2-.36 1.2-1.08-.72-1.2-.96c-.12-.24.24-.36.12-.48 0-.12-.36.12-.48 0s.24-.24.24-.36c.12-.12-.24-.12-.36 0-.12 0-.23-.24-.35-.36a1.25 1.25 0 0 0-.6-.24c-.12 0-.6.12-.72 0-.12.36-.24.6-.36.96.12 0 .12.12.12.12h.6s.12.36.24.48c.12 0 .6.12.6.24s0 .24-.12.24-.36-.24-.36-.12c-.12.12.24.24.24.36s-.24.12-.24.12c0 .12-.12.24-.12.24l-.36-.12s-.48.12-.48 0 .36-.48.36-.72c0-.12-.36-.24-.48-.24-.12.84-.23 1.68-.23 2.52.23 0 .35.12.35.12.12.12.12.48.24.36s0-.48.12-.6.24-.12.12-.24-.24-.12-.24-.48.24-.6.36-.6.36.12.36.24 0 .36.24.24c.12-.12.24-.36.36-.24.24.12.24.36.6.6.35.12.6.24.47.36-.12.12-.12.36-.48.36s-.47.12-.6.36c-.11.24-.23.36 0 .24.25-.12.37-.36.48-.24.12 0 0 .24 0 .36 0 0 .24.12.24 0 .12 0 .24.12.12.24s-.24.12-.24.24-.24-.24-.36-.12c-.11 0-.23.36-.35.6-.12.23-.24.35-.24.6 0 .24.12.47.12.6-.12.11-.36.11-.24.47.12.24.24.6.12.6s-.12.12-.24 0-.12-.36-.48-.36c.12.24.24.6.48.84.12-.12.6-.36.83-.24.24 0 .24.48.24.48s-.35-.12-.71 0h-.36l1.07 1.44c.24-.48 1.08-.36 1.56-.12s.71.12.71.12.36.24.48.72c.12.36.72.12 1.44.12.71 0 .35.72.12 1.08-.12.36.12.36.12.84a9.46 9.46 0 0 0 12.19-8.87c-.49-.72-.6-.6-.72-.6Zm-6.46-8.04c0-.12.36-.36.48-.6.12-.36.48-.72.6-.6s0 .36 0 .36-.6.48-.6.6 0 .48-.12.6-.36-.12-.36-.36Zm-3.34-.72h.48c.24 0 .35.12.24.24-.13.12-.72.12-.72-.24Zm0 .36s.48.24.48.36c-.12.12-.36 0-.48.12s-.36.24-.48-.12c-.24-.36-.24-.48-.24-.48-.12 0 .72.12.72.12Zm-5.86 13.2h-.6s.13-.25.36-.25c.24.12.24.24.24.24Zm.12-4.32c-.12-.12-.36 0-.47-.12-.13-.12.47-.36.47-.36l.24.24.24.24c-.12.24-.36.12-.48 0Zm4.3-4.92s.12.36.24.48c.12.24.72.72.6.84-.12-.12-.48 0-.72 0s0-.36 0-.48-.24-.36-.24-.36l.12-.48Zm-.35 1.2c0-.12.23-.24.23-.24l.24.24c.12.12 0 .24 0 .24l-.24.12c-.23-.12-.35-.24-.23-.36Zm-.84.24c-.12.12-.48 0-.6 0-.24 0-.24-.24-.24-.24h.96c0-.12-.12.24-.12.24Zm8.84 8.03s0 .24-.12.6 0 .36 0 .48-.12.24-.24.12 0-.36 0-.48-.12-.48-.12-.6.24-.24.24-.24l-.12-.48c0-.36.36-.12.36-.12v.72Zm-.72-3.24c0 .13-.71 1.44-.71 1.68s.36 1.32.36 1.32l-.36.6s.12.48.12.6-.36 1.32-.6 1.56-.48.24-.72.24-.24-.48-.24-.6-1.07-1.44-1.07-1.56c0-.12.12-.36.12-.48s-.48-.84-.48-.96a3.04 3.04 0 0 1-.24-.84h-.24c-.12 0-.48-.24-.48-.24s-.24 0-.36.12c-.11.12-.11.36-.11.36l-.6.12-1.08-.95-.36-1.2.48-.72s-.12-.48.12-.72c.12-.24.12-.24.48-.36.24-.12.36-.24.36-.24l.84-.24.11.48s.6.12.72.12 0-.24.12-.24c0-.12 1.55-.24 1.55-.24l.12.72s.36.36.48.6c.24.24.48.84.6.96s.95-.36.95-.36.12.24.12.48Z" fill="#C3A173"/><path fill-rule="evenodd" clip-rule="evenodd" d="M401.55 272.53c-.12-.12-.24-.12-.48-.24.24.12.36.24.48.24Zm.72.36c-.24-.12-.36-.12-.48-.24.12 0 .24.12.48.24Zm-1.79-.96c-.12-.12-.24-.24-.36-.24 0 .12.12.12.36.24Zm14.46-9.71v-.12c-.12 0 0 0 0 .12Zm-15.06 9.35c-.12-.12-.36-.24-.48-.36.24.12.36.24.48.36Zm.6.48a.9.9 0 0 0 .48.24c-.12-.12-.24-.24-.48-.24Zm-67.28-209-.83-5.16-.84 5.16-5.37 1.44 5.37 1.56.84 7.43.84-7.43 5.37-1.56-5.37-1.44Zm-53.4-30.22-.72-4.08-.6 4.08-4.3 1.2 4.3 1.32.6 5.87.72-5.87 4.3-1.32-4.3-1.2Z" fill="#C3A173"/><path d="M434.17 224.33c-.83 0-1.9-.12-3.34-.12-1.32 0-2.99-.12-4.66-.12h-4.3l.71-.72 1.44-1.44 2.5-2.52c1.44-1.56 2.4-2.64 2.4-2.64s-1.08.84-2.63 2.28c-.84.72-1.68 1.56-2.63 2.4-.48.48-.96.84-1.44 1.32-.24.24-.6.48-.83.72v-4.44c0-1.68-.12-3.36-.12-4.68 0-1.31-.12-2.51-.12-3.35a6 6 0 0 0-.12-1.32s0 .48-.12 1.32c0 .84-.12 1.91-.12 3.35 0 1.32-.12 3-.12 4.68v4.32l-.72-.72-1.43-1.44c-.96-.96-1.8-1.8-2.5-2.52-1.56-1.44-2.64-2.4-2.64-2.4s.84 1.08 2.27 2.64c.72.84 1.56 1.68 2.4 2.64.47.48.83.96 1.3 1.44.25.24.48.6.72.84h-4.42c-1.67 0-3.34.12-4.66.12-1.31 0-2.5.12-3.34.12a6 6 0 0 0-1.32.12s.48 0 1.32.12c.83 0 1.9.12 3.34.12 1.32 0 2.99.12 4.66.12h4.3l-.71.72-1.44 1.44-2.5 2.51a211.68 211.68 0 0 0-2.4 2.64s1.08-.84 2.63-2.28c.84-.72 1.68-1.56 2.63-2.4.48-.47.96-.83 1.44-1.31.23-.24.6-.48.83-.72v4.43c0 1.68.12 3.36.12 4.68 0 1.32.12 2.52.12 3.36 0 .84.12 1.32.12 1.32s0-.48.12-1.32c0-.84.12-1.92.12-3.36 0-1.32.12-3 .12-4.68v-4.31l.72.72 1.43 1.43c.95.96 1.8 1.8 2.5 2.52a218.7 218.7 0 0 0 2.64 2.4s-.84-1.08-2.27-2.64c-.72-.84-1.56-1.68-2.4-2.63-.47-.49-.83-.97-1.3-1.44-.25-.24-.49-.6-.72-.84h4.42c1.67 0 3.34-.12 4.66-.12 1.31 0 2.5-.12 3.34-.12a6 6 0 0 0 1.32-.12s-.48 0-1.32-.12Zm-70.02-154.09a6.13 6.13 0 0 0-6.09 6.12 6.13 6.13 0 0 0 6.1 6.11v-12.23Z" fill="#C3A173"/><path d="M364.15 70.24c3.35 0 6.1 2.76 6.1 6.12a6.13 6.13 0 0 1-6.1 6.11v-12.23Z" fill="#FFDED8"/><path fill-rule="evenodd" clip-rule="evenodd" d="m354.71 38.59-.35-2.16-.36 2.16-2.27.6 2.27.72.36 3 .35-3 2.16-.72-2.16-.6Zm12.43 7.55-.24-1.56-.24 1.56-1.55.48 1.55.48.24 2.16.24-2.16 1.67-.48-1.67-.48Zm-3.22-17.27-.48-2.87-.36 2.87-3.1.84 3.1.84.36 4.08.48-4.08 2.98-.84-2.98-.84Zm45.04 16.91-.83-4.32-.6 4.32-4.54 1.44 4.54 1.2.83 6.35.6-6.35 4.54-1.44-4.54-1.2Z" fill="#C3A173"/><path d="m375.74 240.03 5.98 4.32-4.42-5.63 7.05-1.08-7.3-1.32 4.31-6-5.86 4.44-.95-7.2-1.08 7.32-6.09-4.56 4.66 6.24-8 .96 7.76 1.2-4.66 6.11 6.21-4.68 1.32 7.2 1.07-7.31Zm6.34-2.51-4.9.72v.12l-.72-.96.6-.84 5.02.96Zm-7.3-7.32.6 4.68h.13l-.96.72-.6-.48.84-4.92Zm-2.74 8.16-5.14-.84 5.38-.72v-.24l.6.72-.84 1.08Zm1.31-.84-3.94-5.28 5.14 3.84 5.14-3.84-3.83 5.28 3.95 5.15-5.14-3.71-5.5 4.07 4.18-5.51Zm1.44 1.8.83.6h-.12l-.71 5.15-.96-5.03.96-.72Zm-93.56-160.68c-.72-.72-1.67-1.8-2.87-3.12-1.2-1.32-2.63-2.76-4.18-4.32-.72-.84-1.55-1.56-2.39-2.4l-1.55-1.56h3.82c1.67 0 3.23 0 4.54-.12 2.63-.12 4.42-.24 4.42-.24s-1.79-.23-4.42-.35c-1.31-.12-2.87-.12-4.54-.24-.83 0-1.67-.12-2.5-.12h-1.44c.48-.6 1.07-1.08 1.55-1.68.84-.84 1.56-1.68 2.4-2.4 1.55-1.56 2.86-3.12 4.05-4.44 1.2-1.32 2.15-2.4 2.87-3.12.72-.72 1.08-1.2 1.08-1.2s-.48.36-1.2 1.08c-.72.72-1.79 1.68-3.1 2.88-1.32 1.2-2.75 2.64-4.3 4.2-.84.72-1.56 1.56-2.4 2.4l-1.55 1.56v-3.84c0-1.68 0-3.24-.12-4.56-.12-2.64-.24-4.43-.24-4.43s-.24 1.8-.36 4.43c-.12 1.32-.12 2.88-.24 4.56 0 .84-.11 1.68-.11 2.52v1.44c-.6-.48-1.08-1.08-1.68-1.56-.83-.84-1.67-1.56-2.39-2.4-1.55-1.56-3.1-2.88-4.42-4.08-1.31-1.2-2.39-2.16-3.1-2.88-.72-.72-1.2-1.08-1.2-1.08s.36.48 1.08 1.2c.71.72 1.67 1.8 2.86 3.12 1.2 1.32 2.63 2.76 4.19 4.32.71.84 1.55 1.56 2.38 2.4l1.56 1.56h-3.82c-1.68 0-3.23 0-4.55.12-2.62.12-4.42.24-4.42.24s1.8.23 4.43.35c1.3.12 2.86.12 4.53.24.84 0 1.68.12 2.51.12h1.44c-.48.6-1.08 1.08-1.56 1.68-.83.84-1.55 1.68-2.39 2.4-1.55 1.56-2.86 3.12-4.06 4.44-1.2 1.32-2.15 2.4-2.86 3.12-.72.72-1.08 1.2-1.08 1.2s.48-.36 1.2-1.08c.71-.72 1.79-1.68 3.1-2.88s2.75-2.64 4.3-4.2c.84-.72 1.56-1.56 2.4-2.4l1.55-1.56v3.84c0 1.68 0 3.24.12 4.56.12 2.64.23 4.43.23 4.43s.24-1.8.36-4.43c.12-1.32.12-2.88.24-4.56 0-.84.12-1.68.12-2.52v-1.44c.6.48 1.08 1.08 1.67 1.56.84.84 1.68 1.56 2.4 2.4 1.55 1.56 3.1 2.88 4.42 4.08 1.3 1.2 2.38 2.16 3.1 2.88.72.72 1.2 1.08 1.2 1.08s-.36-.48-1.08-1.2Zm174.21 72.54-.24.24c.12 0 .24-.12.24-.24Z" fill="#C3A173"/><path d="M464.28 142.79c.12-.12.12-.24 0-.24-.12-.12-.24-.12-.35-.12-.6 0-1.08.12-1.68.12l-1.55.36c-.12 0-.24 0-.36.12-.96.12-1.91.36-2.87.6.84-.24 1.67-.36 2.51-.6-.24 0-.48.12-.6.12-.35.12-.83.24-1.2.36-.23 0-.35.12-.59.12l2.87-.72c.12 0 .12 0 .24-.12h.24c.48-.12.95-.24 1.31-.24.48-.12 1.08-.12 1.68-.12.11 0 .23 0 .35.12v.24c-.12 0-.12 0 0 0h-.12c-.24.24-.47.36-.6.48-.35.24-.83.48-1.3.72h-.13c-.95.48-2.03.96-2.99 1.32-.35.12-.71.36-1.19.48a4.2 4.2 0 0 0-1.07.47h-.24c-.6.25-1.32.49-1.92.73h-.24c-.47.23-.95.35-1.43.6h-.12c-.12 0-.24.11-.48.11-.12 0-.24.12-.35.12-1.8.6-3.59 1.32-5.38 1.92-.24.12-.48.12-.72.24l-1.07.36c-1.44.48-3 .96-4.43 1.44h-.23c-2.03.6-4.07 1.2-6.1 1.68h-.36c-.12 0-.35.12-.47.12h-.72c-.24 0-.48.12-.84.12h-.71s0-.12.12-.12l.23-.24c.24-.12.48-.24.72-.48l1.44-.72-.24.24-.12.12v.24c.12.12.12.12.24.12h1.55l1.43-.36c1.32-.36 2.51-.6 3.83-1.08h.24l1.07-.36c1.67-.48 3.35-1.08 5.02-1.56 1.67-.6 3.34-1.2 4.9-1.8 1.2-.47 2.27-.83 3.46-1.31h.24c.36-.13.84-.36 1.2-.48.12 0 .24-.12.36-.12.35-.12.71-.24.95-.48.24-.12.6-.24.84-.36.83-.36 1.55-.72 2.39-1.2.24-.12.36-.24.48-.36v-.36c-.12-.12-.24-.12-.36-.12-.48 0-.84.12-1.32.12l-1.43.36h-.12c-.36.12-.6.12-.96.24.36-.12.72-.12 1.08-.24.48-.12 1.07-.12 1.55-.24h1.44c-.12.12-.36.24-.48.36-.72.48-1.56.84-2.4 1.2-.23.12-.59.24-.83.36l-.36-1.08c-.12-.24-.24-.6-.36-.84s-.23-.36-.35-.6v-.24c0 .12.12.12.12.24.12.12.12.24.24.36 0 0 0 .12.11.12.12.24.24.6.36.84.12.36.24.72.24 1.08-.36.12-.71.36-1.07.48-.12-.12-.24-.12-.36-.12h-.36a2.5 2.5 0 0 0-.72.48l-.24.24a246.1 246.1 0 0 1-8.6 3.11c-1.67.6-3.35 1.08-5.02 1.56l-1.07.36c-.12-.36-.36-.72-.48-1.08.36-.24.72-.48 1.07-.6.24-.12.48-.24.6-.24.24-.12.48-.12.6-.12h.12v.12c0 .12-.12.24-.12.36l-.12.12c0 .12 0 .12-.12.24v.12h.24c.12 0 .12 0 .12-.12.48-.24.83-.48 1.2-.72l1.19-.84c.24-.12.36-.24.6-.36.12 0 .24-.12.35-.12.12 0 .24-.12.24 0v.12c0 .12.12.24.24.36s.36.12.48 0c.12 0 .24-.12.36-.12.48-.24.83-.6 1.2-.84l1.07-.96c.36-.23.72-.6 1.2-.83.23-.12.47-.24.6-.24.23-.12.47-.12.7-.12h.72c.12 0 .24 0 .36-.12.12 0 .24-.12.36-.12.24-.12.36-.36.48-.6s.24-.48.24-.72c.12-.48.24-.96.48-1.32.12-.12.12-.24.24-.24.12-.12.24-.12.35-.12.12 0 .24 0 .36.12l.24.24c.12.12.12.24.24.24.12.12.24 0 .36 0l.24-.24.24-.24c0-.12-.12-.24-.24-.48a.26.26 0 0 0-.24-.24c-.12-.12-.12-.24-.24-.36s-.12-.24-.24-.36l-.12-.12-.12-.12c-.12-.12-.24-.24-.24-.36l-.47-.48.12-.12-.13-.12c-.6-.48-1.3-.96-1.9-1.32h-.25a7.16 7.16 0 0 0-3.22-.84 9.79 9.79 0 0 0-4.42.72c-.24.12-.36.12-.6.24s-.36.12-.6.24c-.36.24-.71.36-1.07.72a6.4 6.4 0 0 0-1.8 1.8c-.12.12-.23.36-.35.48-.12.24-.24.36-.36.6l-.12.24-.12.36c-.12.24-.24.36-.24.6-.36.84-.48 1.8-.6 2.64-.12.96 0 1.8.12 2.75 0 .12.12.24.12.36-.95.36-2.03.84-2.99 1.2-.95.48-2.03.84-2.98 1.32l-1.44.72c-.24.12-.48.24-.71.48-.12.12-.24.12-.36.24 0 .12-.12.12-.12.24v.12l.12.12c.12.12.36 0 .48.12h.47c.24 0 .48 0 .72-.12l-.36.36c-.24.24-.36.48-.48.72-.12.12-.12.36-.12.48v.24s.12.12.12.24c.24.24.6.24.84.24h.84c.6 0 1.2-.12 1.67-.12a32.7 32.7 0 0 0 3.35-.6c1.07-.24 2.15-.6 3.34-.84.24-.12.48-.12.72-.24 0 0 .12.12.24.12l.12.12c.24.24.6.48.95.6l1.44.72c.47.12.95.24 1.31.36.24 0 .48.12.72.12h2.03c.83-.12 1.67-.24 2.5-.6.37-.12.72-.36 1.08-.48.24-.12.36-.24.48-.36s.36-.24.48-.36a9.37 9.37 0 0 0 2.87-3.36c.36-.72.6-1.44.71-2.04v-.12c0-.24.12-.36.12-.6v-.24c.96-.47 1.91-.95 2.87-1.55.96-.6 1.91-1.2 2.87-1.92a5.7 5.7 0 0 0 1.2-1.2c.11-.12.11-.24.11-.36v-.24c0-.12 0-.12-.12-.24.6.72.36.72.12.6Zm.6.48c.12.24 0 .48-.12.72-.36.48-.72.84-1.2 1.2a14.4 14.4 0 0 1-2.86 1.8c-.96.47-1.8.95-2.75 1.43-.84.48-1.67.84-2.63 1.2-.24.12-.48.24-.6.24-.24.12-.47.24-.83.36l-5.38 2.16-3.22 1.08h-.24c-.36.12-.6.24-.96.24-.12 0-.24.12-.24.12-.12 0-.12 0-.24.12-.24.12-.48.12-.72.24h-.23c-.24 0-.36.12-.6.12-1.08.36-2.15.6-3.35.84-1.07.24-2.27.48-3.34.6-.6.12-1.08.12-1.68.12h-.83c-.24 0-.6-.12-.72-.24v-.24c0-.12 0-.24.12-.36.12-.24.24-.48.48-.6.24-.24.48-.48.72-.6.24 0 .47-.12.71-.12 0 .12-.12.24-.12.36v.24c0 .12.12.12.12.24.24.24.48.24.72.24.48.12.96 0 1.43 0 .48 0 .96-.12 1.32-.12 1.55-.24 2.99-.6 4.54-1.08h.24c.12 0 .36-.12.47-.12a64.5 64.5 0 0 0 5.14-1.68c1.68-.6 3.35-1.32 5.02-2.04a61.8 61.8 0 0 0 4.9-2.4c.12 0 .24-.12.36-.24.72-.35 1.31-.72 2.03-1.2a6.5 6.5 0 0 0 1.08-.83c.35-.24.71-.6.95-.96l.12-.12 1.44-.72c.23-.12.47-.24.71-.48l.12-.12c-.24.24 0 .36.12.6Zm-10.87 11.63c-.12.12-.36.24-.48.36s-.36.24-.48.36c-.36.12-.72.36-1.07.48-.72.36-1.56.48-2.51.6h-1.92c-.23 0-.47 0-.6-.12-.35-.12-.83-.24-1.19-.36a8.58 8.58 0 0 1 2.4-1.08c.11 0 .23-.12.35-.12-.36.24-.72.36-1.07.72l-.12.12v.24h.47l.72-.36c.48-.24.84-.48 1.31-.72l1.2-.72.6-.36-.6.48c-.36.36-.72.6-1.07.96v.36h.23c.12 0 .24-.12.36-.24.24-.12.36-.24.6-.36l1.2-.84a27.4 27.4 0 0 1 2.38-1.56c.48-.24.84-.48 1.32-.6.48-.12.83-.36 1.2-.6a12.34 12.34 0 0 1-3.23 3.36Zm-8.25-.72c-.12.12-.24.12-.47.24h-.13v-.48c.6-.24 1.32-.48 1.92-.72-.12.12-.24.12-.48.24-.24.24-.6.48-.84.72Zm4.3-2.04c1.08-.48 2.15-.84 3.23-1.32-.84.6-1.55 1.32-2.39 1.92-.36.24-.6.48-.95.6a.9.9 0 0 1-.48.24c-.12 0-.12.12-.24.12h-.24l.12-.12.24-.24.36-.36c.12-.12.24-.24.35-.48 0 0 0-.12.12-.12v-.24h-.12Zm-6.93 2.4-.12.12-.12-.12c0 .12.13 0 .24 0Zm14.7-5.76c-.12 0-.12 0-.24.12-.12 0-.12.12-.24.12l-.36.36c-.24.24-.35.48-.6.72-.35.36-.71.84-1.07 1.2l.12-.12c.12 0 .12-.12.12-.12.24-.24.48-.6.72-.84s.36-.48.6-.72l.35-.36s.12-.12.24-.12c.24-.24.24-.24.36-.24a7.59 7.59 0 0 1-.95 2.76 5.6 5.6 0 0 1-1.2.6c-.48.12-.96.36-1.31.6-.84.48-1.68.96-2.4 1.56l-1.19.84c-.24.12-.36.24-.6.36-.12.12-.24.12-.36.12.24-.36.72-.6 1.08-.96l.6-.48.24-.24c.12-.12.24-.12.24-.24v-.24h-.24l-.12.12-.36.12-.6.36-1.31.72c-.48.24-.84.48-1.32.72-.24.12-.47.24-.6.24h-.11l.12-.12c.35-.24.71-.48 1.19-.72.12-.12.24-.12.36-.24l.12-.12v-.24h-.48c-.24 0-.48.12-.72.12-.95.24-1.79.72-2.5 1.2-.13-.12-.36-.12-.48-.24 0 0-.12 0-.12-.12-.12-.12-.36-.12-.48-.24-.12 0-.12-.12-.24-.12s-.12-.12-.24-.12c-.24-.12-.36-.24-.6-.36.12-.12.36-.24.48-.48.48-.12.84-.24 1.32-.48v.24c0 .12 0 .24.12.36l.12.12h.11c.24 0 .36-.12.48-.24.24-.24.6-.48.84-.72.36-.24.6-.36.95-.6.12-.12.36-.12.48-.24h.12l1.08-.36c.12 0 .24-.12.47-.12h.24s0 .12-.12.24-.23.24-.35.48l-.36.36-.24.24-.12.12v.24h.36c.12 0 .12-.12.24-.12.12-.12.35-.12.47-.24.36-.24.6-.36.96-.6.84-.6 1.67-1.32 2.51-1.92.48-.24.84-.36 1.31-.6.12-.12.36-.12.48-.24l-.12.36c-.12.24-.24.36-.24.6 0 .12-.12.24-.12.36v.48h.24s.12 0 .12-.12c0 0 .12 0 .12-.12a.9.9 0 0 1-.48.24h-.12s-.12 0-.12-.12v-.36c.13-.36.24-.72.48-1.08l.12-.36c.96-.12 1.91-.6 2.75-.96Zm-17.09 3.36c1.44-.48 2.87-.84 4.19-1.32 0 .12-.12.24 0 .36v.36c0 .24 0 .48-.24.6l-.12.12s-.12 0-.12.12c-.12 0-.24.12-.36.12-.48.12-1.07.12-1.55.12s-.96 0-1.44-.12l-.12-.24-.24-.12Zm5.26-1.68h.24v.12c0 .12-.12.24-.12.48 0 .12.12.24.12.24.12 0 .12.12.24.12h.84c.24 0 .47-.12.83-.12.48-.12.96-.36 1.44-.6.47-.24.83-.6 1.31-.96.36-.36.84-.72 1.2-1.08l.35-.36c.24-.12.36-.12.6-.24v.12c-.12.24-.36.36-.6.48l-.12.12-.12.12v.24s.12 0 .12.12h.36c.24 0 .6-.12.72-.24.24-.12.48-.36.6-.6.24-.24.48-.6.6-.84.71-.24 1.3-.48 2.03-.84v.13h.12c.12 0 .12 0 .23-.13.12 0 .24-.12.36-.24.24-.12.48-.24.6-.35 0 .35.12.72.12 1.07-.12.12-.24.12-.36.24a74.37 74.37 0 0 1-10.04 4.32 85.2 85.2 0 0 1-5.13 1.68c-.24 0-.36.12-.6.12a3.16 3.16 0 0 1-.6-.72h1.32c.47 0 1.07 0 1.55-.12.12 0 .24-.12.36-.12s.12 0 .24-.12l.24-.12.12-.12c0-.12.12-.12.12-.24v-.48c0-.24-.13-.48 0-.72 0-.12.11-.12.11-.12.12 0 .36-.12.6-.24Zm.84-.24c1.67-.6 3.34-1.2 4.9-1.8-.36.36-.72.72-1.2 1.08-.36.36-.83.6-1.31.96a7.3 7.3 0 0 1-1.44.6c-.24.12-.47.12-.71.12h-.72c-.12 0-.24-.12-.24-.12 0-.12 0-.24.12-.36 0-.12.12-.12 0-.24.24-.12.48-.24.6-.24Zm7.53-2.64c-.12.24-.36.48-.48.72-.36.36-.72.72-1.32.72h-.36l.12-.12c.24-.12.36-.36.6-.6 0 0 .12-.12.12-.24.48-.24.84-.36 1.32-.48Zm7.64-3.35c-.36.48-.6.72-.95 1.08a6.6 6.6 0 0 0-1.08.84c-.6.35-1.31.84-1.91 1.2 0-.36 0-.72-.12-1.09.36-.11.84-.35 1.2-.47.95-.6 1.9-1.08 2.86-1.56Zm-4.78 2.28c-.12.12-.24.12-.36.12 0 0-.12 0-.12.12v-.13c.36-.12.72-.24.96-.36-.24 0-.36.13-.48.25Zm-16.6 6.11.11.24c.24.24.48.6.72.84-1.43.36-2.99.72-4.42.96-.48.12-.96.12-1.31.12h-1.32a.91.91 0 0 1-.6-.24s0-.12-.12-.12v-.12c0-.12 0-.24.12-.24l.12-.12h.24c2.03-.48 4.19-1.08 6.22-1.68.12.12.24.24.24.36Zm-4.3 0c-.37.12-.72.12-1.08.24.6-.36 1.2-.84 1.79-1.2.84-.48 1.55-.84 2.39-1.32v.12c.12.36.24.72.48 1.08-1.08.48-2.27.72-3.59 1.08Zm-2.87.48h-.24s0-.12.12-.12l.24-.24a4.6 4.6 0 0 1 1.07-.6c.84-.36 1.55-.72 2.39-1.08.84-.36 1.55-.72 2.39-.96v.12h-.12a23.6 23.6 0 0 0-2.99 1.56c-.71.36-1.43.84-2.15 1.32h-.71Zm22.46-7.2c.12 0 .24-.11.36 0h.24c-.12 0-.24.13-.24.13-.36.12-.6.23-.96.35.12-.12.36-.35.6-.47Zm4.18-2.51c-.48 0-.84.12-1.31.12.35-.12.83-.12 1.2-.24.47-.12.83-.12 1.3-.12.13 0 .25 0 .36.12.12 0 0 .12 0 .24h-.11a2 2 0 0 0-1.44-.12Zm-4.78-2.64.36.36.36.36c.12.12.24.24.24.36.12.12.12.24.24.36.12.24.24.36.24.48l-.24.24-.24.24c-.12.12-.24.12-.36 0s-.12-.24-.24-.24c-.12-.12-.12-.24-.24-.24-.12-.12-.24-.12-.36-.12s-.24 0-.36.12-.24.12-.24.24c-.23.36-.35.84-.6 1.32-.11.48-.35.96-.7 1.2a.91.91 0 0 1-.6.24h-.72c-.24 0-.48 0-.72.12s-.48.12-.72.24c-.48.23-.83.47-1.2.84l-1.07.95c-.36.24-.71.6-1.2.84-.11 0-.23.12-.35.12h-.24c-.12 0-.12-.12-.12-.24v-.12l-.12-.12h-.48c-.12 0-.24.12-.35.12-.24.12-.36.24-.6.36l-1.2.84c-.36.24-.83.48-1.2.72h-.11l.12-.12c0-.12.12-.24.12-.36v-.24c0-.12-.12-.12-.24-.12h-.36c-.12 0-.24.12-.36.12-.24.12-.48.24-.72.24-.35.24-.71.36-1.07.6 0-.12-.12-.36-.12-.48l.12-.24-.12.12c0-.12-.12-.24-.12-.36-.12-.36-.12-.72-.12-1.08 0 0 .12 0 .12.12h.24c.12 0 .36.12.48 0h.36l.12-.12v-.12c0 .12-.13.12-.13.24-.11 0-.11.12-.23.12h-.72c-.12 0-.24-.12-.36-.12 0 0-.12 0-.12-.12-.12-1.31 0-2.75.48-3.95l.12-.12c.24-.12.36-.24.6-.36s.6-.12.83 0c.12 0 .12.12.12.12v.24c0 .12-.12.24-.12.36-.12.12-.12.24-.24.36 0 .12-.12.12-.12.24s-.12.12 0 .24l.12.12h.36c.12 0 .24-.12.36-.12.24-.12.48-.36.72-.48.48-.36.83-.84 1.2-1.2.35-.36.83-.84 1.3-1.08.13-.12.25-.12.37-.24h.12v.12c-.13.24-.36.48-.48.72l-.6.72c-.12.12-.24.24-.24.36 0 0-.12.12-.12.24s-.12.12-.12.24c0 0 0 .12.12.12h.12c.12 0 .12-.12.24-.12.12-.12.24-.12.36-.24.24-.12.48-.36.72-.48.47-.36.83-.84 1.19-1.32a2.5 2.5 0 0 1 1.31-.96c.48-.24 1.08-.24 1.68-.36.6-.12 1.2-.12 1.79-.24.12 0 .24-.12.48-.12.12-.12.24-.12.36-.24l.11-.12s.12-.12.12-.24v-.24h-.35c-.36 0-.6.12-.84.12s-.6.12-.84 0c-.12 0-.24-.12-.24-.12v-.12l.12-.12c.24-.12.48-.24.84-.24.6-.12 1.08-.12 1.67-.12.6.36 1.32.72 1.8 1.2-.24.36-.6.6-.96.96s-.72.6-1.08.96c-.35.36-.71.6-1.07.96-.36.24-.72.6-1.2.84-.24.12-.36.24-.6.36l.13-.12.47-.48c.12-.12.12-.24.12-.36s-.12-.12-.12-.24h-.24c-.23 0-.47.12-.71.24s-.36.24-.6.36c-.36.24-.72.6-1.07.96-.72.6-1.32 1.31-2.16 1.91-.23.12-.35.24-.6.36-.23.12-.47.24-.71.24-.12 0-.24-.12-.36-.12l-.12-.12.12-.12c.24-.12.48-.24.6-.36s.24-.12.24-.23v-.37a.26.26 0 0 0-.24-.24c-.12-.12-.24-.12-.36-.12-.24 0-.48.13-.72.25s-.47.24-.6.36c-.35.23-.83.47-1.19.83l-.12.12-.24.24-.12.12s0 .12-.12.12l-.12.12v.24-.24l.24-.24.48-.48c.36-.36.72-.6 1.2-.83.23-.13.35-.25.6-.37.23-.12.47-.12.71-.12.12 0 .24 0 .36.13.12 0 .12.12.24.24 0 .12.12.24 0 .35 0 .13-.12.24-.24.24-.24.12-.36.24-.6.36l-.12.12c0 .12 0 .12.12.12.12.12.24.12.36.12.24 0 .48-.12.72-.24s.36-.24.6-.36c.71-.6 1.43-1.2 2.14-1.91.36-.36.72-.6 1.08-.96.24-.12.36-.24.6-.36s.48-.24.6-.24.23 0 .23.12-.12.24-.12.24l-.47.48-.24.24c0 .12.12 0 .12 0h.24l.12-.12a15.77 15.77 0 0 0 2.86-2.04c.72-.6 1.44-1.2 2.04-2.04.35-.48.47-.36.71-.12Zm-15.41 3.24c.12-.24.12-.36.24-.6l.12-.36.12-.24c.12-.24.24-.36.35-.6.12-.12.24-.36.36-.48a6.4 6.4 0 0 1 1.8-1.8c.35-.24.71-.48.95-.72a.9.9 0 0 1 .48-.24c.24-.12.36-.24.6-.24a9.31 9.31 0 0 1 7.52.12c-.47 0-.95 0-1.43.12-.24 0-.6.12-.84.24-.12 0-.12.12-.24.24v.24c0 .12.12.24.12.24.12 0 .12.12.24.12h.96c.24 0 .6-.12.84-.12h.23l-.12.12-.11.12c-.24.24-.36.36-.72.36-.6.12-1.08.24-1.67.24-.6.12-1.2.12-1.8.36-.6.24-1.07.6-1.43 1.08-.36.48-.72.84-1.2 1.32a2.5 2.5 0 0 1-.71.48c-.12.12-.24.12-.36.24-.12 0-.12.12-.24.12v-.12l.12-.12c.12-.12.12-.24.24-.36l.6-.72c.24-.24.36-.48.47-.72v-.24l-.11-.12h-.24c-.12 0-.24.12-.36.24-.48.24-.96.72-1.32 1.08-.36.48-.71.84-1.2 1.2-.23.24-.47.36-.7.48-.13.12-.25.12-.37.12h-.36c0-.12.12-.24.12-.36.12-.12.12-.24.24-.36s.12-.24.12-.36v-.24c0-.12-.12-.12-.12-.12-.24-.12-.6 0-.83 0 0 .12-.24.24-.36.36Zm-109.57-120.15c.36.36.84.72 1.08 1.2.23.48.35.96.35 1.44 0 1.07-.6 2.03-1.2 2.87a9.73 9.73 0 0 1-2.26 2.16 24.68 24.68 0 0 1-5.38 3.24 34.8 34.8 0 0 1-5.85 2.28 56 56 0 0 1-6.1 1.44c-2.03.36-4.18.48-6.21.36a27.83 27.83 0 0 1-3.1-.48 5.7 5.7 0 0 1-2.64-1.44c-.35-.36-.6-.84-.71-1.32a2.94 2.94 0 0 1 0-1.44 6.3 6.3 0 0 1 1.31-2.28v.72c.12.36.24.84.48 1.08.48.6 1.2 1.08 1.91 1.32.72.24 1.55.48 2.27.6s1.56.12 2.4.12c1.54 0 3.1-.12 4.65-.48a31.2 31.2 0 0 0 4.54-1.08c1.44-.48 2.99-.96 4.3-1.68 1.44-.6 2.75-1.44 4.07-2.28l1.79-1.44a7.67 7.67 0 0 0 1.55-1.8c.36-.6.72-1.43.72-2.15 0-.36-.12-.72-.36-1.08a2.8 2.8 0 0 0-.84-.84c.36.24.6.48.72.84.24.36.36.72.36 1.08 0 .84-.36 1.56-.72 2.15-.48.6-.95 1.2-1.55 1.68l-1.8 1.44c-.47.36-.95.6-1.43.84a16.7 16.7 0 0 0 2.15-1.44c.12-.12.36-.24.48-.36.24-.12.48-.36.6-.48l.12-.12c-.12-.24-.12-.48-.24-.72l-.36-.72v-1.07l-.48-.72-.12-.12-.12-.36c-.12-.24-.36-.48-.47-.6a10.88 10.88 0 0 0-2.51-2.16c-.96-.6-2.04-1.08-3.11-1.44a10.77 10.77 0 0 0-3.35-.48c-1.2 0-2.27.24-3.34.48-1.08.36-2.15.84-2.99 1.44h-.12l-.6.36-.47.48-.48.48-.48.48c0 .12-.12.12-.12.24l-.12.12-.12.12v.12s0 .12-.12.12c0 .12-.12.12-.12.24 0 0 0 .12-.12.12l-.23.36-.24.36-.36.72-.36.71c-.36.96-.72 2.04-.84 3-.24.48-.24.96-.24 1.44v1.44c.12.72.24 1.44.48 2.04-.72-.12-1.31-.24-2.03-.48a5.2 5.2 0 0 1-1.91-1.2c-.24-.24-.36-.6-.48-.96s0-.72 0-1.08l.12-.48-.36.36a8.14 8.14 0 0 0-1.67 2.76 3.86 3.86 0 0 0-.12 1.68c.12.48.36 1.08.84 1.44.71.84 1.79 1.2 2.74 1.56 1.08.24 2.03.48 3.11.48h1.67a9.3 9.3 0 0 0 2.63 2.27c.12 0 .12.12.24.12s.12.12.24.12c.36.24.84.48 1.31.72.36.12.6.24.96.36h.12c.6.24 1.2.36 1.8.36h.47l.6.12h2.39c.24 0 .36-.12.6-.12l.6-.12c.23 0 .35-.12.59-.12l.6-.12c.24 0 .35-.12.6-.24l.6-.24a.9.9 0 0 1 .47-.24l.48-.24c.12-.12.36-.24.48-.36l.47-.36.48-.36c.12-.12.36-.24.48-.36l.36-.35c.12-.12.24-.24.36-.48l.36-.48c.23-.24.47-.6.71-.96.48-.6.72-1.32 1.08-2.04.12-.12.12-.36.24-.6l.12-.6c.12-.24.12-.36.12-.6l.11-.6c0-.36.12-.6.12-.96l1.44-1.08c.83-.72 1.55-1.44 2.27-2.28.36-.48.6-.84.83-1.32.24-.48.36-.96.36-1.55a3.7 3.7 0 0 0-.36-1.56 4.67 4.67 0 0 0-1.2-.96Zm78.98 60.07c.48-1.44.72-2.88.72-4.43 0-7.92-6.46-14.4-14.46-14.4h-1.91a14.46 14.46 0 0 0-12.55 14.28c0 4.8 2.4 9.1 6.1 11.63h-.24l.71.48a14.8 14.8 0 0 0 7.89 2.27c6.33.12 11.7-4.07 13.74-9.83Zm-21.87-9.71h.72s.12 0 .12-.12 0-.12-.12-.12c0 0-.12 0-.12-.12-.12-.12-.36-.12-.48-.24-.36-.12-.6-.12-.95-.12a5.4 5.4 0 0 1-1.92-.36c-.6-.24-1.07-.48-1.67-.84.12-.12.12-.24.24-.36.12 0 .24.12.36.12.84.36 1.67.6 2.5.96l1.08.36c.24.12.48.12.72.24l1.44.36c.47.12 1.07.24 1.55.36l1.55.36c.48.12 1.08.12 1.55.24a6.8 6.8 0 0 0 1.56.12h6.45c2.15 0 4.18-.12 6.33-.24l.12.48-3.58.24c-.6 0-1.32 0-1.91.12h-2.39c0 .12 0-.6-.12-.36h-.24c-.6.12-1.2.24-1.91.24-1.32.12-2.51.12-3.83.12-.24 0-.48 0-.71-.12-.96-.12-2.04-.24-3-.48a37 37 0 0 1-3.46-.84h.12Zm16.73-2.88c-.83.12-1.67.24-2.5.24h-2.52c-.36 0-.83 0-1.2-.12-.23 0-.35-.12-.59-.12h-.12s-.12 0-.12-.12c0 0 .12 0 .12-.12 0 0-.12 0-.12.12 0 0 .12 0 .12-.12h.12-.24c-.24 0-.48-.12-.71-.12l-1.32-.12-2.75-.36c-.48-.12-.83-.12-1.31-.24-.24-.12-.48-.12-.84-.24-.12-.12-.36-.12-.48-.24-.71-.36-1.43-.72-2.15-1.2.84-.6 1.68-1.08 2.63-1.44.24.12.48.12.72.24a37 37 0 0 0 3.46.84c.72.12 1.44.24 2.27.24.72.12 1.44.24 2.16.24.71.12 1.43.12 2.14.24.24 0 .36 0 .48.12h.12c-.12.12-.24.24-.36.24l-.24.12s-.11 0-.11.12c0 0-.12 0-.12.12v.24c0 .12.12.12.12.12.12 0 .12 0 .12.12h.83c.36 0 .72 0 1.08-.12a14.4 14.4 0 0 0 2.15-.6c.6.48 1.07 1.08 1.55 1.56l.12.12c-.95-.12-1.8.12-2.5.24Zm-1.43-1.92c-.36 0-.72.12-1.08.12h-.72l.24-.12c.12-.12.36-.24.48-.36 0 0 .12-.12.12-.24v-.24l-.12-.12c-.12-.12-.24-.12-.36-.12-.24 0-.36-.12-.6-.12-.71-.12-1.43-.24-2.26-.24l-2.15-.24c-.72-.12-1.44-.12-2.16-.24-1.19-.24-2.5-.48-3.7-.84-.12 0-.12 0-.24-.11a14.5 14.5 0 0 1 5.14-.96c3.47 0 6.7 1.31 9.2 3.35-.48.12-1.2.36-1.8.48Zm-15.65-1.2c.71.48 1.55.84 2.26 1.2.13 0 .24.12.24.12.24.12.6.24.84.36.48.12.84.24 1.31.24l2.63.36 1.32.12c.48 0 .84.12 1.31.24 0 0-.12 0-.12.12v.24c0 .12.12.12.12.12.12 0 .12.12.12.12.12 0 .24.12.36.12.48.12.84.12 1.31.24.84.12 1.8.12 2.63 0 .84 0 1.8-.12 2.63-.24.84-.12 1.68-.24 2.51-.48.48.6.84 1.2 1.2 1.8-1.08.12-2.27.36-3.35.36-1.2.12-2.39.12-3.58.12-.6 0-1.2 0-1.8-.12l-1.79-.12c-1.2-.12-2.39-.12-3.58-.36 0 0 .12 0 .12-.12l.12-.12v-.12c0-.12-.12-.12-.12-.12s-.12 0-.12-.12c-.12-.12-.36-.12-.48-.12-.36-.12-.6-.12-.96-.24-.36 0-.6-.12-.95-.12h-1.8c-.6 0-1.19 0-1.79-.12-.24 0-.6-.12-.83-.24h-.12c.12 0 .24-.12.36-.12.23 0 .6-.12.83-.12l.48-.12h.36v-.24h-.12c-.6-.12-1.2-.36-1.8-.48a8.28 8.28 0 0 1-1.55-.6l1.8-1.44Zm-.24 2.16c.47.24 1.07.36 1.55.48h-.12l-.48.12c-.36 0-.6.12-.95.12-.12 0-.36 0-.48.12 0 0-.12 0-.12.12v.24c.12.12.12.12.24.12.36.12.6.12.95.24.6.12 1.2.24 1.8.12h1.79c.6 0 1.2.12 1.79.36.12 0 .24.12.36.12 0 0-.12 0-.24.12h-.12l-.12.12v.24h.12a.9.9 0 0 0 .48.12l3.58.36 1.8.12c.6 0 1.19.12 1.79.12 2.39 0 4.78-.12 7.17-.48.24.48.48.96.6 1.32-2.04.12-4.07.24-6.22.24h-6.45c-.48 0-1.08-.12-1.56-.12-.47-.12-1.07-.12-1.55-.24a6.97 6.97 0 0 0-1.55-.24l-1.56-.36c-1.07-.24-2.03-.6-3.1-.84l-2.87-1.08a26.2 26.2 0 0 1 1.67-2.16c.72.24 1.32.48 1.8.6Zm22.7 8.52v-.72.72Zm-27.6-3.72c.12 0 .12 0 0 0 .12-.12.12-.24.12-.24.36-.84.71-1.68 1.2-2.52.47.36 1.07.6 1.55.84.6.24 1.3.36 1.9.36.37 0 .6.12.96.12h.24-1.31s-.12.12 0 .24c.12 0 .12 0 .12.12.12.12.36.12.47.12 1.2.36 2.51.72 3.7.96.96.24 2.04.36 3.11.48.24 0 .48 0 .72.12 1.32.12 2.63 0 3.83-.12.47 0 .83-.12 1.31-.12l.12.12h.12a.9.9 0 0 0 .48.12h2.39c.6 0 1.31 0 1.9-.12l3.71-.24h.12c.24.6.36 1.32.36 2.04 0 .24 0 .48.12.72l-3.58.36 3.58-.24v.72c-.72.12-1.43.24-2.15.24-1.67.12-3.35.24-4.9.24h-3.58c-.6 0-1.2 0-1.8-.12-.47 0-.83-.12-1.31-.12h-.48c-.6 0-1.2-.12-1.8-.24-.59-.12-1.19-.12-1.78-.24l-3.47-.72a33.42 33.42 0 0 1-5.85-1.92l-.72-.36v.36c.24.12.36.24.6.24 1.9.84 3.94 1.44 5.97 1.92l1.67.36h.12c.24 0 .48.12.6.12s.36.12.48.12c.24 0 .36.12.6.12.6.12 1.2.24 1.79.24.6.12 1.2.12 1.8.12h.47c.48 0 .84.12 1.31.12.6 0 1.2 0 1.8.12h3.58l4.9-.36c.72-.12 1.43-.12 2.15-.24v.6c0 .48-.12.95-.12 1.43-.72.12-1.31.24-2.03.24-1.8.24-3.7.36-5.5.48-.6 0-1.31 0-1.9.12h-1.92c-.6 0-1.31-.12-1.91-.12-.6 0-1.32-.12-1.91-.24-.36 0-.6-.12-.96-.24-.12 0-.24-.12-.24-.12v-.12l.12-.12.36-.36s.12-.12 0-.24c0-.12-.12-.12-.12-.12-.12-.11-.12-.12-.24-.12-.36-.11-.6-.11-.95-.23a41.68 41.68 0 0 0-3.83-.48c-1.2-.24-2.5-.36-3.7-.72-.6-.12-1.2-.36-1.8-.6-.6-.24-1.07-.48-1.55-.72v.12-.12c.6-.6.72-1.44.96-2.16Zm25.45 9.11-1.08.36c-.71.24-1.31.36-2.03.48-.72.12-1.43.24-2.15.12h-.6c-.12 0-.24-.12-.12-.12.12-.12.24-.12.48-.24.12-.12.36-.12.48-.24.12 0 .12-.12.24-.12h.48l-.12-.12h3.46c.36-.12.6-.12.96-.12Zm-21.03-2.4c.83.24 1.79.6 2.63.72.48.12.83.24 1.31.36.48.12.96.12 1.32.24.47.12.95.12 1.31.24.48 0 .96.12 1.31.12l1.68.12 1.07.12 2.75.24.72.12h-4.66c-.48 0-.84 0-1.32-.12-.48 0-.83-.12-1.31-.12-.48 0-.84-.12-1.31-.12-.24 0-.48-.12-.72-.12s-.48-.12-.6-.12c-.48-.12-.84-.12-1.31-.24-.48-.12-.84-.24-1.32-.36-.48-.12-.83-.24-1.31-.36-1.8-.48-3.47-.96-5.14-1.68 0-.48-.12-.83-.12-1.31a19 19 0 0 0 5.02 2.27Zm-4.9-.48.12.24a58.5 58.5 0 0 0 4.9 1.56c.83.24 1.79.48 2.63.6.47.12.83.12 1.31.24.24 0 .48.12.6.12.24 0 .48.12.71.12.48 0 .96.12 1.32.12.48 0 .95.12 1.31.12h2.63l4.9-.12h.48v.12l-.12.12c-.12 0-.12.12-.24.12-.12.12-.36.12-.48.24s-.36.12-.48.24v.12h.48c.72.12 1.32.12 2.03 0 .36 0 .72-.12 1.08-.12.12 0 .36-.12.48-.12.24 0 .48-.12.71-.24h.24c.24 0 .36-.12.6-.24.12 0 .36-.12.48-.12s.24-.12.36-.12l.24-.12.24-.12.23-.12h.24c0 .12-.12.24-.12.24 0 .12-.12.24-.12.36-.12.24-.12.36-.24.6v.12c-.11.24-.23.36-.35.6l-.36.72c-1.08.24-2.27.24-3.35.36-1.2.12-2.27.12-3.46.12-.6 0-1.2 0-1.68-.12a7 7 0 0 1-1.67-.24c-.12 0-.12 0-.12-.12 0 0 .12 0 .12-.12h.12v-.12l-.12-.12c-.36-.12-.6-.12-.83-.12-.6-.12-1.2-.12-1.68-.24l-3.46-.36c-.6-.12-1.2-.12-1.68-.24l-1.67-.36a36.53 36.53 0 0 1-3.22-1.32c-.96-.48-2.03-.96-3-1.56v.12l-.11-.12c.12-.24 0-.48 0-.72Zm22.94 8.76c-.84.12-1.8.12-2.63.12h-2.63l-2.75-.12c-.95-.12-1.79-.12-2.74-.24l-.72-.12h-.36.12s.12 0 .12-.12c0 0 .12-.12 0-.12 0-.12 0-.12-.12-.12-.24-.12-.48-.24-.72-.24a5.98 5.98 0 0 0-2.5-.24h-1.43c-.73 0-1.32-.12-1.92-.36-.12 0-.12 0-.24-.12h.24c.24 0 .48-.12.84-.12h.12l2.26.36c.36.12.72.12 1.2.12.36 0 .72.12 1.2.12l4.66.36h5.25c1.2 0 2.4-.12 3.59-.12-.12.36-.48.72-.84.96Zm-13.26 2.4h.24c1.07.24 2.27.36 3.34.36 1.08 0 2.27 0 3.35-.12.48 0 .95-.12 1.43-.24v.12h.24a13.67 13.67 0 0 1-10.27-.6c.6.24 1.19.36 1.67.48Zm8.72.12c-.12 0-.12 0 0 0 .12-.12.12-.12.24-.12h.12v-.12l-.36.12c-.6.12-1.07.12-1.67.24-1.08.12-2.27.12-3.35.12-1.07 0-2.27-.24-3.34-.48-.36-.12-.72-.12-1.08-.24-.72-.12-1.43-.36-2.15-.48h-.12l-.48-.24s.12 0 .12-.12l.12-.12v-.12c0-.12 0-.12-.12-.12l-.12-.12c-.12 0-.24-.12-.24-.12h-.24c-.11 0-.11 0-.23-.12-.12 0-.36 0-.48-.12a14.47 14.47 0 0 1-2.27-2.4c-.12-.12-.24-.36-.36-.48.12 0 .24 0 .24.12.71.24 1.55.36 2.27.6h.12-.48c-.12 0-.12 0-.24.12h-.12s-.12 0-.12.12v.12h.12s.12 0 .12.12c.12 0 .12 0 .24.12.72.12 1.31.24 2.03.24h2.04c.7 0 1.3.12 2.02.24.12 0 .36.12.48.12s.12.12.24.12c0 0 0 .12-.12.12s-.12.12-.24.12c0 0-.12 0-.12.12h.12c.12 0 .36 0 .48.12.72.12 1.31.12 2.03.24l4.06.24h1.08c1.43 0 2.87 0 4.18-.12-1.31.96-2.75 1.8-4.3 2.28 0-.12-.12-.12-.12-.12Zm-12.78-4.92c.11 0 .23.12.47.12.12 0 .24 0 .24.12h-.6l-.23-.12h-.12l-1.44-.36c-.48-.12-1.07-.24-1.55-.48-.12 0-.12 0-.24-.12 0-.12-.12-.12-.12-.24-.12-.24-.36-.6-.48-.96l.12.12c.24.12.36.24.6.36.48.36 1.07.6 1.67.84.48.36 1.08.48 1.68.72Zm0 3 .23.12c-.12 0-.23-.12-.23-.12Zm-5.38-8.52v.36c.95.48 1.8.96 2.75 1.44 1.07.48 2.15.96 3.22 1.32.6.24 1.08.36 1.68.36.6.12 1.19.12 1.67.24l3.46.36c.6 0 1.2.12 1.68.12.24 0 .47 0 .71.12 0 0-.12 0-.12.12 0 0-.12 0-.12.12s.12.12.12.12c.12 0 .12.12.24.12.6.12 1.2.24 1.68.24h1.79c1.2 0 2.27 0 3.46-.12l3.35-.36c-.48.72-1.08 1.44-1.68 2.16h-.11c-1.44.12-3 .12-4.43.12h-2.62c-.72 0-1.44 0-2.03-.12a61.56 61.56 0 0 1-4.67-.48c-.35 0-.71-.12-1.19-.12-.36-.12-.72-.12-1.2-.24l-1.43-.24.12-.12c0-.12-.12-.12-.12-.12-.12-.12-.36-.12-.48-.12l-.47-.12c-.6-.12-1.2-.36-1.68-.6a6.4 6.4 0 0 1-1.55-.84c-.24-.12-.36-.24-.6-.36-.24-.24-.6-.48-.83-.72v-.12a7.23 7.23 0 0 1-.72-2.28s-.12 0-.12-.12c.24.12.12.12.24-.12Zm27.72-.96c0-.6.12-1.2.12-1.67 0 .48 0 1.07-.12 1.67Zm-27.96-3.6v.25c.48.24 1.07.48 1.55.72.6.24 1.2.48 1.8.6 1.19.36 2.5.6 3.7.72 1.31.12 2.5.23 3.7.47.36 0 .6.12.96.24.12 0 .12 0 .12.12-.12.12-.12.24-.24.36 0 .12-.12.12-.12.24s-.12.12-.12.36c0 .12.12.24.24.24s.12.12.24.12c.36.12.6.12.95.24.6.12 1.32.12 1.92.24.6 0 1.31.12 1.9.12h1.92c.6 0 1.31 0 1.91-.12l3.82-.36c.6-.12 1.32-.12 1.92-.24.6-.12 1.2-.12 1.79-.24-.12.84-.36 1.68-.6 2.4-.12 0-.24 0-.36.12-.71 0-1.31.12-2.03.12l-3.7.12s-.12 0-.12-.12h-.36c-.12 0-.24 0-.36-.12-.24 0-.48-.12-.72-.12-.47 0-.95-.12-1.31-.12l-2.75-.24-1.07-.12-1.68-.12c-.47 0-.95-.12-1.31-.12l-1.31-.24c-.48-.12-.96-.12-1.32-.24-.48-.12-.84-.24-1.31-.24-.84-.24-1.8-.48-2.63-.72-1.68-.6-3.47-1.2-5.02-2.03v.11-.23a6.47 6.47 0 0 1 0-2.16Z" fill="#C3A173"/><path d="M399.76 78.76c-1.07 0-2.03-.12-3.1-.12-1.08-.12-2.04-.12-3.11-.24l-2.99-.36c-.48-.12-.96-.12-1.55-.24l-1.44-.36c-.95-.24-1.9-.48-2.87-.84-.95-.36-1.79-.72-2.62-1.2v.24c.83.48 1.67.84 2.63 1.2.95.36 1.9.6 2.98.84.48.12.96.24 1.56.36.47.12.95.12 1.55.24l3.1.36c1.08.12 2.04.12 3.11.24.72-.12 1.8 0 2.75-.12 1.31.12 2.75.12 4.06 0h.72c.48 0 .84 0 1.31-.12-1.9.24-4.06.24-6.09.12Z" fill="#C3A173"/><path fill-rule="evenodd" clip-rule="evenodd" d="m406.81 110.41-.48-1.92-.12 2.04-2.15.72 2.15.48.6 2.88.12-3 2.03-.72-2.15-.48Zm12.43 6.36-.36-1.44-.12 1.44-1.55.6 1.55.36.48 2.03v-2.15l1.55-.48-1.55-.36Zm-4.18-16.19-.72-2.76-.24 2.76-2.75 1.08 2.87.6.71 3.83.24-3.95 2.75-.96-2.87-.6Z" fill="#C3A173"/><path d="m422.46 193.39-5.97-6.83-5.86 6.83 3.83-8.27-7.53-3.12 8.13.6 1.55-7.44 1.43 7.44 8.13-.48-7.53 3 3.82 8.27Zm125.99-140.59c-1.63-.06-3.98-.2-6.79-.32-2.8-.13-6.07-.2-9.6-.26-1.76 0-3.58-.07-5.41-.07h-3.53c.52-.52 1.05-1.04 1.57-1.5l2.94-2.93a361.8 361.8 0 0 0 5.09-5.22c2.94-3.13 4.76-5.28 4.76-5.28s-2.21 1.76-5.48 4.56a147.87 147.87 0 0 0-5.42 4.9c-.98.9-2.02 1.82-3 2.8-.52.52-1.11 1.04-1.63 1.56v-3.65c0-1.82-.07-3.65-.07-5.41-.06-3.52-.13-6.78-.26-9.59-.07-2.8-.26-5.15-.33-6.78-.2-1.7-.26-2.61-.26-2.61l-.2 2.6c-.06 1.64-.19 3.99-.32 6.8-.13 2.8-.2 6.06-.26 9.58 0 1.76-.07 3.59-.07 5.41v3.52c-.52-.52-1.04-1.04-1.5-1.56l-2.94-2.94a313.2 313.2 0 0 0-5.22-5.08c-3.13-2.94-5.29-4.76-5.29-4.76s1.77 2.21 4.57 5.47a147.4 147.4 0 0 0 4.9 5.42c.91.97 1.83 2.02 2.8 3 .53.52 1.05 1.1 1.57 1.63h-3.65c-1.83 0-3.66.06-5.42.06-3.53.07-6.8.13-9.6.26-2.8.07-5.16.26-6.79.33-1.7.2-2.61.26-2.61.26l2.61.2c1.63.06 3.98.2 6.8.32 2.8.13 6.06.2 9.59.26 1.76 0 3.59.07 5.42.07h3.52c-.52.52-1.04 1.04-1.56 1.5l-2.94 2.93a166.68 166.68 0 0 0-9.86 10.5s2.22-1.76 5.48-4.56c1.64-1.37 3.46-3.07 5.42-4.9.98-.9 2.03-1.82 3-2.8.53-.52 1.12-1.04 1.64-1.56v3.65c0 1.82.06 3.65.06 5.41.07 3.52.13 6.78.27 9.59.06 2.8.26 5.15.32 6.78.07 1.63.2 2.61.2 2.61l.2-2.6c.06-1.64.19-3.99.32-6.8.13-2.8.2-6.06.26-9.58 0-1.76.07-3.59.07-5.41v-3.52a36.1 36.1 0 0 1 1.5 1.56l2.94 2.94a313.2 313.2 0 0 0 5.22 5.08c3.13 2.94 5.29 4.76 5.29 4.76s-1.77-2.21-4.57-5.47a147.4 147.4 0 0 0-4.9-5.42c-.91-.97-1.83-2.02-2.8-3-.53-.52-1.05-1.1-1.57-1.63h3.65c1.83 0 3.66-.06 5.42-.06 3.53-.07 6.8-.13 9.6-.26 2.8-.07 5.16-.26 6.79-.33 1.63-.06 2.61-.2 2.61-.2s-.91-.13-2.55-.26Zm-20.1 253.57-4.42-.2c-1.82-.1-3.94-.14-6.24-.18-1.14 0-2.33-.04-3.52-.04h-2.3c.35-.34.69-.68 1.03-.98l1.9-1.9c1.24-1.23 2.34-2.38 3.32-3.4 1.9-2.03 3.1-3.43 3.1-3.43s-1.45 1.15-3.57 2.97c-1.06.89-2.25 2-3.52 3.18-.64.6-1.32 1.19-1.95 1.82l-1.06 1.02v-2.38c0-1.18-.05-2.37-.05-3.51-.04-2.3-.08-4.41-.17-6.24-.04-1.82-.17-3.35-.2-4.4-.14-1.1-.18-1.7-.18-1.7l-.13 1.7-.2 4.4c-.1 1.83-.14 3.95-.18 6.24 0 1.14-.04 2.33-.04 3.51v2.3c-.34-.35-.68-.69-.98-1.02l-1.9-1.91a223.68 223.68 0 0 0-3.4-3.3c-2.04-1.92-3.44-3.1-3.44-3.1a130.13 130.13 0 0 0 6.15 7.08c.6.63 1.2 1.31 1.83 1.95l1.02 1.06h-2.38c-1.19 0-2.38.04-3.52.04-2.3.04-4.41.08-6.24.17-1.82.04-3.35.17-4.41.21-1.1.13-1.7.17-1.7.17l1.7.13 4.41.2c1.83.1 3.95.14 6.24.18 1.14 0 2.33.04 3.52.04h2.3c-.35.34-.69.68-1.03.98l-1.9 1.9a217.03 217.03 0 0 0-3.31 3.4c-1.92 2.03-3.1 3.43-3.1 3.43s1.44-1.15 3.56-2.97c1.06-.89 2.25-2 3.52-3.18.64-.6 1.32-1.19 1.96-1.82l1.06-1.02v2.38c0 1.18.04 2.37.04 3.51.04 2.3.08 4.41.17 6.24.04 1.82.17 3.35.21 4.4.04 1.06.13 1.7.13 1.7l.13-1.7.2-4.4c.1-1.83.14-3.95.18-6.24 0-1.14.04-2.33.04-3.51v-2.3c.34.35.68.69.98 1.02l1.9 1.91c1.24 1.23 2.38 2.33 3.4 3.3 2.04 1.92 3.44 3.1 3.44 3.1s-1.15-1.44-2.97-3.56c-.9-1.06-2-2.25-3.18-3.52-.6-.63-1.2-1.31-1.83-1.95l-1.02-1.06h2.38c1.19 0 2.38-.04 3.52-.04 2.3-.04 4.41-.08 6.24-.17 1.82-.04 3.35-.17 4.41-.21 1.06-.04 1.7-.13 1.7-.13s-.6-.08-1.65-.17Zm-491.01-76-4.4-.2c-1.83-.1-3.96-.14-6.25-.18-1.14 0-2.33-.04-3.52-.04h-2.3c.35-.34.69-.68 1.03-.98l1.9-1.9c1.24-1.23 2.34-2.38 3.32-3.4 1.9-2.03 3.1-3.43 3.1-3.43s-1.45 1.15-3.57 2.97c-1.06.89-2.25 2-3.52 3.18-.64.6-1.32 1.19-1.95 1.82-.34.34-.73.68-1.06 1.02v-2.38c0-1.18-.05-2.37-.05-3.51-.04-2.3-.08-4.41-.17-6.24-.04-1.82-.17-3.34-.2-4.4-.14-1.1-.18-1.7-.18-1.7l-.13 1.7-.2 4.4c-.1 1.83-.14 3.95-.18 6.24 0 1.14-.04 2.33-.04 3.51v2.3a21.6 21.6 0 0 1-.98-1.02l-1.9-1.91a220 220 0 0 0-3.4-3.3c-2.04-1.92-3.44-3.1-3.44-3.1a130.07 130.07 0 0 0 6.15 7.08c.6.63 1.2 1.31 1.83 1.95l1.02 1.06h-2.38c-1.19 0-2.37.04-3.52.04-2.3.04-4.41.08-6.24.17-1.82.04-3.35.17-4.41.21-1.1.13-1.7.17-1.7.17l1.7.13 4.41.2c1.83.1 3.95.14 6.24.18 1.15 0 2.33.04 3.52.04h2.3c-.35.34-.69.68-1.03.98l-1.9 1.9a219.36 219.36 0 0 0-3.32 3.4c-1.9 2.03-3.1 3.43-3.1 3.43s1.45-1.15 3.57-2.97c1.06-.89 2.25-2 3.52-3.18.64-.6 1.32-1.19 1.96-1.82l1.06-1.02v2.38c0 1.18.04 2.37.04 3.51.04 2.3.08 4.41.17 6.24.04 1.82.17 3.34.21 4.4.04 1.06.13 1.7.13 1.7l.13-1.7.2-4.4c.1-1.83.14-3.95.18-6.24 0-1.14.04-2.33.04-3.51v-2.3c.34.35.68.69.98 1.02l1.9 1.91a220 220 0 0 0 3.4 3.3c2.04 1.92 3.44 3.1 3.44 3.1s-1.15-1.44-2.97-3.56c-.9-1.06-2-2.25-3.18-3.52-.6-.63-1.2-1.31-1.83-1.95l-1.02-1.06h2.38c1.19 0 2.37-.04 3.52-.04 2.3-.04 4.41-.08 6.24-.17 1.82-.04 3.35-.17 4.41-.21 1.06-.04 1.7-.13 1.7-.13s-.6-.08-1.66-.17Zm179.54-205.53c-1.36-.06-3.32-.17-5.66-.27-2.34-.11-5.06-.17-8-.22-1.47 0-2.99-.06-4.51-.06h-2.94c.43-.43.87-.87 1.3-1.25l2.45-2.44a278 278 0 0 0 4.25-4.35c2.44-2.6 3.97-4.4 3.97-4.4s-1.85 1.47-4.57 3.8a121.92 121.92 0 0 0-4.52 4.08c-.81.76-1.69 1.52-2.5 2.34-.44.43-.93.86-1.36 1.3v-3.04c0-1.53-.06-3.05-.06-4.51-.05-2.94-.1-5.66-.21-8-.06-2.33-.22-4.29-.28-5.65-.16-1.4-.21-2.17-.21-2.17l-.17 2.17c-.05 1.36-.16 3.32-.27 5.66-.1 2.33-.16 5.05-.22 7.99 0 1.46-.05 2.98-.05 4.5v2.94c-.44-.43-.87-.87-1.25-1.3l-2.45-2.45a284.66 284.66 0 0 0-4.35-4.24c-2.61-2.44-4.4-3.97-4.4-3.97s1.46 1.85 3.8 4.57c1.14 1.36 2.56 2.88 4.08 4.51.76.82 1.52 1.69 2.34 2.5l1.3 1.36h-3.04c-1.53 0-3.05.05-4.52.05-2.94.06-5.66.11-8 .22-2.34.06-4.3.22-5.65.27-1.42.17-2.18.22-2.18.22l2.18.16c1.36.06 3.31.17 5.66.27 2.33.11 5.05.17 8 .22 1.46 0 2.98.06 4.5.06h2.95c-.44.43-.87.87-1.31 1.25l-2.45 2.44c-1.58 1.58-2.99 3.05-4.24 4.35-2.45 2.6-3.97 4.4-3.97 4.4s1.85-1.47 4.57-3.8c1.36-1.14 2.88-2.56 4.51-4.08.82-.76 1.69-1.52 2.5-2.34.44-.43.93-.86 1.37-1.3v3.04c0 1.53.05 3.05.05 4.51.05 2.94.1 5.66.22 8 .05 2.33.22 4.29.27 5.65.05 1.35.16 2.17.16 2.17l.17-2.17c.05-1.36.16-3.32.27-5.66.1-2.33.16-5.05.22-7.99 0-1.46.05-2.98.05-4.5v-2.94c.44.43.87.87 1.25 1.3l2.45 2.45c1.58 1.58 3.05 2.99 4.35 4.24 2.61 2.44 4.4 3.97 4.4 3.97s-1.46-1.85-3.8-4.57a122.66 122.66 0 0 0-4.08-4.51c-.76-.82-1.52-1.69-2.34-2.5l-1.3-1.36h3.04c1.53 0 3.05-.05 4.52-.05 2.94-.06 5.66-.11 8-.22 2.34-.06 4.3-.22 5.65-.27 1.36-.06 2.18-.17 2.18-.17s-.76-.1-2.12-.21Zm-121.24 91.06-3.62-.18c-1.5-.07-3.24-.1-5.12-.14-.94 0-1.91-.03-2.89-.03h-1.88c.28-.28.56-.56.84-.8l1.56-1.57c1.01-1 1.92-1.95 2.72-2.78 1.57-1.67 2.54-2.82 2.54-2.82s-1.18.94-2.92 2.44c-.87.73-1.85 1.63-2.9 2.6-.52.5-1.07.98-1.6 1.5-.27.28-.59.56-.87.84v-1.95c0-.98-.03-1.95-.03-2.89-.03-1.88-.07-3.62-.14-5.11-.03-1.5-.14-2.75-.17-3.62l-.14-1.39-.1 1.4-.18 3.6c-.07 1.5-.1 3.24-.14 5.12 0 .94-.04 1.91-.04 2.89v1.88c-.27-.28-.55-.56-.8-.84l-1.56-1.56a82.83 82.83 0 0 0-5.61-5.25 108.98 108.98 0 0 0 5.05 5.8c.49.52.97 1.08 1.5 1.6.28.28.55.6.83.87h-1.95c-.97 0-1.95.04-2.89.04-1.88.03-3.62.07-5.12.14-1.5.03-2.75.14-3.62.17l-1.39.14 1.4.1 3.61.18c1.5.07 3.24.1 5.12.14.94 0 1.92.03 2.9.03h1.87c-.28.28-.55.56-.83.8l-1.57 1.57c-1 1-1.91 1.95-2.72 2.78a85.6 85.6 0 0 0-2.54 2.82s1.19-.94 2.93-2.44c.87-.73 1.84-1.63 2.89-2.6.52-.5 1.08-.98 1.6-1.5.28-.28.6-.56.87-.84v1.95c0 .98.03 1.95.03 2.89.04 1.88.07 3.62.14 5.11.04 1.5.14 2.75.18 3.62.03.87.1 1.39.1 1.39l.1-1.4.18-3.6c.07-1.5.1-3.24.14-5.12 0-.94.04-1.91.04-2.89v-1.88c.27.28.55.56.8.84l1.56 1.56a85.11 85.11 0 0 0 5.6 5.25s-.93-1.18-2.43-2.92a78.72 78.72 0 0 0-2.61-2.88c-.49-.52-.97-1.08-1.5-1.6-.28-.28-.55-.6-.83-.87h1.95c.97 0 1.95-.04 2.89-.04 1.88-.03 3.62-.07 5.12-.14 1.5-.03 2.75-.14 3.62-.17a17 17 0 0 0 1.39-.1s-.49-.08-1.36-.14Zm407.34 68.02c-.65-.02-1.6-.08-2.71-.13-1.13-.05-2.43-.08-3.84-.1-.7 0-1.44-.03-2.17-.03h-1.41c.2-.2.42-.42.63-.6l1.17-1.17a64.8 64.8 0 0 0 3.94-4.2s-.88.7-2.19 1.82c-.65.55-1.38 1.23-2.17 1.96-.39.37-.8.73-1.2 1.12-.2.21-.44.42-.65.63v-1.46c0-.73-.03-1.46-.03-2.17-.02-1.4-.05-2.71-.1-3.83-.03-1.13-.1-2.06-.13-2.72a26.1 26.1 0 0 1-.1-1.04l-.08 1.04-.14 2.72c-.05 1.12-.07 2.42-.1 3.83 0 .7-.03 1.44-.03 2.17v1.4l-.6-.62-1.17-1.17a138.8 138.8 0 0 0-2.1-2.04 73.36 73.36 0 0 0-2.1-1.9 80.24 80.24 0 0 0 3.78 4.35c.37.4.73.81 1.12 1.2l.63.66h-1.46l-2.17.02c-1.41.03-2.72.05-3.84.1-1.12.03-2.06.11-2.71.14l-1.05.1 1.05.08c.65.02 1.59.08 2.71.13 1.12.05 2.43.08 3.84.1.7 0 1.44.03 2.17.03h1.4c-.2.2-.41.42-.62.6l-1.18 1.17-2.03 2.09c-1.18 1.25-1.9 2.11-1.9 2.11s.88-.7 2.19-1.82a58.2 58.2 0 0 0 2.16-1.96c.4-.37.81-.73 1.2-1.12l.66-.63v1.46l.02 2.17c.03 1.4.06 2.71.1 3.83.03 1.13.11 2.06.14 2.72.02.65.08 1.04.08 1.04l.07-1.04.14-2.72c.05-1.12.07-2.42.1-3.83 0-.7.03-1.44.03-2.17v-1.4l.6.62 1.17 1.17a64.21 64.21 0 0 0 4.2 3.94s-.7-.88-1.82-2.19a59.32 59.32 0 0 0-1.96-2.16c-.37-.4-.73-.81-1.12-1.2l-.63-.66h1.46l2.17-.02c1.41-.03 2.72-.05 3.84-.1 1.12-.03 2.06-.11 2.71-.14.66-.02 1.05-.07 1.05-.07s-.37-.06-1.02-.1Zm-347.98 166.78c-2.5-.1-6.1-.3-10.4-.5-4.3-.2-9.3-.3-14.7-.4-2.7 0-5.5-.1-8.3-.1h-5.4c.8-.8 1.6-1.6 2.4-2.3l4.5-4.5c2.9-2.9 5.5-5.6 7.8-8 4.5-4.8 7.3-8.1 7.3-8.1s-3.4 2.7-8.4 7c-2.5 2.1-5.3 4.7-8.3 7.5-1.5 1.4-3.1 2.8-4.6 4.3-.8.8-1.7 1.6-2.5 2.4v-5.6c0-2.8-.1-5.6-.1-8.3-.1-5.4-.2-10.4-.4-14.7-.1-4.3-.4-7.9-.5-10.4-.3-2.6-.4-4-.4-4l-.3 4c-.1 2.5-.3 6.1-.5 10.4-.2 4.3-.3 9.3-.4 14.7 0 2.7-.1 5.5-.1 8.3v5.4c-.8-.8-1.6-1.6-2.3-2.4l-4.5-4.5c-2.9-2.9-5.6-5.5-8-7.8-4.8-4.5-8.1-7.3-8.1-7.3s2.7 3.4 7 8.4c2.1 2.5 4.7 5.3 7.5 8.3 1.4 1.5 2.8 3.1 4.3 4.6.8.8 1.6 1.7 2.4 2.5h-5.6c-2.8 0-5.6.1-8.3.1-5.4.1-10.4.2-14.7.4-4.3.1-7.9.4-10.4.5-2.6.3-4 .4-4 .4l4 .3c2.5.1 6.1.3 10.4.5 4.3.2 9.3.3 14.7.4 2.7 0 5.5.1 8.3.1h5.4c-.8.8-1.6 1.6-2.4 2.3l-4.5 4.5c-2.9 2.9-5.5 5.6-7.8 8-4.5 4.8-7.3 8.1-7.3 8.1s3.4-2.7 8.4-7c2.5-2.1 5.3-4.7 8.3-7.5 1.5-1.4 3.1-2.8 4.6-4.3.8-.8 1.7-1.6 2.5-2.4v5.6c0 2.8.1 5.6.1 8.3.1 5.4.2 10.4.4 14.7.1 4.3.4 7.9.5 10.4.1 2.5.3 4 .3 4l.3-4c.1-2.5.3-6.1.5-10.4.2-4.3.3-9.3.4-14.7 0-2.7.1-5.5.1-8.3v-5.4c.8.8 1.6 1.6 2.3 2.4l4.5 4.5c2.9 2.9 5.6 5.5 8 7.8 4.8 4.5 8.1 7.3 8.1 7.3s-2.7-3.4-7-8.4c-2.1-2.5-4.7-5.3-7.5-8.3-1.4-1.5-2.8-3.1-4.3-4.6-.8-.8-1.6-1.7-2.4-2.5h5.6c2.8 0 5.6-.1 8.3-.1 5.4-.1 10.4-.2 14.7-.4 4.3-.1 7.9-.4 10.4-.5 2.5-.1 4-.3 4-.3s-1.4-.2-3.9-.4Z" fill="#C3A173"/></svg>