<svg width="52" height="52" viewBox="0 0 52 52" fill="none" xmlns="http://www.w3.org/2000/svg"><g clip-path="url(#a)" fill="#C3A173"><path d="m46.63 5.36-4.38 5.93 7.29 1.1-7.29 1.08 4.38 5.93-5.92-4.36-1.1 7.29-1.08-7.3-19.21 17.65 17.64-19.2-7.29-1.09 7.3-1.09-4.39-5.93 5.93 4.38 1.1-7.29 1.09 7.29 5.93-4.39Z"/><path d="M52 26.1a26 26 0 1 1-26.1-26.1 21.23 21.23 0 0 0 5.64 41.68 21.24 21.24 0 0 0 20.46-15.58Z"/></g><defs><clipPath id="a"><path fill="#fff" d="M0 0h52v52h-52z"/></clipPath></defs></svg>