<svg width="60" height="45" viewBox="0 0 60 45" fill="none" xmlns="http://www.w3.org/2000/svg"><path d="M.9 44.94c.06-.26.34-2.97.87-8.13.57-5.15.9-8.02 1.01-8.6 1.1-9.37 3.23-16.32 6.4-20.85 3.18-4.58 8-6.88 14.46-6.88l1.72 7.43c-3.49 0-6.04 1.35-7.66 4.06-1.56 2.65-2.65 6.9-3.28 12.73h9.85l-2.11 20.24h-21.25Zm34.46 0c.05-.26.34-2.97.86-8.13.57-5.15.91-8.02 1.01-8.6 1.1-9.37 3.23-16.32 6.41-20.85 3.18-4.58 8-6.88 14.45-6.88l1.72 7.43c-3.49 0-6.04 1.35-7.65 4.06-1.57 2.65-2.66 6.9-3.28 12.73h9.84l-2.11 20.24h-21.25Z" fill="#C3A173"/></svg>