<svg width="112" height="112" viewBox="0 0 112 112" fill="none" xmlns="http://www.w3.org/2000/svg"><path d="M107.13 55.63c-3.04-.12-7.43-.36-12.66-.6a673.7 673.7 0 0 0-17.9-.5c-3.28 0-6.7-.11-10.1-.11h-6.57c.97-.98 1.94-1.95 2.92-2.8l5.48-5.48a627.4 627.4 0 0 0 9.5-9.74c5.47-5.84 8.88-9.86 8.88-9.86s-4.14 3.29-10.23 8.52a274.9 274.9 0 0 0-10.1 9.13c-1.83 1.7-3.78 3.41-5.6 5.24-.98.97-2.07 1.94-3.05 2.92v-6.82c0-3.4-.12-6.82-.12-10.1-.12-6.58-.24-12.66-.48-17.9-.13-5.23-.5-9.62-.61-12.66-.37-3.17-.49-4.87-.49-4.87l-.37 4.87c-.12 3.04-.36 7.43-.6 12.66a673.7 673.7 0 0 0-.5 17.9c0 3.28-.11 6.7-.11 10.1v6.57a54.15 54.15 0 0 1-2.8-2.92l-5.48-5.48a627.4 627.4 0 0 0-9.74-9.5c-5.84-5.47-9.86-8.88-9.86-8.88s3.29 4.14 8.52 10.23a274.9 274.9 0 0 0 9.13 10.1c1.7 1.83 3.41 3.78 5.24 5.6.97.98 1.94 2.07 2.92 3.05h-6.82c-3.4 0-6.82.12-10.1.12-6.58.12-12.66.24-17.9.48-5.23.13-9.62.5-12.66.61-3.17.37-4.87.49-4.87.49l4.87.37c3.04.12 7.43.36 12.66.6 5.24.25 11.32.37 17.9.5 3.28 0 6.7.11 10.1.11h6.57c-.97.98-1.94 1.95-2.92 2.8l-5.48 5.48c-3.53 3.53-6.7 6.82-9.5 9.74-5.47 5.84-8.88 9.86-8.88 9.86s4.14-3.29 10.23-8.52a274.9 274.9 0 0 0 10.1-9.13c1.83-1.7 3.78-3.41 5.6-5.24.98-.97 2.07-1.94 3.05-2.92v6.82c0 3.4.12 6.82.12 10.1.12 6.58.24 12.66.48 17.9.13 5.23.5 9.62.61 12.66.12 3.04.37 4.87.37 4.87l.36-4.87c.13-3.04.37-7.43.61-12.66.25-5.24.37-11.32.49-17.9 0-3.28.12-6.7.12-10.1v-6.57c.97.97 1.95 1.94 2.8 2.92l5.48 5.48c3.53 3.53 6.82 6.7 9.74 9.5 5.84 5.47 9.86 8.88 9.86 8.88s-3.29-4.14-8.52-10.23a274.9 274.9 0 0 0-9.13-10.1c-1.7-1.83-3.41-3.78-5.24-5.6-.97-.98-1.95-2.07-2.92-3.05h6.82c3.4 0 6.82-.12 10.1-.12 6.58-.12 12.66-.24 17.9-.48 5.23-.13 9.62-.5 12.66-.61 3.04-.12 4.87-.37 4.87-.37s-1.7-.24-4.75-.49Z" fill="#C3A173"/></svg>