<svg width="65" height="95" viewBox="0 0 65 95" fill="none" xmlns="http://www.w3.org/2000/svg"><mask id="a" fill="#fff"><path d="M15.88 18.95c-.67 0-1.3-.4-1.54-1.05l-1.81-4.43-3.63-2.66a1.7 1.7 0 0 1-.67-1.34c0-.52.25-1.01.67-1.34l3.63-2.65 1.8-4.44a1.66 1.66 0 0 1 3.08 0l1.8 4.44 3.65 2.68c.42.32.67.82.67 1.34 0 .52-.25 1.01-.67 1.34l-3.63 2.65-1.81 4.44a1.68 1.68 0 0 1-1.54 1.02Zm-5.22-9.45 3.23 2.35c.25.18.45.42.55.72l1.41 3.5 1.42-3.5c.12-.27.3-.52.55-.72l3.22-2.35-3.22-2.36a1.5 1.5 0 0 1-.55-.7l-1.44-3.49-1.42 3.5c-.12.27-.3.52-.54.72l-3.2 2.33Zm40.46 49.42c-.57 0-1.1-.35-1.32-.87l-1.02-2.5-2.06-1.52a1.4 1.4 0 0 1-.57-1.14c0-.44.22-.86.57-1.14l2.06-1.51 1.02-2.5c.23-.53.72-.87 1.32-.87.57 0 1.1.34 1.31.87l1.02 2.5 2.06 1.51c.38.28.57.7.57 1.14 0 .45-.22.87-.57 1.14l-2.06 1.52-1.02 2.5c-.22.52-.74.87-1.31.87Zm-2.34-6.03 1.44 1.05c.2.14.38.37.48.59l.44 1.1.45-1.1c.1-.25.27-.45.47-.62l1.42-1.04-1.42-1.04a1.3 1.3 0 0 1-.47-.62l-.45-1.07-.44 1.1c-.1.24-.28.44-.48.59l-1.44 1.06Zm4.77 2.43c-.02.03-.02.03 0 0Zm-43.14-37.22 1.5 1.1c.12.1.12.27 0 .37l-1.5 1.09a.34.34 0 0 0-.07.1l-.74 1.8c-.08.2-.35.2-.43 0l-.74-1.8a.29.29 0 0 0-.08-.1l-1.49-1.1a.23.23 0 0 1 0-.37l1.5-1.09c.02-.02.07-.05.07-.1l.74-1.8c.08-.2.35-.2.43 0l.74 1.8.07.1Zm7.47 46.36-1.28-1.28a1.06 1.06 0 0 1 0-1.5c.42-.43 1.1-.43 1.51 0l1.28 1.27 1.28-1.28c.42-.42 1.1-.42 1.52 0 .42.42.42 1.1 0 1.51l-1.28 1.28 1.25 1.25a1.08 1.08 0 0 1-.77 1.84.98.98 0 0 1-.74-.32l-1.26-1.26-1.25 1.26c-.25.22-.5.32-.77.32a.98.98 0 0 1-.75-.32 1.06 1.06 0 0 1 0-1.52l1.26-1.25Zm19.14-51.76-.58-.57a1.07 1.07 0 0 0-1.51 0 1.03 1.03 0 0 0 0 1.5l.58.6-.58.57c-.43.43-.43 1.1 0 1.52.2.22.47.32.74.32s.55-.1.77-.32l.58-.59.59.59c.2.22.47.32.74.32.28 0 .55-.1.77-.32.43-.42.43-1.1 0-1.52l-.58-.58.58-.58c.43-.42.43-1.1 0-1.51a1.07 1.07 0 0 0-1.51 0l-.59.58Zm7.44 70.2-.57-.57a1.07 1.07 0 0 0-1.51 0 1.05 1.05 0 0 0 0 1.51l.57.57-.6.6a1.05 1.05 0 0 0 0 1.5c.2.23.47.33.75.33.27 0 .54-.1.77-.32l.58-.58.58.58c.2.22.48.32.75.32s.54-.1.77-.32c.42-.42.42-1.1 0-1.51l-.59-.59.59-.58c.42-.42.42-1.09 0-1.51a1.07 1.07 0 0 0-1.52 0l-.57.57Zm-38.8-7.65-.58-.58a1.07 1.07 0 0 0-1.52 0 1.05 1.05 0 0 0 0 1.5l.58.6-.58.57c-.42.43-.42 1.1 0 1.52a1 1 0 0 0 .75.32c.27 0 .54-.1.77-.32l.58-.59.58.59a1 1 0 0 0 .75.32c.27 0 .54-.1.77-.32.42-.42.42-1.1 0-1.52l-.59-.58.59-.58c.42-.42.42-1.1 0-1.51a1.07 1.07 0 0 0-1.52 0l-.58.58Z"/><path d="M29.71 86.27c-2.43 0-5.36-.82-8.1-2.28a30.33 30.33 0 0 1-7.5-5.85 33.36 33.36 0 0 1-5.66-7.89 35.72 35.72 0 0 1-4.17-19.32.57.57 0 0 0-.4-.6c-.3-.07-.6.1-.67.4-1.71 6.2-1.36 13.32 1 20.04.2.55-.1 1.17-.65 1.37-.55.2-1.17-.1-1.37-.65-2.5-7.12-2.88-14.68-1.04-21.3a2.68 2.68 0 0 1 5.27.9 33.79 33.79 0 0 0 3.92 18.2 32.52 32.52 0 0 0 5.31 7.4 28.26 28.26 0 0 0 6.98 5.46c2.49 1.34 5.14 2.09 7.28 2.04 1.99-.03 3.28-.67 4.12-2.01a7 7 0 0 0 .82-2.6c.13-1.1.08-2.19-.15-3.45a44.68 44.68 0 0 0-2.3-7.27l-.6-1.58a1550.57 1550.57 0 0 1-7.18-19.54l-1.76-4.91c-.62-1.74-1.22-3.43-1.77-5.26a29.1 29.1 0 0 1-1.14-6.13c-.17-2.35 0-4.66.52-6.82.62-2.5 1.77-4.8 3.28-6.64a14.77 14.77 0 0 1 7.62-4.79c.58-.15 1.15.18 1.32.75.15.57-.17 1.14-.74 1.31a12.46 12.46 0 0 0-6.53 4.1 13.08 13.08 0 0 0-2.91 5.72c-.47 1.93-.65 4-.47 6.15.15 1.84.5 3.74 1.06 5.7a90.67 90.67 0 0 0 1.7 5.06l1.78 4.99c1.3 3.6 2.44 6.8 3.55 9.77 1.2 3.25 2.41 6.5 3.63 9.74l.6 1.59c1.01 2.73 1.98 5.28 2.4 7.64.28 1.44.33 2.77.18 4.06a8.68 8.68 0 0 1-1.12 3.48c-1.22 1.95-3.2 2.97-5.89 3-.07.02-.14.02-.22.02Z"/><path d="M30.43 95c-.22 0-.45 0-.67-.02-2.19-.08-4.37-.5-6.66-1.3a26.86 26.86 0 0 1-5.76-2.8 38.18 38.18 0 0 1-8.84-8c-.37-.45-.3-1.12.15-1.5.45-.37 1.12-.3 1.5.15a36.1 36.1 0 0 0 8.34 7.57 24.24 24.24 0 0 0 5.29 2.58 20.6 20.6 0 0 0 6.03 1.16c2.31.1 4.57-.34 6.56-1.26a12.83 12.83 0 0 0 4.47-3.42 1.06 1.06 0 0 1 1.49-.15c.44.37.52 1.04.15 1.48a14.6 14.6 0 0 1-5.22 4 15.47 15.47 0 0 1-6.83 1.51Zm19.92-73.67a1.1 1.1 0 0 0 1.34.16c1.44-.65 3.42-.17 5.02 1.17-.18.76-.31 2.01.22 3.28a5.68 5.68 0 0 0 3.15 2.94c.68 2.7.74 5.26.37 5.88l-.07.06c-.65.37-3.22.32-5.92-.36a5.7 5.7 0 0 0-2.94-3.14 5.36 5.36 0 0 0-3.27-.22 5.94 5.94 0 0 1-.49-6.25c.2-.26.26-.58.19-.87a1.02 1.02 0 0 0-.57-.74 26.1 26.1 0 0 0-2-1.4c-.67-.41-1.36-.79-2.11-1.13a15.57 15.57 0 0 0-6.56-1.26c-1.44.07-2.85.39-4.04.96-.62.27-1.12.64-1.72 1.09-.52.47-.9.87-1.21 1.31-.7 1-1.2 2.21-1.44 3.6a13.12 13.12 0 0 0-.05 4.2 28 28 0 0 0 1.09 4.43c.67 2 1.56 4.26 2.43 6.42l.61 1.54.6 1.54a694.7 694.7 0 0 1 3.8 9.67c1.27 3.22 2.52 6.47 3.73 9.7l.24.6.38 1a46.25 46.25 0 0 1 2.74 8.96c.24 1.46.37 2.9.32 4.29-.03.57.42 1.06 1.02 1.09h.02a1.1 1.1 0 0 0 1.07-1.07c.05-1.53-.07-3.12-.35-4.7a48.77 48.77 0 0 0-2.83-9.33l-.3-.8-.3-.79c-1.21-3.25-2.45-6.5-3.72-9.72a835.19 835.19 0 0 0-4.42-11.24l-.62-1.56-.18-.45a117.2 117.2 0 0 1-2.2-5.84 23.46 23.46 0 0 1-1.02-4.07c-.18-1.22-.18-2.43.02-3.52a6.31 6.31 0 0 1 1.07-2.7c.25-.33.55-.63.87-.95.42-.32.8-.6 1.24-.8a8.59 8.59 0 0 1 3.25-.76 13 13 0 0 1 5.6 1.09 18.82 18.82 0 0 1 3.16 1.89 7.88 7.88 0 0 0 1.57 8.55c1.25 1.24 3.52 2.39 5.93 3.15a1.07 1.07 0 0 0 .64.2c1.72.5 3.48.8 4.96.8.97 0 1.84-.14 2.5-.43.38.29.46.68.55 1.34l.02.09c.14.84.36 2.06 1.84 2.56l.06.01c.1.02.19.04.3.04.44 0 .86-.27 1.01-.72a1.09 1.09 0 0 0-.67-1.34c-.27-.1-.32-.15-.45-.96v-.05a3.9 3.9 0 0 0-1.27-2.58c.56-1.72.25-4.54-.56-7.26a1 1 0 0 0-.1-.29c-.76-2.46-1.93-4.79-3.2-6.07-2.16-2.15-5.02-3-7.35-2.22a26.42 26.42 0 0 0-5.07-4 18.84 18.84 0 0 0-2.96-1.44c-.55-.2-1.17.08-1.37.62-.2.55.08 1.17.62 1.37a19.61 19.61 0 0 1 5 2.9c.94.74 1.88 1.58 2.78 2.53Z"/></mask><path d="M15.88 18.95c-.67 0-1.3-.4-1.54-1.05l-1.81-4.43-3.63-2.66a1.7 1.7 0 0 1-.67-1.34c0-.52.25-1.01.67-1.34l3.63-2.65 1.8-4.44a1.66 1.66 0 0 1 3.08 0l1.8 4.44 3.65 2.68c.42.32.67.82.67 1.34 0 .52-.25 1.01-.67 1.34l-3.63 2.65-1.81 4.44a1.68 1.68 0 0 1-1.54 1.02Zm-5.22-9.45 3.23 2.35c.25.18.45.42.55.72l1.41 3.5 1.42-3.5c.12-.27.3-.52.55-.72l3.22-2.35-3.22-2.36a1.5 1.5 0 0 1-.55-.7l-1.44-3.49-1.42 3.5c-.12.27-.3.52-.54.72l-3.2 2.33Zm40.46 49.42c-.57 0-1.1-.35-1.32-.87l-1.02-2.5-2.06-1.52a1.4 1.4 0 0 1-.57-1.14c0-.44.22-.86.57-1.14l2.06-1.51 1.02-2.5c.23-.53.72-.87 1.32-.87.57 0 1.1.34 1.31.87l1.02 2.5 2.06 1.51c.38.28.57.7.57 1.14 0 .45-.22.87-.57 1.14l-2.06 1.52-1.02 2.5c-.22.52-.74.87-1.31.87Zm-2.34-6.03 1.44 1.05c.2.14.38.37.48.59l.44 1.1.45-1.1c.1-.25.27-.45.47-.62l1.42-1.04-1.42-1.04a1.3 1.3 0 0 1-.47-.62l-.45-1.07-.44 1.1c-.1.24-.28.44-.48.59l-1.44 1.06Zm4.77 2.43c-.02.03-.02.03 0 0Zm-43.14-37.22 1.5 1.1c.12.1.12.27 0 .37l-1.5 1.09a.34.34 0 0 0-.07.1l-.74 1.8c-.08.2-.35.2-.43 0l-.74-1.8a.29.29 0 0 0-.08-.1l-1.49-1.1a.23.23 0 0 1 0-.37l1.5-1.09c.02-.02.07-.05.07-.1l.74-1.8c.08-.2.35-.2.43 0l.74 1.8.07.1Zm7.47 46.36-1.28-1.28a1.06 1.06 0 0 1 0-1.5c.42-.43 1.1-.43 1.51 0l1.28 1.27 1.28-1.28c.42-.42 1.1-.42 1.52 0 .42.42.42 1.1 0 1.51l-1.28 1.28 1.25 1.25a1.08 1.08 0 0 1-.77 1.84.98.98 0 0 1-.74-.32l-1.26-1.26-1.25 1.26c-.25.22-.5.32-.77.32a.98.98 0 0 1-.75-.32 1.06 1.06 0 0 1 0-1.52l1.26-1.25Zm19.14-51.76-.58-.57a1.07 1.07 0 0 0-1.51 0 1.03 1.03 0 0 0 0 1.5l.58.6-.58.57c-.43.43-.43 1.1 0 1.52.2.22.47.32.74.32s.55-.1.77-.32l.58-.59.59.59c.2.22.47.32.74.32.28 0 .55-.1.77-.32.43-.42.43-1.1 0-1.52l-.58-.58.58-.58c.43-.42.43-1.1 0-1.51a1.07 1.07 0 0 0-1.51 0l-.59.58Zm7.44 70.2-.57-.57a1.07 1.07 0 0 0-1.51 0 1.05 1.05 0 0 0 0 1.51l.57.57-.6.6a1.05 1.05 0 0 0 0 1.5c.2.23.47.33.75.33.27 0 .54-.1.77-.32l.58-.58.58.58c.2.22.48.32.75.32s.54-.1.77-.32c.42-.42.42-1.1 0-1.51l-.59-.59.59-.58c.42-.42.42-1.09 0-1.51a1.07 1.07 0 0 0-1.52 0l-.57.57Zm-38.8-7.65-.58-.58a1.07 1.07 0 0 0-1.52 0 1.05 1.05 0 0 0 0 1.5l.58.6-.58.57c-.42.43-.42 1.1 0 1.52a1 1 0 0 0 .75.32c.27 0 .54-.1.77-.32l.58-.59.58.59a1 1 0 0 0 .75.32c.27 0 .54-.1.77-.32.42-.42.42-1.1 0-1.52l-.59-.58.59-.58c.42-.42.42-1.1 0-1.51a1.07 1.07 0 0 0-1.52 0l-.58.58Z" fill="#C3A173"/><path d="M29.71 86.27c-2.43 0-5.36-.82-8.1-2.28a30.33 30.33 0 0 1-7.5-5.85 33.36 33.36 0 0 1-5.66-7.89 35.72 35.72 0 0 1-4.17-19.32.57.57 0 0 0-.4-.6c-.3-.07-.6.1-.67.4-1.71 6.2-1.36 13.32 1 20.04.2.55-.1 1.17-.65 1.37-.55.2-1.17-.1-1.37-.65-2.5-7.12-2.88-14.68-1.04-21.3a2.68 2.68 0 0 1 5.27.9 33.79 33.79 0 0 0 3.92 18.2 32.52 32.52 0 0 0 5.31 7.4 28.26 28.26 0 0 0 6.98 5.46c2.49 1.34 5.14 2.09 7.28 2.04 1.99-.03 3.28-.67 4.12-2.01a7 7 0 0 0 .82-2.6c.13-1.1.08-2.19-.15-3.45a44.68 44.68 0 0 0-2.3-7.27l-.6-1.58a1550.57 1550.57 0 0 1-7.18-19.54l-1.76-4.91c-.62-1.74-1.22-3.43-1.77-5.26a29.1 29.1 0 0 1-1.14-6.13c-.17-2.35 0-4.66.52-6.82.62-2.5 1.77-4.8 3.28-6.64a14.77 14.77 0 0 1 7.62-4.79c.58-.15 1.15.18 1.32.75.15.57-.17 1.14-.74 1.31a12.46 12.46 0 0 0-6.53 4.1 13.08 13.08 0 0 0-2.91 5.72c-.47 1.93-.65 4-.47 6.15.15 1.84.5 3.74 1.06 5.7a90.67 90.67 0 0 0 1.7 5.06l1.78 4.99c1.3 3.6 2.44 6.8 3.55 9.77 1.2 3.25 2.41 6.5 3.63 9.74l.6 1.59c1.01 2.73 1.98 5.28 2.4 7.64.28 1.44.33 2.77.18 4.06a8.68 8.68 0 0 1-1.12 3.48c-1.22 1.95-3.2 2.97-5.89 3-.07.02-.14.02-.22.02Z" fill="#C3A173"/><path d="M30.43 95c-.22 0-.45 0-.67-.02-2.19-.08-4.37-.5-6.66-1.3a26.86 26.86 0 0 1-5.76-2.8 38.18 38.18 0 0 1-8.84-8c-.37-.45-.3-1.12.15-1.5.45-.37 1.12-.3 1.5.15a36.1 36.1 0 0 0 8.34 7.57 24.24 24.24 0 0 0 5.29 2.58 20.6 20.6 0 0 0 6.03 1.16c2.31.1 4.57-.34 6.56-1.26a12.83 12.83 0 0 0 4.47-3.42 1.06 1.06 0 0 1 1.49-.15c.44.37.52 1.04.15 1.48a14.6 14.6 0 0 1-5.22 4 15.47 15.47 0 0 1-6.83 1.51Zm19.92-73.67a1.1 1.1 0 0 0 1.34.16c1.44-.65 3.42-.17 5.02 1.17-.18.76-.31 2.01.22 3.28a5.68 5.68 0 0 0 3.15 2.94c.68 2.7.74 5.26.37 5.88l-.07.06c-.65.37-3.22.32-5.92-.36a5.7 5.7 0 0 0-2.94-3.14 5.36 5.36 0 0 0-3.27-.22 5.94 5.94 0 0 1-.49-6.25c.2-.26.26-.58.19-.87a1.02 1.02 0 0 0-.57-.74 26.1 26.1 0 0 0-2-1.4c-.67-.41-1.36-.79-2.11-1.13a15.57 15.57 0 0 0-6.56-1.26c-1.44.07-2.85.39-4.04.96-.62.27-1.12.64-1.72 1.09-.52.47-.9.87-1.21 1.31-.7 1-1.2 2.21-1.44 3.6a13.12 13.12 0 0 0-.05 4.2 28 28 0 0 0 1.09 4.43c.67 2 1.56 4.26 2.43 6.42l.61 1.54.6 1.54a694.7 694.7 0 0 1 3.8 9.67c1.27 3.22 2.52 6.47 3.73 9.7l.24.6.38 1a46.25 46.25 0 0 1 2.74 8.96c.24 1.46.37 2.9.32 4.29-.03.57.42 1.06 1.02 1.09h.02a1.1 1.1 0 0 0 1.07-1.07c.05-1.53-.07-3.12-.35-4.7a48.77 48.77 0 0 0-2.83-9.33l-.3-.8-.3-.79c-1.21-3.25-2.45-6.5-3.72-9.72a835.19 835.19 0 0 0-4.42-11.24l-.62-1.56-.18-.45a117.2 117.2 0 0 1-2.2-5.84 23.46 23.46 0 0 1-1.02-4.07c-.18-1.22-.18-2.43.02-3.52a6.31 6.31 0 0 1 1.07-2.7c.25-.33.55-.63.87-.95.42-.32.8-.6 1.24-.8a8.59 8.59 0 0 1 3.25-.76 13 13 0 0 1 5.6 1.09 18.82 18.82 0 0 1 3.16 1.89 7.88 7.88 0 0 0 1.57 8.55c1.25 1.24 3.52 2.39 5.93 3.15a1.07 1.07 0 0 0 .64.2c1.72.5 3.48.8 4.96.8.97 0 1.84-.14 2.5-.43.38.29.46.68.55 1.34l.02.09c.14.84.36 2.06 1.84 2.56l.06.01c.1.02.19.04.3.04.44 0 .86-.27 1.01-.72a1.09 1.09 0 0 0-.67-1.34c-.27-.1-.32-.15-.45-.96v-.05a3.9 3.9 0 0 0-1.27-2.58c.56-1.72.25-4.54-.56-7.26a1 1 0 0 0-.1-.29c-.76-2.46-1.93-4.79-3.2-6.07-2.16-2.15-5.02-3-7.35-2.22a26.42 26.42 0 0 0-5.07-4 18.84 18.84 0 0 0-2.96-1.44c-.55-.2-1.17.08-1.37.62-.2.55.08 1.17.62 1.37a19.61 19.61 0 0 1 5 2.9c.94.74 1.88 1.58 2.78 2.53Z" fill="#C3A173"/><path d="M15.88 18.95c-.67 0-1.3-.4-1.54-1.05l-1.81-4.43-3.63-2.66a1.7 1.7 0 0 1-.67-1.34c0-.52.25-1.01.67-1.34l3.63-2.65 1.8-4.44a1.66 1.66 0 0 1 3.08 0l1.8 4.44 3.65 2.68c.42.32.67.82.67 1.34 0 .52-.25 1.01-.67 1.34l-3.63 2.65-1.81 4.44a1.68 1.68 0 0 1-1.54 1.02Zm-5.22-9.45 3.23 2.35c.25.18.45.42.55.72l1.41 3.5 1.42-3.5c.12-.27.3-.52.55-.72l3.22-2.35-3.22-2.36a1.5 1.5 0 0 1-.55-.7l-1.44-3.49-1.42 3.5c-.12.27-.3.52-.54.72l-3.2 2.33Zm40.46 49.42c-.57 0-1.1-.35-1.32-.87l-1.02-2.5-2.06-1.52a1.4 1.4 0 0 1-.57-1.14c0-.44.22-.86.57-1.14l2.06-1.51 1.02-2.5c.23-.53.72-.87 1.32-.87.57 0 1.1.34 1.31.87l1.02 2.5 2.06 1.51c.38.28.57.7.57 1.14 0 .45-.22.87-.57 1.14l-2.06 1.52-1.02 2.5c-.22.52-.74.87-1.31.87Zm-2.34-6.03 1.44 1.05c.2.14.38.37.48.59l.44 1.1.45-1.1c.1-.25.27-.45.47-.62l1.42-1.04-1.42-1.04a1.3 1.3 0 0 1-.47-.62l-.45-1.07-.44 1.1c-.1.24-.28.44-.48.59l-1.44 1.06Zm4.77 2.43c-.02.03-.02.03 0 0Zm-43.14-37.22 1.5 1.1c.12.1.12.27 0 .37l-1.5 1.09a.34.34 0 0 0-.07.1l-.74 1.8c-.08.2-.35.2-.43 0l-.74-1.8a.29.29 0 0 0-.08-.1l-1.49-1.1a.23.23 0 0 1 0-.37l1.5-1.09c.02-.02.07-.05.07-.1l.74-1.8c.08-.2.35-.2.43 0l.74 1.8.07.1Zm7.47 46.36-1.28-1.28a1.06 1.06 0 0 1 0-1.5c.42-.43 1.1-.43 1.51 0l1.28 1.27 1.28-1.28c.42-.42 1.1-.42 1.52 0 .42.42.42 1.1 0 1.51l-1.28 1.28 1.25 1.25a1.08 1.08 0 0 1-.77 1.84.98.98 0 0 1-.74-.32l-1.26-1.26-1.25 1.26c-.25.22-.5.32-.77.32a.98.98 0 0 1-.75-.32 1.06 1.06 0 0 1 0-1.52l1.26-1.25Zm19.14-51.76-.58-.57a1.07 1.07 0 0 0-1.51 0 1.03 1.03 0 0 0 0 1.5l.58.6-.58.57c-.43.43-.43 1.1 0 1.52.2.22.47.32.74.32s.55-.1.77-.32l.58-.59.59.59c.2.22.47.32.74.32.28 0 .55-.1.77-.32.43-.42.43-1.1 0-1.52l-.58-.58.58-.58c.43-.42.43-1.1 0-1.51a1.07 1.07 0 0 0-1.51 0l-.59.58Zm7.44 70.2-.57-.57a1.07 1.07 0 0 0-1.51 0 1.05 1.05 0 0 0 0 1.51l.57.57-.6.6a1.05 1.05 0 0 0 0 1.5c.2.23.47.33.75.33.27 0 .54-.1.77-.32l.58-.58.58.58c.2.22.48.32.75.32s.54-.1.77-.32c.42-.42.42-1.1 0-1.51l-.59-.59.59-.58c.42-.42.42-1.09 0-1.51a1.07 1.07 0 0 0-1.52 0l-.57.57Zm-38.8-7.65-.58-.58a1.07 1.07 0 0 0-1.52 0 1.05 1.05 0 0 0 0 1.5l.58.6-.58.57c-.42.43-.42 1.1 0 1.52a1 1 0 0 0 .75.32c.27 0 .54-.1.77-.32l.58-.59.58.59a1 1 0 0 0 .75.32c.27 0 .54-.1.77-.32.42-.42.42-1.1 0-1.52l-.59-.58.59-.58c.42-.42.42-1.1 0-1.51a1.07 1.07 0 0 0-1.52 0l-.58.58Z" stroke="#1A191E" stroke-width=".8" mask="url(#a)"/><path d="M29.71 86.27c-2.43 0-5.36-.82-8.1-2.28a30.33 30.33 0 0 1-7.5-5.85 33.36 33.36 0 0 1-5.66-7.89 35.72 35.72 0 0 1-4.17-19.32.57.57 0 0 0-.4-.6c-.3-.07-.6.1-.67.4-1.71 6.2-1.36 13.32 1 20.04.2.55-.1 1.17-.65 1.37-.55.2-1.17-.1-1.37-.65-2.5-7.12-2.88-14.68-1.04-21.3a2.68 2.68 0 0 1 5.27.9 33.79 33.79 0 0 0 3.92 18.2 32.52 32.52 0 0 0 5.31 7.4 28.26 28.26 0 0 0 6.98 5.46c2.49 1.34 5.14 2.09 7.28 2.04 1.99-.03 3.28-.67 4.12-2.01a7 7 0 0 0 .82-2.6c.13-1.1.08-2.19-.15-3.45a44.68 44.68 0 0 0-2.3-7.27l-.6-1.58a1550.57 1550.57 0 0 1-7.18-19.54l-1.76-4.91c-.62-1.74-1.22-3.43-1.77-5.26a29.1 29.1 0 0 1-1.14-6.13c-.17-2.35 0-4.66.52-6.82.62-2.5 1.77-4.8 3.28-6.64a14.77 14.77 0 0 1 7.62-4.79c.58-.15 1.15.18 1.32.75.15.57-.17 1.14-.74 1.31a12.46 12.46 0 0 0-6.53 4.1 13.08 13.08 0 0 0-2.91 5.72c-.47 1.93-.65 4-.47 6.15.15 1.84.5 3.74 1.06 5.7a90.67 90.67 0 0 0 1.7 5.06l1.78 4.99c1.3 3.6 2.44 6.8 3.55 9.77 1.2 3.25 2.41 6.5 3.63 9.74l.6 1.59c1.01 2.73 1.98 5.28 2.4 7.64.28 1.44.33 2.77.18 4.06a8.68 8.68 0 0 1-1.12 3.48c-1.22 1.95-3.2 2.97-5.89 3-.07.02-.14.02-.22.02Z" stroke="#1A191E" stroke-width=".8" mask="url(#a)"/><path d="M30.43 95c-.22 0-.45 0-.67-.02-2.19-.08-4.37-.5-6.66-1.3a26.86 26.86 0 0 1-5.76-2.8 38.18 38.18 0 0 1-8.84-8c-.37-.45-.3-1.12.15-1.5.45-.37 1.12-.3 1.5.15a36.1 36.1 0 0 0 8.34 7.57 24.24 24.24 0 0 0 5.29 2.58 20.6 20.6 0 0 0 6.03 1.16c2.31.1 4.57-.34 6.56-1.26a12.83 12.83 0 0 0 4.47-3.42 1.06 1.06 0 0 1 1.49-.15c.44.37.52 1.04.15 1.48a14.6 14.6 0 0 1-5.22 4 15.47 15.47 0 0 1-6.83 1.51Zm19.92-73.67a1.1 1.1 0 0 0 1.34.16c1.44-.65 3.42-.17 5.02 1.17-.18.76-.31 2.01.22 3.28a5.68 5.68 0 0 0 3.15 2.94c.68 2.7.74 5.26.37 5.88l-.07.06c-.65.37-3.22.32-5.92-.36a5.7 5.7 0 0 0-2.94-3.14 5.36 5.36 0 0 0-3.27-.22 5.94 5.94 0 0 1-.49-6.25c.2-.26.26-.58.19-.87a1.02 1.02 0 0 0-.57-.74 26.1 26.1 0 0 0-2-1.4c-.67-.41-1.36-.79-2.11-1.13a15.57 15.57 0 0 0-6.56-1.26c-1.44.07-2.85.39-4.04.96-.62.27-1.12.64-1.72 1.09-.52.47-.9.87-1.21 1.31-.7 1-1.2 2.21-1.44 3.6a13.12 13.12 0 0 0-.05 4.2 28 28 0 0 0 1.09 4.43c.67 2 1.56 4.26 2.43 6.42l.61 1.54.6 1.54a694.7 694.7 0 0 1 3.8 9.67c1.27 3.22 2.52 6.47 3.73 9.7l.24.6.38 1a46.25 46.25 0 0 1 2.74 8.96c.24 1.46.37 2.9.32 4.29-.03.57.42 1.06 1.02 1.09h.02a1.1 1.1 0 0 0 1.07-1.07c.05-1.53-.07-3.12-.35-4.7a48.77 48.77 0 0 0-2.83-9.33l-.3-.8-.3-.79c-1.21-3.25-2.45-6.5-3.72-9.72a835.19 835.19 0 0 0-4.42-11.24l-.62-1.56-.18-.45a117.2 117.2 0 0 1-2.2-5.84 23.46 23.46 0 0 1-1.02-4.07c-.18-1.22-.18-2.43.02-3.52a6.31 6.31 0 0 1 1.07-2.7c.25-.33.55-.63.87-.95.42-.32.8-.6 1.24-.8a8.59 8.59 0 0 1 3.25-.76 13 13 0 0 1 5.6 1.09 18.82 18.82 0 0 1 3.16 1.89 7.88 7.88 0 0 0 1.57 8.55c1.25 1.24 3.52 2.39 5.93 3.15a1.07 1.07 0 0 0 .64.2c1.72.5 3.48.8 4.96.8.97 0 1.84-.14 2.5-.43.38.29.46.68.55 1.34l.02.09c.14.84.36 2.06 1.84 2.56l.06.01c.1.02.19.04.3.04.44 0 .86-.27 1.01-.72a1.09 1.09 0 0 0-.67-1.34c-.27-.1-.32-.15-.45-.96v-.05a3.9 3.9 0 0 0-1.27-2.58c.56-1.72.25-4.54-.56-7.26a1 1 0 0 0-.1-.29c-.76-2.46-1.93-4.79-3.2-6.07-2.16-2.15-5.02-3-7.35-2.22a26.42 26.42 0 0 0-5.07-4 18.84 18.84 0 0 0-2.96-1.44c-.55-.2-1.17.08-1.37.62-.2.55.08 1.17.62 1.37a19.61 19.61 0 0 1 5 2.9c.94.74 1.88 1.58 2.78 2.53Z" stroke="#1A191E" stroke-width=".8" mask="url(#a)"/></svg>